<?xml version="1.0"?>
<svg xmlns="http://www.w3.org/2000/svg" xmlns:xlink="http://www.w3.org/1999/xlink" xmlns:svgjs="http://svgjs.com/svgjs" version="1.1" width="512" height="512" x="0" y="0" viewBox="0 0 511 511" style="enable-background:new 0 0 512 512" xml:space="preserve" class=""><g><g xmlns="http://www.w3.org/2000/svg" fill="#233d91"><path d="m390.57 267.343-70.674-27.343h-103.217l-.823.777-95.071 26.641-92.494-18.944-28.181 144.171 110.239 14.637c-2.646 9.212-.364 19.561 6.854 26.805 5.126 5.146 11.944 7.98 19.197 7.98 5.968 0 11.638-1.922 16.316-5.468 1.263 4.048 3.483 7.858 6.672 11.06 5.126 5.146 11.944 7.979 19.197 7.979 4.209 0 8.268-.96 11.938-2.767 1.157 3.368 3.045 6.537 5.719 9.222 4.576 4.594 10.663 7.124 17.139 7.124s12.562-2.53 17.139-7.124l1.179-1.184c1.178 2.899 2.935 5.616 5.275 7.965 4.576 4.594 10.663 7.124 17.138 7.124 6.475 0 12.562-2.53 17.139-7.124l.282-.283c5.592 1.837 11.36 2.752 17.099 2.752 11.482 0 22.838-3.612 32.382-10.583l75.146-47.409 113.597-21.088-27.018-143.798zm-372.68 112.532 22.219-113.669 53.6 10.978-21.427 109.913zm127.08 43.627c-2.291 2.299-5.334 3.566-8.57 3.566s-6.28-1.267-8.57-3.566c-4.748-4.766-4.748-12.521 0-17.287l18.081-18.15c2.291-2.299 5.334-3.565 8.57-3.565s6.28 1.266 8.57 3.565c4.748 4.766 4.748 12.521 0 17.287zm49.598 6.132-7.412 7.44c-2.291 2.299-5.334 3.565-8.57 3.565-3.235 0-6.279-1.266-8.57-3.565-4.748-4.766-4.748-12.521 0-17.287l18.081-18.15c2.291-2.299 5.334-3.565 8.57-3.565s6.28 1.266 8.57 3.565c4.344 4.361 4.7 11.217 1.096 16.003l-10.089 10.128c-.598.599-1.155 1.223-1.676 1.866zm47.523-.408-22.198 22.283c-1.741 1.747-4.053 2.71-6.512 2.71-2.458 0-4.771-.963-6.512-2.71-3.256-3.269-3.567-8.379-.955-12.012l9.948-9.986c.628-.63 1.215-1.285 1.768-1.959l11.436-11.48c1.741-1.747 4.053-2.709 6.511-2.71 2.458 0 4.771.963 6.512 2.71 3.615 3.626 3.615 9.527.002 13.154zm30.5 17.053-11.965 12.011c-1.741 1.748-4.054 2.71-6.512 2.71s-4.771-.962-6.511-2.71c-3.613-3.627-3.613-9.528 0-13.154l11.965-12.011c1.741-1.747 4.053-2.709 6.511-2.71 2.458 0 4.771.963 6.512 2.71 3.613 3.626 3.613 9.527 0 13.154zm40.197 1.938-.453.31c-8.265 6.103-18.423 8.704-28.383 7.523 8.659-9.513 8.432-24.31-.735-33.511-4.576-4.594-10.663-7.124-17.139-7.124-2.444 0-4.832.362-7.105 1.057-1.049-4.026-3.119-7.838-6.256-10.987-4.576-4.594-10.663-7.124-17.139-7.124-4.688 0-9.169 1.333-13.024 3.808-1.26-4.07-3.486-7.901-6.691-11.119-5.126-5.146-11.944-7.979-19.197-7.979-5.967 0-11.638 1.922-16.316 5.468-1.263-4.049-3.483-7.859-6.673-11.061-5.126-5.146-11.944-7.979-19.197-7.979s-14.07 2.834-19.196 7.979l-15.822 15.882-32.283-4.286 21.226-108.881 12.93 2.648 71.081-19.918-51.689 48.835 5.435 5.456c22.782 22.869 59.155 23.579 82.804 1.618l10.813-10.041c10.614 12.344 35.947 39.999 62.141 55.337 30.232 17.703 60.559 34.151 76.509 42.676zm81.781-49.824c-9.538-5.031-47.388-25.145-85.068-47.209-31.263-18.307-62.862-57.556-63.177-57.95l-5.044-6.304-22.519 20.909c-15.771 14.645-39.1 15.818-56.058 3.793l59.941-56.632h94.452l72.169 27.921 21.205-4.342 21.979 112.783zm52.629-9.77-22.032-113.054 45.648-9.348 21.427 114.04z" fill="#000529" data-original="#233d91" style="" class=""/><path d="m68 214.699 5.57-6.176c6.389-7.086 62.43-70.246 62.43-105.523 0-37.495-30.505-68-68-68s-68 30.505-68 68c0 35.277 56.041 98.437 62.43 105.523zm0-164.699c29.224 0 53 23.776 53 53 0 22.532-34.281 67.248-53 89.122-18.719-21.874-53-66.59-53-89.122 0-29.224 23.776-53 53-53z" fill="#000529" data-original="#233d91" style="" class=""/><path d="m104 99c0-19.851-16.149-36-36-36s-36 16.149-36 36 16.149 36 36 36 36-16.149 36-36zm-57 0c0-11.58 9.42-21 21-21s21 9.42 21 21-9.42 21-21 21-21-9.42-21-21z" fill="#000529" data-original="#233d91" style="" class=""/><path d="m443 214.699 5.57-6.176c6.389-7.086 62.43-70.246 62.43-105.523 0-37.495-30.505-68-68-68s-68 30.505-68 68c0 35.277 56.041 98.437 62.43 105.523zm0-164.699c29.224 0 53 23.776 53 53 0 22.532-34.281 67.248-53 89.122-18.719-21.874-53-66.589-53-89.122 0-29.224 23.776-53 53-53z" fill="#000529" data-original="#233d91" style="" class=""/><path d="m479 99c0-19.851-16.149-36-36-36s-36 16.149-36 36 16.149 36 36 36 36-16.149 36-36zm-57 0c0-11.58 9.42-21 21-21s21 9.42 21 21-9.42 21-21 21-21-9.42-21-21z" fill="#000529" data-original="#233d91" style="" class=""/><path d="m388 195h15v15h-15z" fill="#000529" data-original="#233d91" style="" class=""/><path d="m107 195h15v15h-15z" fill="#000529" data-original="#233d91" style="" class=""/><path d="m137 195h236v15h-236z" fill="#000529" data-original="#233d91" style="" class=""/></g></g></svg>
