<?xml version="1.0"?>
<svg xmlns="http://www.w3.org/2000/svg" id="_x33_0" enable-background="new 0 0 64 64" height="512px" viewBox="0 0 64 64" width="512px" class=""><g><path d="m63.247 63-4.194-18.87 1.671-3.341c.18-.362.276-.767.276-1.171 0-1.444-1.175-2.618-2.618-2.618h-3.764l-1.145-2.291c-.31-.619-.473-1.311-.473-2.001 0-1.841 1.104-3.472 2.813-4.156l3.019-1.207c2.532-1.013 4.168-3.43 4.168-6.157 0-2.315-1.233-4.494-3.22-5.686l-.313-.188c-.905-.543-1.467-1.536-1.467-2.591 0-1.243.746-2.344 1.9-2.806l.222-.089c1.748-.699 2.878-2.367 2.878-4.25 0-2.524-2.054-4.578-4.578-4.578h-20.422c-1.474 0-2.75.81-3.444 2h-22.556c-2.757 0-5 2.243-5 5s2.243 5 5 5h2c.552 0 1 .449 1 1s-.448 1-1 1h-9c-2.206 0-4 1.794-4 4s1.794 4 4 4h4.276c.951 0 1.724.773 1.724 1.724 0 .513-.227.996-.621 1.325l-2.981 2.484c-1.524 1.27-2.398 3.136-2.398 5.12 0 1.196.32 2.34.907 3.347h-.289c-1.443 0-2.618 1.174-2.618 2.618 0 .404.096.809.276 1.171l1.671 3.341-4.194 18.87zm-24.865-24c.341 0 .618.277.618.618 0 .095-.022.191-.065.276l-1.553 3.106h-10.764l-1.552-3.105c-.044-.086-.066-.182-.066-.277 0-.341.277-.618.618-.618zm-1.602-2.633c-.503-.504-.78-1.173-.78-1.886 0-1.096.657-2.068 1.674-2.475l.131-.052c1.941-.775 3.195-2.627 3.195-4.718 0-1.007-.295-1.982-.854-2.819l-.67-1.004c-.311-.469-.476-1.013-.476-1.575 0-1.565 1.273-2.838 2.838-2.838h4.748l.07.07c.866.867 1.344 2.019 1.344 3.244 0 1.401-.628 2.707-1.721 3.582l-.608.486c-1.697 1.359-2.671 3.385-2.671 5.559 0 1.926.798 3.775 2.164 5.105-1.227.216-2.164 1.284-2.164 2.572 0 .404.096.809.276 1.171l1.671 3.341-2.947 13.261-2.947-13.261 1.671-3.341c.18-.362.276-.767.276-1.171 0-1.444-1.175-2.618-2.618-2.618h-.968zm-9.978 8.633h10.397l3.555 16h-17.507zm33.951 16h-17.506l3.555-16h10.397zm-1.753-21.382c0 .095-.022.191-.065.276l-1.553 3.106h-10.764l-1.552-3.105c-.044-.086-.066-.182-.066-.277 0-.341.277-.618.618-.618h12.764c.341 0 .618.277.618.618zm-21-36.618h20.422c1.422 0 2.578 1.156 2.578 2.578 0 1.061-.636 2-1.621 2.394l-.222.088c-1.918.767-3.157 2.597-3.157 4.663 0 1.754.934 3.404 2.438 4.307l.313.188c1.388.832 2.249 2.353 2.249 3.97 0 1.904-1.143 3.592-2.91 4.299l-3.019 1.208c-2.473.989-4.071 3.349-4.071 6.013 0 1 .236 2 .684 2.896l.698 1.396h-4.049l-1.286-.965c-1.281-.961-2.047-2.491-2.047-4.094 0-1.563.7-3.021 1.92-3.997l.608-.486c1.571-1.257 2.472-3.132 2.472-5.144 0-1.223-.338-2.392-.958-3.411 2.813-.495 4.958-2.95 4.958-5.903 0-3.309-2.691-6-6-6h-10c-1.103 0-2-.897-2-2s.897-2 2-2zm-29.634 33.952c-.881-.881-1.366-2.053-1.366-3.299 0-1.389.611-2.695 1.679-3.584l2.981-2.484c.852-.709 1.34-1.752 1.34-2.861 0-2.054-1.671-3.724-3.724-3.724h-4.276c-1.103 0-2-.897-2-2s.897-2 2-2h9c1.654 0 3-1.346 3-3s-1.346-3-3-3h-2c-1.654 0-3-1.346-3-3s1.346-3 3-3h22c0 .732.212 1.409.556 2h-.556c-2.206 0-4 1.794-4 4s1.794 4 4 4v-2c-1.103 0-2-.897-2-2s.897-2 2-2h14c2.206 0 4 1.794 4 4s-1.794 4-4 4h-6.162c-2.668 0-4.838 2.17-4.838 4.838 0 .958.281 1.886.813 2.684l.67 1.005c.338.507.517 1.098.517 1.709 0 1.268-.761 2.392-1.937 2.861l-.131.052c-1.781.713-2.932 2.414-2.932 4.332 0 .908.264 1.773.744 2.519h-5.209l-.942-1.414c-.388-.581-.593-1.258-.593-1.958 0-1.263.682-2.438 1.778-3.064l2.486-1.42c1.688-.965 2.736-2.771 2.736-4.714 0-2.994-2.436-5.43-5.43-5.43h-2.57c-2.206 0-4-1.794-4-4s1.794-4 4-4h1v-2h-1c-3.309 0-6 2.691-6 6s2.691 6 6 6h2.57c1.892 0 3.43 1.539 3.43 3.43 0 1.228-.662 2.369-1.728 2.978l-2.486 1.42c-1.719.982-2.786 2.821-2.786 4.8 0 1.095.321 2.156.929 3.067l.203.305h-1.513c-1.444 0-2.619 1.174-2.619 2.618 0 .404.096.809.276 1.171l1.671 3.341-2.947 13.261-2.947-13.261 1.671-3.341c.18-.362.276-.767.276-1.171 0-1.444-1.175-2.618-2.618-2.618h-1.968l-.048-.048c-.881-.881-1.366-2.053-1.366-3.299 0-1.389.611-2.695 1.679-3.584l2.33-1.942c1.265-1.054 1.991-2.603 1.991-4.25 0-1.478-.575-2.867-1.62-3.912l-1.673-1.672-1.414 1.414 1.673 1.672c.667.668 1.034 1.555 1.034 2.498 0 1.051-.463 2.04-1.271 2.713l-2.331 1.942c-1.524 1.271-2.398 3.137-2.398 5.121 0 1.196.32 2.34.907 3.347h-5.493zm-2.748 2.048h12.764c.341 0 .618.277.618.618 0 .095-.022.191-.065.276l-1.553 3.106h-10.764l-1.552-3.105c-.044-.086-.066-.182-.066-.277 0-.341.277-.618.618-.618zm1.184 6h10.397l3.555 16h-17.507z" data-original="#000000" class="active-path" data-old_color="#000000" fill="#FFFFFF"/></g> </svg>
