<svg id="filled_outline" height="512" viewBox="0 0 512 512" width="512" xmlns="http://www.w3.org/2000/svg" data-name="filled outline"><path d="m216 392v104h-192v-94.06a33.94583 33.94583 0 0 1 33.94-33.94h117.49a39.99385 39.99385 0 0 1 28.29 11.72z" fill="#548aff"/><path d="m136 392-8 16 8 40-16 16-16-16 8-40-8-16 16-16z" fill="#f5714f"/><path d="m328 488h32v-16a24 24 0 0 0 -24-24h-8z" fill="#ffceb6"/><path d="m200 392h128v96h-128z" fill="#ffc431"/><circle cx="264" cy="440" fill="#ffe28f" r="16"/><path d="m128 312v-240h360v240a16 16 0 0 1 -16 16h-328a16 16 0 0 1 -16-16z" fill="#e0edff"/><path d="m488 72h-360v-32a16 16 0 0 1 16-16h328a16 16 0 0 1 16 16z" fill="#c5dafa"/><path d="m168 112h48v48h-48z" fill="#ef5e3b"/><path d="m120 376a24 24 0 0 1 -24-24v-8l16-16h32v24a24 24 0 0 1 -24 24z" fill="#ffceb6"/><path d="m144 328 6.63344-13.26688a12.94424 12.94424 0 0 0 1.36656-5.78885 12.94426 12.94426 0 0 0 -12.94426-12.94427h-19.05574a24 24 0 0 0 -24 24v24l16-16z" fill="#b1712c"/><path d="m208 472v16h-98.75a31.99526 31.99526 0 0 1 -22.62-9.37l-18.63-18.63 32-32 20 20h64a24.00619 24.00619 0 0 1 24 24z" fill="#ffceb6"/><g fill="#548aff"><circle cx="176" cy="224" r="16"/><circle cx="248" cy="272" r="16"/><circle cx="328" cy="248" r="16"/><circle cx="384" cy="184" r="16"/><circle cx="440" cy="256" r="16"/></g><path d="m32 435.31348 48.9707 48.9707a39.73644 39.73644 0 0 0 28.28418 11.71582h250.74512a7.99977 7.99977 0 0 0 8-8v-16a32.036 32.036 0 0 0 -32-32v-48a7.99977 7.99977 0 0 0 -8-8h-108.68652l-9.94092-9.94092a47.68367 47.68367 0 0 0 -33.94092-14.05908h-24.44421a31.948 31.948 0 0 0 1.01257-8v-22.11176l5.78857-11.57672a20.94437 20.94437 0 0 0 -18.73291-30.31152h-19.05566a32.036 32.036 0 0 0 -32 32v32a31.948 31.948 0 0 0 1.01257 8h-31.07165a41.9882 41.9882 0 0 0 -41.94092 41.94092v94.05908h16zm320 36.68652v8h-16v-24a16.01833 16.01833 0 0 1 16 16zm-152 8h-90.74512a23.84457 23.84457 0 0 1 -16.9707-7.0293l-12.9707-12.9707 20.68652-20.68652 14.34326 14.34326a7.99877 7.99877 0 0 0 5.65674 2.34326h64a16.01833 16.01833 0 0 1 16 16zm-81.44153-64h2.88306l4.8 24h-2.92753l-7.96307-7.96295zm4.49744-16h-6.11182l-4.03937-8.07867 7.09528-5.67621 7.09528 5.67621zm13.76147-20.7912a32.18322 32.18322 0 0 0 4.31494-3.2088h10.86768v15.355zm-16.81738-11.2088a16.01833 16.01833 0 0 1 -16-16v-4.68652l11.31348-11.31348h20.68652v16a16.01833 16.01833 0 0 1 -16 16zm-16.81738 11.2088-15.18262 12.1462v-15.355h10.86768a32.18322 32.18322 0 0 0 4.31494 3.2088zm-3.05512 22.93433 3.48969 6.97943-1.86365 9.31732-9.77649-9.77637zm219.8725 77.85687h-104v-8a31.86 31.86 0 0 0 -8-21.13232v-50.86768h112zm-122.83081-95.475a7.99546 7.99546 0 0 0 -5.16919 7.475v28.68652l-10.34326-10.34326-11.31348 11.31348 18.75391 18.7539a32.08221 32.08221 0 0 0 -5.09717-.41064h-41.44153l-6.17566-30.87744 3.48969-6.97943 15.12994 12.10394a8.00013 8.00013 0 0 0 12.99756-6.24707v-32h7.43164a31.76818 31.76818 0 0 1 21.73755 8.525zm-77.16919-80.525h19.05566a4.94417 4.94417 0 0 1 4.42237 7.15527l-4.42218 8.84473h-27.05585a7.99877 7.99877 0 0 0 -5.65674 2.34326l-2.34326 2.34326v-4.68652a16.01833 16.01833 0 0 1 16-16zm-62.05908 72h14.05908v32a7.98362 7.98362 0 0 0 2.356 5.644l-.01276.01276 14.34328 14.34324-20.68652 20.68652-28.40234-28.40234a25.94129 25.94129 0 0 1 18.34326-44.28418z"/><path d="m264 464a24 24 0 1 0 -24-24 24.02687 24.02687 0 0 0 24 24zm0-32a8 8 0 1 1 -8 8 8.00917 8.00917 0 0 1 8-8z"/><path d="m472 16h-328a24.02687 24.02687 0 0 0 -24 24v232h16v-192h344v232a8.00917 8.00917 0 0 1 -8 8h-296v16h296a24.02687 24.02687 0 0 0 24-24v-272a24.02687 24.02687 0 0 0 -24-24zm-336 48v-24a8.00917 8.00917 0 0 1 8-8h328a8.00917 8.00917 0 0 1 8 8v24z"/><circle cx="152" cy="48" r="8"/><circle cx="176" cy="48" r="8"/><circle cx="200" cy="48" r="8"/><path d="m216 168a7.99977 7.99977 0 0 0 8-8v-48a7.99977 7.99977 0 0 0 -8-8h-48a7.99977 7.99977 0 0 0 -8 8v48a7.99977 7.99977 0 0 0 8 8zm-40-48h32v32h-32z"/><path d="m248 112h40v16h-40z"/><path d="m304 112h80v16h-80z"/><path d="m248 144h72v16h-72z"/><path d="m152 224a23.9892 23.9892 0 0 0 35.30157 21.16528l37.0445 30.87043a23.9986 23.9986 0 0 0 46.88843 1.98541l39.6515-13.21712a23.98686 23.98686 0 0 0 38.27929-28.10553l25.49292-30.59137a23.9706 23.9706 0 0 0 17.82862.33819l26.77893 37.49036a23.99445 23.99445 0 1 0 12.24743-10.38086l-26.77893-37.49036a23.99742 23.99742 0 1 0 -41.89953-.76282l-25.49293 30.59133a23.99961 23.99961 0 0 0 -33.3418 22.10706c0 .7417.03882 1.4743.105 2.199l-34.44116 11.4804a23.98476 23.98476 0 0 0 -41.44739-3.2464l-30.10937-25.09118a23.99993 23.99993 0 1 0 -46.10708-9.34182zm296 32a8 8 0 1 1 -8-8 8.00917 8.00917 0 0 1 8 8zm-64-80a8 8 0 1 1 -8 8 8.00917 8.00917 0 0 1 8-8zm-56 64a8 8 0 1 1 -8 8 8.00917 8.00917 0 0 1 8-8zm-80 24a8 8 0 1 1 -8 8 8.00917 8.00917 0 0 1 8-8zm-72-48a8 8 0 1 1 -8 8 8.00917 8.00917 0 0 1 8-8z"/></svg>