<svg id="filled_outline" height="512" viewBox="0 0 512 512" width="512" xmlns="http://www.w3.org/2000/svg" data-name="filled outline"><rect fill="#b1712c" height="344" rx="16" width="272" x="216" y="56"/><path d="m248 88h208v280h-208z" fill="#e0edff"/><path d="m280 288h48v48h-48z" fill="#bed3f7"/><path d="m280 200h48v48h-48z" fill="#bed3f7"/><path d="m368 56v-16a16 16 0 0 0 -16-16 16 16 0 0 0 -16 16v16z" fill="#ffb401"/><path d="m440 56-32 48h-112l-32-48z" fill="#ffc431"/><path d="m64 264v184l40 16 16-152 16 152 40-16v-184z" fill="#718799"/><path d="m296 172.68a30.60056 30.60056 0 0 1 -7.37012 19.92l-28.81982 33.62a39.46652 39.46652 0 0 1 -54.62012 5.13l-15.48994-12.39-13.7-10.96v56h-112v-120h106.75a31.99554 31.99554 0 0 1 22.62012 9.37l38.62988 38.63 20.01-20.01v-18.35a5.66387 5.66387 0 0 1 9.65991-4l6.34009 6.35 11.99-11.99 7.04 7.04a30.63313 30.63313 0 0 1 8.96 21.64z" fill="#ffceb6"/><path d="m220 180-30.3 38.96-13.7-10.96v56h-112v-120h106.75a31.99554 31.99554 0 0 1 22.62012 9.37z" fill="#548aff"/><path d="m64 144h-8a32 32 0 0 0 -32 32v136a24 24 0 0 0 24 24h16v-24h10.34315a5.65685 5.65685 0 0 0 5.65685-5.65685 5.65684 5.65684 0 0 0 -1.65685-4l-14.34315-14.34315z" fill="#ffceb6"/><path d="m136 464v24h72v-16l-32-24z" fill="#e0edff"/><path d="m104 464v24h-72v-16l32-24z" fill="#e0edff"/><path d="m136 168-8 16 8 40-16 16-16-16 8-40-8-16 16-16z" fill="#f5714f"/><path d="m72 224h-48v-48a32 32 0 0 1 32-32h16z" fill="#548aff"/><path d="m120 152a24 24 0 0 1 -24-24v-8l16-16h32v24a24 24 0 0 1 -24 24z" fill="#ffceb6"/><path d="m144 104 6.63344-13.26688a12.94424 12.94424 0 0 0 1.36656-5.78885 12.94426 12.94426 0 0 0 -12.94426-12.94427h-19.05574a24 24 0 0 0 -24 24v24l16-16z" fill="#b1712c"/><path d="m212.7998 465.6001-28.7998-21.59986v-219.35524l16.19141 12.95264a47.47082 47.47082 0 0 0 65.69726-6.17481l28.81738-33.61963a38.6077 38.6077 0 0 0 -2.01367-52.42431l-7.03515-7.03565a8.00063 8.00063 0 0 0 -11.31446 0l-6.33007 6.33106-.68653-.68653a13.65669 13.65669 0 0 0 -23.31347 9.65674v15.0293l-12.0127 12.01271-32.9707-32.97119a39.74137 39.74137 0 0 0 -28.28418-11.71533h-19.75782a31.942 31.942 0 0 0 1.0127-8v-22.11157l5.79-11.57837a20.94556 20.94556 0 0 0 -18.73434-30.31006h-19.05566a32.03635 32.03635 0 0 0 -32 32v32a31.942 31.942 0 0 0 1.0127 8h-33.0127a40.04552 40.04552 0 0 0 -40 40v136a32.03635 32.03635 0 0 0 32 32h8v100.00024l-28.7998 21.59986a7.99927 7.99927 0 0 0 -3.2002 6.3999v16a8.00008 8.00008 0 0 0 8 8h72a8.00008 8.00008 0 0 0 8-8v-23.58008l8-76 8 76v23.58008a8.00008 8.00008 0 0 0 8 8h72a8.00008 8.00008 0 0 0 8-8v-16a7.99927 7.99927 0 0 0 -3.2002-6.3999zm24.85743-267.94336 20.01269-20.01221a8.00035 8.00035 0 0 0 2.34278-5.65674v-12.686l2.34375 2.34326a8 8 0 0 0 11.31347-.00049l6.33008-6.33056 1.37891 1.37891a22.60666 22.60666 0 0 1 1.17871 30.69727l-28.81739 33.61963a31.4708 31.4708 0 0 1 -43.55468 4.09375l-9.32764-7.462 19.89309-25.5768 5.59179 5.592a7.99989 7.99989 0 0 0 11.31444-.00002zm-110.3418 23.71387-7.31543 7.31591-7.31543-7.31591 5.87402-29.37061h2.88282zm-39.31543-69.37061h10.86792a32.18232 32.18232 0 0 0 4.31494 3.20886l-15.18286 12.14614zm32-8a16.01833 16.01833 0 0 1 -16-16v-4.68652l11.31348-11.31348h20.68652v16a16.01833 16.01833 0 0 1 -16 16zm3.05591 32h-6.11182l-4.03955-8.079 7.09546-5.67625 7.09546 5.67627zm13.76123-20.79114a32.18232 32.18232 0 0 0 4.31494-3.20886h10.86792v15.355zm-16.81714-75.20886h19.05566a4.945 4.945 0 0 1 4.42286 7.15527l-4.42261 8.84473h-27.05591a8.00076 8.00076 0 0 0 -5.65723 2.34326l-2.34277 2.34274v-4.686a16.01833 16.01833 0 0 1 16-16zm-64 72h16v32a7.99975 7.99975 0 0 0 12.99707 6.24707l15.13037-12.10419 3.48975 6.97968-7.46192 37.30859a8.002 8.002 0 0 0 2.1875 7.22559l16 16a8.00063 8.00063 0 0 0 11.31446 0l16-16a8.002 8.002 0 0 0 2.1875-7.22559l-7.46192-37.30859 3.48975-6.97968 15.13037 12.10419a7.99969 7.99969 0 0 0 12.99707-6.24707v-32h2.74512a23.84541 23.84541 0 0 1 16.9707 7.0293l21.63379 21.634-20.98633 26.98248-7.36621-5.89282a7.99969 7.99969 0 0 0 -12.99707 6.24704v48h-96v-56h-16v16h-24v-40a24.0275 24.0275 0 0 1 24-24zm-24 160v-80h24v56a8.00121 8.00121 0 0 0 2.34277 5.65674l10.34278 10.34326h-4.68555a8.00008 8.00008 0 0 0 -8 8v16h-8a16.01833 16.01833 0 0 1 -16-16zm8 168v-4l25.20337-18.90265 30.79663 12.31865v10.584zm80-176a8.00023 8.00023 0 0 0 -7.95605 7.1626l-14.89258 141.4814-25.15137-10.0605v-122.5835h2.34277a13.65669 13.65669 0 0 0 9.65723-23.31348l-12-12v-12.68652h96v170.5835l-25.15137 10.0605-14.89258-141.4814a8.00023 8.00023 0 0 0 -7.95605-7.1626zm80 176h-56v-10.584l30.79663-12.31867 25.20337 18.90267z"/><path d="m472 48h-96v-8a24 24 0 0 0 -48 0v8h-96a24.0275 24.0275 0 0 0 -24 24v64h16v-64a8.00917 8.00917 0 0 1 8-8h27.71875l10.66675 16h-22.3855a8.00008 8.00008 0 0 0 -8 8v32h16v-24h25.052l8.29175 12.4375a7.99943 7.99943 0 0 0 6.65625 3.5625h112a7.99943 7.99943 0 0 0 6.65625-3.5625l8.29175-12.4375h25.052v264h-192v-96h-16v104a8.00008 8.00008 0 0 0 8 8h208a8.00008 8.00008 0 0 0 8-8v-280a8.00008 8.00008 0 0 0 -8-8h-22.3855l10.66675-16h27.71875a8.00917 8.00917 0 0 1 8 8v312a8.00917 8.00917 0 0 1 -8 8h-240a8.00917 8.00917 0 0 1 -8-8v-120h-16v120a24.0275 24.0275 0 0 0 24 24h240a24.0275 24.0275 0 0 0 24-24v-312a24.0275 24.0275 0 0 0 -24-24zm-128-8a8 8 0 0 1 16 0v8h-16zm59.71875 56h-103.4375l-21.33325-32h146.104z"/><path d="m280 280a8.00008 8.00008 0 0 0 -8 8v48a8.00008 8.00008 0 0 0 8 8h48a8.00008 8.00008 0 0 0 8-8v-44.686l13.65723-13.65722-11.31446-11.31348-13.65677 13.6567zm40 48h-32v-32h20.686l-10.34327 10.34326 11.31446 11.31348 10.34281-10.34274z"/><path d="m360 288h16v16h-16z"/><path d="m392 288h40v16h-40z"/><path d="m360 320h48v16h-48z"/><path d="m309.65723 229.65674 10.34277-10.34274v20.686h-40v16h48a8.00008 8.00008 0 0 0 8-8v-44.686l13.65723-13.65722-11.31446-11.31348-16 16-24 24z"/><path d="m360 200h16v16h-16z"/><path d="m392 200h40v16h-40z"/><path d="m360 232h48v16h-48z"/><path d="m312 128h16v16h-16z"/><path d="m344 128h48v16h-48z"/></svg>