<?xml version="1.0"?>
<svg xmlns="http://www.w3.org/2000/svg" xmlns:xlink="http://www.w3.org/1999/xlink" xmlns:svgjs="http://svgjs.com/svgjs" version="1.1" width="512" height="512" x="0" y="0" viewBox="0 0 64 64" style="enable-background:new 0 0 512 512" xml:space="preserve" class=""><g><g xmlns="http://www.w3.org/2000/svg"><path d="m41.493 47.531c.952-1.627 1.507-3.514 1.507-5.531v-.23c0-1.994-.542-3.951-1.567-5.66l-7.061-11.768c-.497-.827-1.406-1.342-2.372-1.342s-1.875.515-2.372 1.343l-7.061 11.767c-1.025 1.709-1.567 3.666-1.567 5.66v.23c0 2.017.555 3.904 1.507 5.531-5.13.605-10.507 1.859-10.507 4.469v6c0 3.947 12.571 5 20 5s20-1.053 20-5v-6c0-2.61-5.377-3.864-10.507-4.469zm-18.493-5.761c0-1.631.443-3.232 1.282-4.63l7.061-11.768c.275-.459 1.039-.459 1.314 0l7.061 11.768c.839 1.398 1.282 2.999 1.282 4.63v.23c0 4.962-4.037 9-9 9s-9-4.038-9-9zm.879 7.624c2.014 2.209 4.904 3.606 8.121 3.606s6.107-1.397 8.121-3.606c6.993.708 9.685 2.072 9.883 2.574-.369 1.058-6.878 3.032-18.004 3.032-11.107 0-17.61-1.967-18-2.962v-.012c.216-.569 2.911-1.927 9.879-2.632zm8.121 11.606c-11.126 0-17.635-1.974-18-3v-3.598c3.845 1.996 12.388 2.598 18 2.598 5.613 0 14.158-.602 18.002-2.599l.002 3.566c-.369 1.059-6.878 3.033-18.004 3.033z" fill="#000529" data-original="#000000" style="" class=""/><path d="m47 15.235v-5.881h-2v4.704l-4.485 2.492.97 1.748z" fill="#000529" data-original="#000000" style="" class=""/><path d="m22.515 5.702-5.515 3.063v5.881h2v-4.704l4.485-2.492z" fill="#000529" data-original="#000000" style="" class=""/><path d="m5.485 22.874 8.515-4.73 8 4.445v9.411h2v-9.412l5.45-3.028c.528.86 1.469 1.44 2.55 1.44s2.022-.58 2.55-1.44l6.45 3.584 9-5 8.514 4.73.971-1.748-8.485-4.714v-8.824l8.485-4.714-.971-1.748-8.514 4.73-9-5-9 5-9-5-10 5.556v10l-8.485 4.714zm26.515-3.874c-.552 0-1-.449-1-1s.448-1 1-1 1 .449 1 1-.448 1-1 1zm17-11.412v8.823l-8 4.444-6.051-3.361c-.184-1.077-.942-1.951-1.949-2.311v-7.595l8-4.444zm-34 0 8-4.444 8 4.444v7.596c-1.007.359-1.764 1.233-1.949 2.31l-6.051 3.362-8-4.444z" fill="#000529" data-original="#000000" style="" class=""/><path d="m61 34v-6h-2v6h-2v-10h-2v10h-2v-8h-2v8h-1.414l-5.293 5.293 1.414 1.414 4.707-4.707h12.586v-2z" fill="#000529" data-original="#000000" style="" class=""/><path d="m19.707 38.707-1.414-1.414-4.707 4.707h-12.586v2h13.414z" fill="#000529" data-original="#000000" style="" class=""/><path d="m7 38h2v2h-2z" fill="#000529" data-original="#000000" style="" class=""/><path d="m11 38h2v2h-2z" fill="#000529" data-original="#000000" style="" class=""/><path d="m3 38h2v2h-2z" fill="#000529" data-original="#000000" style="" class=""/><path d="m3 34h10v2h-10z" fill="#000529" data-original="#000000" style="" class=""/><path d="m3 30h10v2h-10z" fill="#000529" data-original="#000000" style="" class=""/><path d="m39 42v-.23c0-.302-.02-.602-.059-.899l-1.982.259c.027.211.041.425.041.64v.23c0 2.757-2.243 5-5 5v2c3.859 0 7-3.14 7-7z" fill="#000529" data-original="#000000" style="" class=""/><path d="m36.435 39.46 1.775-.92c-.065-.126-.134-.25-.207-.372l-1.01-1.683-1.715 1.029 1.01 1.684c.052.086.101.173.147.262z" fill="#000529" data-original="#000000" style="" class=""/></g></g></svg>
