<?xml version="1.0"?>
<svg xmlns="http://www.w3.org/2000/svg" xmlns:xlink="http://www.w3.org/1999/xlink" xmlns:svgjs="http://svgjs.com/svgjs" version="1.1" width="512" height="512" x="0" y="0" viewBox="0 0 64 64" style="enable-background:new 0 0 512 512" xml:space="preserve" class=""><g><g xmlns="http://www.w3.org/2000/svg" id="Outline"><path d="M32.419,3.092,32,2.9l-.419.194A64.625,64.625,0,0,1,4.682,9H2v6.22A50.139,50.139,0,0,0,31.591,60.912L32,61.1l.409-.184A50.139,50.139,0,0,0,62,15.22V9H59.318A64.625,64.625,0,0,1,32.419,3.092ZM60,15.22A48.14,48.14,0,0,1,32,58.9,48.14,48.14,0,0,1,4,15.22V11h.682A66.658,66.658,0,0,0,32,5.1,66.658,66.658,0,0,0,59.318,11H60Z" fill="#ffffff" data-original="#000000" style="" class=""/><path d="M39,18V16H11V38h4.142a3.981,3.981,0,0,0,7.716,0H41.142a3.981,3.981,0,0,0,7.716,0H50a3,3,0,0,0,3-3V26.667L46.5,18Zm11,8H43V20h2.5ZM19,39a2,2,0,1,1,2-2A2,2,0,0,1,19,39Zm18-3H22.858a3.981,3.981,0,0,0-7.716,0H13V18H37Zm8,3a2,2,0,1,1,2-2A2,2,0,0,1,45,39Zm5-3H48.858a3.981,3.981,0,0,0-7.716,0H39V20h2v8H51v7A1,1,0,0,1,50,36Z" fill="#ffffff" data-original="#000000" style="" class=""/><path d="M33.414,24,29,19.586l-5,5-2-2L17.586,27,24,33.414ZM22,25.414l2,2,5-5L30.586,24,24,30.586,20.414,27Z" fill="#ffffff" data-original="#000000" style="" class=""/></g></g></svg>
