<?xml version="1.0"?>
<svg xmlns="http://www.w3.org/2000/svg" xmlns:xlink="http://www.w3.org/1999/xlink" xmlns:svgjs="http://svgjs.com/svgjs" version="1.1" width="512" height="512" x="0" y="0" viewBox="0 0 512 512" style="enable-background:new 0 0 512 512" xml:space="preserve" class=""><g><g xmlns="http://www.w3.org/2000/svg"><path d="m437.02 74.98c-48.353-48.351-112.64-74.98-181.02-74.98s-132.667 26.629-181.02 74.98c-48.351 48.353-74.98 112.64-74.98 181.02 0 75.154 32.862 146.231 90.16 195.005 3.154 2.686 7.888 2.305 10.572-.85 2.685-3.154 2.305-7.887-.85-10.572-53.944-45.919-84.882-112.833-84.882-183.583 0-64.374 25.068-124.894 70.588-170.413 45.518-45.519 106.039-70.587 170.412-70.587s124.894 25.068 170.412 70.587c45.52 45.519 70.588 106.039 70.588 170.413s-25.068 124.894-70.588 170.413c-45.518 45.519-106.039 70.587-170.412 70.587-44.087 0-87.213-12.013-124.717-34.741-3.542-2.146-8.154-1.015-10.301 2.527-2.146 3.542-1.016 8.154 2.527 10.301 39.848 24.149 85.663 36.913 132.491 36.913 68.38 0 132.667-26.629 181.02-74.98 48.351-48.353 74.98-112.64 74.98-181.02s-26.629-132.667-74.98-181.02z" fill="#363636" data-original="#000000" style=""/><path d="m138.96 225.521c12.354 0 22.403-10.05 22.403-22.403s-10.05-22.403-22.403-22.403h-47.286c-12.354 0-22.403 10.05-22.403 22.403v112.222c0 12.353 10.05 22.403 22.403 22.403h47.286c12.354 0 22.403-10.05 22.403-22.403s-10.05-22.403-22.403-22.403h-24.883v-11.305h21.396c12.354 0 22.403-10.05 22.403-22.403s-10.05-22.403-22.403-22.403h-21.396v-11.305zm-32.383 26.305h28.896c4.082 0 7.403 3.321 7.403 7.403s-3.321 7.403-7.403 7.403h-28.896c-4.143 0-7.5 3.358-7.5 7.5v26.305c0 4.142 3.357 7.5 7.5 7.5h32.383c4.082 0 7.403 3.321 7.403 7.403s-3.321 7.403-7.403 7.403h-47.286c-4.082 0-7.403-3.321-7.403-7.403v-112.222c0-4.082 3.321-7.403 7.403-7.403h47.286c4.082 0 7.403 3.321 7.403 7.403s-3.321 7.403-7.403 7.403h-32.383c-4.143 0-7.5 3.358-7.5 7.5v26.305c0 4.142 3.358 7.5 7.5 7.5z" fill="#363636" data-original="#000000" style=""/><path d="m287.004 193.709c-13.083-8.839-28.368-13.511-44.203-13.511-43.578 0-79.031 35.454-79.031 79.032s35.453 79.031 79.031 79.031c17.652 0 33.552-5.85 45.979-16.917 22.05-19.959-6.983-54.833-29.871-33.398-4.197 3.707-9.468 5.509-16.108 5.509-18.871 0-34.225-15.354-34.225-34.225 0-18.872 15.354-34.226 34.225-34.226 6.861 0 13.473 2.017 19.119 5.832 23.642 15.974 48.467-21.33 25.084-37.127zm-5.441 18.135c-.366 5.179-5.947 10.144-11.245 6.563-8.137-5.498-17.652-8.403-27.518-8.403-27.143 0-49.225 22.083-49.225 49.226s22.082 49.225 49.225 49.225c10.375 0 19.175-3.152 26.155-9.37 8.871-7.903 17.678 3.53 9.757 11.138-9.625 8.53-22.04 13.038-35.912 13.038-35.307 0-64.031-28.724-64.031-64.031s28.725-64.032 64.031-64.032c12.831 0 25.212 3.783 35.806 10.94 2.159 1.458 3.125 3.324 2.957 5.706z" fill="#363636" data-original="#000000" style=""/><path d="m368.161 367.331c3.753.279 7.754-3.204 8.039-6.912.011-.143.507-5.975 2.745-14.166 15.434 6.957 34.375 4.421 46.871-7.268 9.869-9.233 14.01-19.771 17.662-29.069 4.922-12.526 9.172-23.345 26.514-31.611 5.313-2.533 5.668-10.202.61-13.213-6.687-3.983-13.404-7.091-20.13-9.359-1.837-41.961-36.537-75.535-78.942-75.535-43.578 0-79.031 35.454-79.031 79.032 0 41.606 32.324 75.781 73.175 78.791-3.661 11.656-4.376 20.51-4.434 21.294-.301 4.125 2.797 7.707 6.921 8.016zm61.357-62.9c-3.37 8.579-6.554 16.682-13.949 23.6-8.306 7.772-21.527 9.08-31.551 4.042 4.247-9.436 10.734-19.47 20.627-27.098 3.28-2.529 3.889-7.239 1.359-10.519-2.529-3.281-7.239-3.889-10.52-1.36-10.276 7.923-17.489 17.734-22.548 27.356-10.336-25.171 17.29-49.043 39.454-53.142 13.052-2.415 26.781-.351 38.951 4.777-12.977 9.826-17.621 21.649-21.823 32.344zm-122.019-45.202c0-35.307 28.725-64.032 64.031-64.032 32.882 0 60.042 24.918 63.619 56.862-5.003-.713-10.001-.951-14.989-.708-3.524-22.341-24.438-41.332-46.341-41.332-9.968 0-10.846 15-.004 15 14.337 0 29.029 13.563 31.502 28.511-19.533 4.979-37.787 18.879-45.482 37.847-12.364-4.583-21.486-16.318-22.444-29.684-.311-4.336.222-8.798 1.539-12.903 2.963-9.233-11.318-13.816-14.283-4.583-1.924 5.996-2.67 12.24-2.217 18.558 1.418 19.792 15.282 37.101 33.866 43.257-.434 5.148-.071 10.677 1.279 15.688-28.615-6.387-50.076-31.967-50.076-62.481z" fill="#363636" data-original="#000000" style=""/></g></g></svg>
