<?xml version="1.0" encoding="UTF-8"?>
<!DOCTYPE svg PUBLIC "-//W3C//DTD SVG 1.1//EN" "http://www.w3.org/Graphics/SVG/1.1/DTD/svg11.dtd">
<!-- Creator: CorelDRAW 2020 (64-Bit) -->
<svg xmlns="http://www.w3.org/2000/svg" xml:space="preserve" width="21.5575mm" height="31.8713mm" version="1.1" style="shape-rendering:geometricPrecision; text-rendering:geometricPrecision; image-rendering:optimizeQuality; fill-rule:evenodd; clip-rule:evenodd"
viewBox="0 0 0.0622 0.092"
 xmlns:xlink="http://www.w3.org/1999/xlink"
 xmlns:xodm="http://www.corel.com/coreldraw/odm/2003">
 <defs>
  <style type="text/css">
   <![CDATA[
    .fil0 {fill:white;fill-rule:nonzero}
   ]]>
  </style>
 </defs>
 <g id="Слой_x0020_1">
  <metadata id="CorelCorpID_0Corel-Layer"/>
  <path class="fil0" d="M0.0622 0.0603c-0.0001,-0.0007 -0.0007,-0.0013 -0.0015,-0.0014 -0.0007,-0.0001 -0.0015,0.0003 -0.0019,0.0009 -0.0003,0.0007 -0.0003,0.0015 0.0002,0.002 0.0005,0.0006 0.0013,0.0008 0.002,0.0005 0.0008,-0.0003 0.0012,-0.0012 0.0011,-0.002z"/>
  <path class="fil0" d="M0.0598 0.067c-0.001,-0.0003 -0.0019,0.0003 -0.0022,0.0012 -0.0033,0.0118 -0.0142,0.0201 -0.0265,0.0201 -0.0152,0 -0.0275,-0.0123 -0.0275,-0.0275 0,-0.0124 0.0082,-0.023 0.0205,-0.0264 0.0008,-0.0002 0.0013,-0.0009 0.0013,-0.0017l0 -0.008 0.0114 0 0 0.008c0,0.0008 0.0005,0.0015 0.0013,0.0017 0.0094,0.0026 0.0166,0.0095 0.0194,0.0185 0.0003,0.0009 0.0013,0.0015 0.0022,0.0012 0.001,-0.0003 0.0015,-0.0013 0.0012,-0.0022 -0.0029,-0.0098 -0.0106,-0.0174 -0.0205,-0.0206l0 -0.0066 0.0044 0c0.001,0 0.0018,-0.0008 0.0018,-0.0018l0 -0.0089c0,-0.001 -0.0008,-0.0018 -0.0018,-0.0018l-0.0041 0 0.0015 -0.0102c0.0001,-0.0005 -0.0001,-0.001 -0.0004,-0.0014 -0.0003,-0.0004 -0.0008,-0.0006 -0.0014,-0.0006l-0.0186 0c-0.0005,0 -0.001,0.0002 -0.0014,0.0006 -0.0003,0.0004 -0.0005,0.0009 -0.0004,0.0014l0.0015 0.0102 -0.0041 0c-0.001,0 -0.0018,0.0008 -0.0018,0.0018l0 0.0089c0,0.001 0.0008,0.0018 0.0018,0.0018l0.0044 0 0 0.0066c-0.0131,0.0042 -0.0218,0.0159 -0.0218,0.0295 0,0.0171 0.014,0.0311 0.0311,0.0311 0.0069,0 0.0135,-0.0022 0.019,-0.0064 0.0053,-0.0041 0.0092,-0.0099 0.011,-0.0163 0.0003,-0.001 -0.0003,-0.0019 -0.0012,-0.0022zm-0.0359 -0.0635l0.0144 0 -0.0013 0.0087 -0.0119 0 -0.0013 -0.0087zm-0.0046 0.0123l0.0237 0 0 0.0053 -0.0237 0 0 -0.0053z"/>
  <path class="fil0" d="M0.038 0.0394c0,0 0.0038,0.0092 -0.0123,0.0154 -0.0087,0.0034 -0.0155,0.0119 -0.0074,0.0252 0.0007,-0.0059 0.0035,-0.019 0.0158,-0.022 0,0 -0.0114,0.0043 -0.0124,0.0235 0.0059,0.0008 0.0196,0.0014 0.0237,-0.0105 0.0054,-0.0157 -0.0072,-0.0316 -0.0072,-0.0316zm-0.0164 0.042c0.0124,-0.005 0.0215,-0.0166 0.0227,-0.0305 -0.0025,-0.0069 -0.0063,-0.0116 -0.0063,-0.0116 0,0 0.0038,0.0092 -0.0123,0.0154 -0.0087,0.0034 -0.0155,0.0119 -0.0074,0.0252 0.0007,-0.0059 0.0035,-0.019 0.0158,-0.022 -0,0 -0.0114,0.0043 -0.0124,0.0235z"/>
 </g>
</svg>
