<?xml version="1.0" encoding="UTF-8"?>
<!DOCTYPE svg PUBLIC "-//W3C//DTD SVG 1.1//EN" "http://www.w3.org/Graphics/SVG/1.1/DTD/svg11.dtd">
<!-- Creator: CorelDRAW 2020 (64-Bit) -->
<svg xmlns="http://www.w3.org/2000/svg" xml:space="preserve" width="77.7476mm" height="44.1462mm" version="1.1" style="shape-rendering:geometricPrecision; text-rendering:geometricPrecision; image-rendering:optimizeQuality; fill-rule:evenodd; clip-rule:evenodd"
viewBox="0 0 0.7852 0.4459"
 xmlns:xlink="http://www.w3.org/1999/xlink"
 xmlns:xodm="http://www.corel.com/coreldraw/odm/2003">
 <defs>
  <style type="text/css">
   <![CDATA[
    .fil0 {fill:#363636;fill-rule:nonzero}
   ]]>
  </style>
 </defs>
 <g id="Слой_x0020_1">
  <metadata id="CorelCorpID_0Corel-Layer"/>
  <path class="fil0" d="M0.5408 0.3207c0.0045,0 0.0061,-0.0015 0.0061,-0.0061l0 -0.0024c0,-0.0045 -0.0015,-0.0061 -0.0061,-0.0061l-0.0482 0c-0.0061,0 -0.0061,0 -0.0061,-0.0061l0 -0.1854c0,-0.0045 -0.0015,-0.0061 -0.0061,-0.0061l-0.0036 0c-0.0045,0 -0.0061,0.0015 -0.0061,0.0061l0 0.1999c0,0.0045 0.0015,0.0061 0.0061,0.0061l0.0639 0zm0.1181 0c0.0039,0 0.0061,-0.0006 0.0051,-0.0051l-0.0379 -0.2014c-0.0009,-0.0045 -0.0018,-0.0055 -0.0067,-0.0055l-0.0079 0c-0.0048,0 -0.0058,0.0009 -0.0067,0.0055l-0.0379 0.2014c-0.0006,0.0051 0.0018,0.0051 0.0051,0.0051l0.0039 0c0.0036,0 0.0061,0 0.0067,-0.0045l0.0042 -0.0233c0.0012,-0.0061 0.0009,-0.0061 0.007,-0.0061l0.0433 0c0.0051,0 0.0055,0 0.0067,0.0061l0.0042 0.0233c0.0006,0.0045 0.003,0.0045 0.0067,0.0045l0.0039 0zm-0.0445 -0.1823c0.0003,-0.0015 0.0021,-0.0015 0.0024,0l0.0224 0.1278c0.0009,0.0061 0.0009,0.0061 -0.0051,0.0061l-0.0366 0c-0.0061,0 -0.0061,0 -0.0051,-0.0061l0.0221 -0.1278zm0.1708 0.0218c0,-0.0351 -0.0185,-0.0515 -0.0454,-0.0515l-0.0394 0c-0.0045,0 -0.0061,0.0015 -0.0061,0.0061l0 0.1999c0,0.0045 0.0015,0.0061 0.0061,0.0061l0.0394 0c0.027,0 0.0454,-0.0164 0.0454,-0.0515l0 -0.0154c0,-0.0206 -0.0061,-0.0351 -0.0182,-0.0436 -0.0012,-0.0009 -0.0012,-0.0015 0,-0.0024 0.0121,-0.0082 0.0182,-0.0227 0.0182,-0.0436l0 -0.0039zm-0.0751 0.0621c0,-0.0061 0,-0.0061 0.0061,-0.0061l0.0236 0c0.0173,0.0009 0.0297,0.0127 0.0297,0.0373l0 0.0154c0,0.0254 -0.0127,0.0373 -0.0309,0.0373l-0.0224 0c-0.0061,0 -0.0061,0 -0.0061,-0.0061l0 -0.0778zm0 -0.093c0,-0.0061 0,-0.0061 0.0061,-0.0061l0.0224 0c0.0182,0 0.0309,0.0118 0.0309,0.0373l0 0.0039c0,0.0251 -0.0124,0.037 -0.0297,0.0373l-0.0236 0c-0.0061,0 -0.0061,0 -0.0061,-0.0061l0 -0.0663z"/>
  <path class="fil0" d="M0.1183 0.1584c0,-0.0238 0.0126,-0.0352 0.0295,-0.0352 0.0169,0 0.0295,0.0114 0.0295,0.0352l0 0.003c0,0.0033 0.0021,0.0048 0.006,0.0048l0.0036 0c0.0039,0 0.006,-0.0015 0.006,-0.0048l0 -0.0015c0,-0.0349 -0.0184,-0.0512 -0.0452,-0.0512 -0.0268,0 -0.0452,0.0163 -0.0452,0.0512l0 0.1108c0,0.0349 0.0184,0.0512 0.0452,0.0512 0.0268,0 0.0452,-0.0163 0.0452,-0.0512l0 -0.0015c0,-0.0033 -0.0021,-0.0048 -0.006,-0.0048l-0.0036 0c-0.0039,0 -0.006,0.0015 -0.006,0.0048l0 0.003c0,0.0238 -0.0126,0.0352 -0.0295,0.0352 -0.0169,0 -0.0295,-0.0114 -0.0295,-0.0352l0 -0.1138z"/>
  <path class="fil0" d="M0.0666 0.3207c0.0045,0 0.006,-0.0015 0.006,-0.006l0 -0.0024c0,-0.0045 -0.0015,-0.006 -0.006,-0.006l-0.0449 0c-0.006,0 -0.006,0 -0.006,-0.006l0 -0.0774c0,-0.006 0,-0.006 0.006,-0.006l0.0449 0c0.0045,0 0.006,-0.0015 0.006,-0.006l0 -0.0024c0,-0.0045 -0.0015,-0.006 -0.006,-0.006l-0.0449 0c-0.006,0 -0.006,0 -0.006,-0.006l0 -0.0659c0,-0.006 0,-0.006 0.006,-0.006l0.0449 0c0.0045,0 0.006,-0.0015 0.006,-0.006l0 -0.0024c0,-0.0045 -0.0015,-0.006 -0.006,-0.006l-0.0605 0c-0.0045,0 -0.006,0.0015 -0.006,0.006l0 0.1987c0,0.0045 0.0015,0.006 0.006,0.006l0.0605 0z"/>
  <path class="fil0" d="M0.4407 0.211c-0.0005,-0.0025 -0.0026,-0.0046 -0.0052,-0.005 -0.0026,-0.0004 -0.0053,0.0009 -0.0066,0.0032 -0.0012,0.0023 -0.0009,0.0052 0.0008,0.0071 0.0018,0.002 0.0047,0.0027 0.0071,0.0017 0.0027,-0.0011 0.0043,-0.0041 0.0038,-0.007z"/>
  <path class="fil0" d="M0.4325 0.2347c-0.0033,-0.0009 -0.0068,0.001 -0.0077,0.0044 -0.0116,0.0414 -0.0497,0.0703 -0.0928,0.0703 -0.0531,0 -0.0963,-0.0432 -0.0963,-0.0963 0,-0.0435 0.0288,-0.0806 0.0718,-0.0924 0.0027,-0.0008 0.0046,-0.0032 0.0046,-0.0061l0 -0.0279 0.0398 0 0 0.0279c0,0.0028 0.0019,0.0053 0.0046,0.0061 0.0329,0.009 0.0583,0.0333 0.0678,0.0649 0.001,0.0033 0.0045,0.0052 0.0078,0.0042 0.0033,-0.001 0.0052,-0.0045 0.0042,-0.0078 -0.0103,-0.0343 -0.037,-0.0609 -0.0719,-0.0721l0 -0.0232 0.0152 0c0.0035,0 0.0063,-0.0028 0.0063,-0.0063l0 -0.031c0,-0.0035 -0.0028,-0.0063 -0.0063,-0.0063l-0.0142 0 0.0053 -0.0359c0.0003,-0.0018 -0.0003,-0.0036 -0.0015,-0.005 -0.0012,-0.0014 -0.0029,-0.0022 -0.0048,-0.0022l-0.065 0c-0.0018,0 -0.0036,0.0008 -0.0048,0.0022 -0.0012,0.0014 -0.0017,0.0032 -0.0015,0.005l0.0053 0.0359 -0.0142 0c-0.0035,0 -0.0063,0.0028 -0.0063,0.0063l0 0.031c0,0.0035 0.0028,0.0063 0.0063,0.0063l0.0152 0 0 0.0232c-0.0459,0.0146 -0.0764,0.0555 -0.0764,0.1032 0,0.06 0.0488,0.1088 0.1089,0.1088 0.0242,0 0.0472,-0.0078 0.0664,-0.0226 0.0186,-0.0143 0.0322,-0.0345 0.0385,-0.0569 0.0009,-0.0033 -0.001,-0.0068 -0.0044,-0.0077zm-0.1257 -0.2221l0.0505 0 -0.0045 0.0305 -0.0415 0 -0.0045 -0.0305zm-0.0162 0.0431l0.0828 0 0 0.0184 -0.0828 0 0 -0.0184z"/>
  <path class="fil0" d="M0.356 0.1378c0,0 0.0131,0.0321 -0.0432,0.0537 -0.0306,0.0117 -0.0541,0.0418 -0.026,0.0882 0.0023,-0.0208 0.0123,-0.0665 0.0551,-0.077 0,0 -0.0399,0.0149 -0.0434,0.0824 0.0205,0.0029 0.0686,0.0048 0.0828,-0.0369 0.0188,-0.0551 -0.0253,-0.1105 -0.0253,-0.1105zm-0.0575 0.1471c0.0435,-0.0174 0.0752,-0.058 0.0795,-0.1066 -0.0089,-0.024 -0.0221,-0.0405 -0.0221,-0.0405 0,0 0.0131,0.0321 -0.0432,0.0537 -0.0306,0.0117 -0.0541,0.0418 -0.026,0.0882 0.0023,-0.0208 0.0123,-0.0665 0.0551,-0.077 -0,0 -0.0398,0.0149 -0.0434,0.0821z"/>
  <path class="fil0" d="M0.0069 0.3917c0,-0.0012 -0.0004,-0.0016 -0.0016,-0.0016l-0.0023 0c-0.0012,0 -0.0016,0.0004 -0.0016,0.0016l0 0.0377c0,0.0012 0.0004,0.0016 0.0016,0.0016l0.0023 0c0.0012,0 0.0016,-0.0004 0.0016,-0.0016l0 -0.0377zm-0.0028 -0.0053c0.0019,0 0.0032,-0.0015 0.0032,-0.0032 0,-0.0017 -0.0015,-0.0032 -0.0032,-0.0032 -0.0041,-0.0002 -0.0041,0.0066 0,0.0064zm0.0424 0.0431c0,0.0012 0.0004,0.0016 0.0016,0.0016l0.0023 0c0.0012,0 0.0016,-0.0004 0.0016,-0.0016l0 -0.0253c0,-0.0103 -0.0042,-0.0147 -0.0105,-0.0144 -0.0028,0.0001 -0.005,0.0013 -0.0066,0.0035l0 -0.0016c0,-0.0012 -0.0004,-0.0016 -0.0016,-0.0016l-0.0023 0c-0.0012,0 -0.0016,0.0004 -0.0016,0.0016l0 0.0377c0,0.0012 0.0004,0.0016 0.0016,0.0016l0.0023 0c0.0012,0 0.0016,-0.0004 0.0016,-0.0016l0 -0.0268c0,-0.0053 0.0025,-0.0077 0.0057,-0.0077 0.0033,0 0.0057,0.0025 0.0057,0.0076l0 0.0268zm0.0448 0c0,0.0012 0.0004,0.0016 0.0016,0.0016l0.0023 0c0.0012,0 0.0016,-0.0004 0.0016,-0.0016l0 -0.0253c0,-0.0103 -0.0042,-0.0147 -0.0105,-0.0144 -0.0028,0.0001 -0.005,0.0013 -0.0066,0.0035l0 -0.0016c0,-0.0012 -0.0004,-0.0016 -0.0016,-0.0016l-0.0023 0c-0.0012,0 -0.0016,0.0004 -0.0016,0.0016l0 0.0377c0,0.0012 0.0004,0.0016 0.0016,0.0016l0.0023 0c0.0012,0 0.0016,-0.0004 0.0016,-0.0016l0 -0.0268c0,-0.0053 0.0025,-0.0077 0.0057,-0.0077 0.0033,0 0.0057,0.0025 0.0057,0.0076l0 0.0268zm0.0269 -0.0125c0,0.0102 0.0045,0.0144 0.011,0.0144 0.0065,0 0.011,-0.0043 0.011,-0.0144l0 -0.0128c0,-0.0102 -0.0045,-0.0144 -0.011,-0.0144 -0.0065,0 -0.011,0.0043 -0.011,0.0144l0 0.0128zm0.0164 0.0016c0,0.0052 -0.0021,0.0076 -0.0054,0.0076 -0.0033,0 -0.0054,-0.0025 -0.0054,-0.0076l0 -0.0159c0,-0.0052 0.0021,-0.0076 0.0054,-0.0076 0.0033,0 0.0054,0.0025 0.0054,0.0076l0 0.0159zm0.0425 -0.0285c-0.001,0 -0.0016,0 -0.0018,0.0012l-0.0048 0.0264c-0.0001,0.0004 -0.0006,0.0004 -0.0007,0l-0.0048 -0.0264c-0.0002,-0.0012 -0.0008,-0.0012 -0.0018,-0.0012l-0.0023 0c-0.0011,0 -0.0016,0.0002 -0.0014,0.0014l0.0079 0.0382c0.0002,0.0012 0.0005,0.0015 0.0018,0.0015l0.002 0c0.0013,0 0.0016,-0.0002 0.0018,-0.0015l0.0079 -0.0382c0.0002,-0.0014 -0.0005,-0.0014 -0.0014,-0.0014l-0.0023 0zm0.0398 0.0384c0.0003,0.0023 0.0006,0.0026 0.0018,0.0026l0.0018 0c0.0013,0 0.0019,-0.0006 0.0016,-0.0016 -0.0004,-0.0021 -0.0007,-0.0036 -0.0007,-0.0048l0 -0.0234c0,-0.0038 -0.0011,-0.0066 -0.0034,-0.0085 -0.0022,-0.002 -0.0046,-0.003 -0.0073,-0.003 -0.0032,0 -0.0058,0.0011 -0.0079,0.0034 -0.0021,0.0023 -0.003,0.0049 -0.0027,0.008 0.0001,0.0012 0.0004,0.0016 0.0016,0.0016l0.0023 0c0.0011,0 0.0015,-0.0002 0.0015,-0.0016 0,-0.0039 0.0025,-0.0062 0.0052,-0.0062 0.0036,0 0.0058,0.0032 0.0049,0.0071 -0.0016,0.0068 -0.0162,0.0035 -0.0162,0.0158l0 0.0025c0,0.0071 0.004,0.0109 0.0102,0.0109 0.0029,0 0.0053,-0.001 0.0072,-0.003zm-0.0057 -0.0023c-0.004,0.0003 -0.0061,-0.002 -0.0061,-0.0063l0 -0.0009c-0.0004,-0.0039 0.0024,-0.006 0.0044,-0.0071 0.0007,-0.0003 0.0017,-0.0007 0.0031,-0.0013 0.0015,-0.0006 0.0025,-0.001 0.0033,-0.0012l0 0.0105c0,0.0045 -0.0017,0.0061 -0.0048,0.0063zm0.041 -0.0003c-0.0014,-0.0001 -0.0022,-0.0007 -0.0026,-0.0025 -0.0003,-0.0019 -0.0003,-0.0028 -0.0003,-0.006l0 -0.02c0,-0.0006 0.0002,-0.0008 0.0008,-0.0008l0.0015 0c0.0012,0 0.0016,-0.0004 0.0016,-0.0016l0 -0.0018c0,-0.0012 -0.0004,-0.0016 -0.0016,-0.0016l-0.0015 0c-0.0006,0 -0.0008,-0.0002 -0.0008,-0.0008l0 -0.0076c0,-0.0012 -0.0004,-0.0016 -0.0016,-0.0016l-0.0023 0c-0.0012,0 -0.0016,0.0004 -0.0016,0.0016l0 0.0076c0,0.0006 -0.0002,0.0008 -0.0008,0.0008 -0.0012,0 -0.0016,0.0004 -0.0016,0.0016l0 0.0018c0,0.0012 0.0004,0.0016 0.0016,0.0016 0.0006,0 0.0008,0.0002 0.0008,0.0008l0 0.0175c0,0.0034 0.0001,0.0043 0.0002,0.0071 0.0002,0.0027 0.0007,0.0037 0.0014,0.0056 0.0011,0.0024 0.0034,0.0037 0.007,0.0037 0.0012,0 0.0016,-0.0004 0.0016,-0.0016l0 -0.002c0,-0.0012 -0.0004,-0.0016 -0.0016,-0.0016zm0.0273 -0.0341c0,-0.0012 -0.0004,-0.0016 -0.0016,-0.0016l-0.0023 0c-0.0012,0 -0.0016,0.0004 -0.0016,0.0016l0 0.0377c0,0.0012 0.0004,0.0016 0.0016,0.0016l0.0023 0c0.0012,0 0.0016,-0.0004 0.0016,-0.0016l0 -0.0377zm-0.0028 -0.0053c0.0019,0 0.0032,-0.0015 0.0032,-0.0032 0,-0.0017 -0.0015,-0.0032 -0.0032,-0.0032 -0.0041,-0.0002 -0.0041,0.0066 0,0.0064zm0.0245 0.0306c0,0.0102 0.0045,0.0144 0.011,0.0144 0.0065,0 0.011,-0.0043 0.011,-0.0144l0 -0.0128c0,-0.0102 -0.0045,-0.0144 -0.011,-0.0144 -0.0065,0 -0.011,0.0043 -0.011,0.0144l0 0.0128zm0.0164 0.0016c0,0.0052 -0.0021,0.0076 -0.0054,0.0076 -0.0033,0 -0.0054,-0.0025 -0.0054,-0.0076l0 -0.0159c0,-0.0052 0.0021,-0.0076 0.0054,-0.0076 0.0033,0 0.0054,0.0025 0.0054,0.0076l0 0.0159zm0.0444 0.0109c0,0.0012 0.0004,0.0016 0.0016,0.0016l0.0023 0c0.0012,0 0.0016,-0.0004 0.0016,-0.0016l0 -0.0253c0,-0.0103 -0.0042,-0.0147 -0.0105,-0.0144 -0.0028,0.0001 -0.005,0.0013 -0.0066,0.0035l0 -0.0016c0,-0.0012 -0.0004,-0.0016 -0.0016,-0.0016l-0.0023 0c-0.0012,0 -0.0016,0.0004 -0.0016,0.0016l0 0.0377c0,0.0012 0.0004,0.0016 0.0016,0.0016l0.0023 0c0.0012,0 0.0016,-0.0004 0.0016,-0.0016l0 -0.0268c0,-0.0053 0.0025,-0.0077 0.0057,-0.0077 0.0033,0 0.0057,0.0025 0.0057,0.0076l0 0.0268zm0.0675 -0.0036c-0.0014,-0.0001 -0.0022,-0.0007 -0.0026,-0.0025 -0.0003,-0.0019 -0.0003,-0.0028 -0.0003,-0.006l0 -0.042c0,-0.0012 -0.0004,-0.0016 -0.0016,-0.0016l-0.0023 0c-0.0012,0 -0.0016,0.0004 -0.0016,0.0016l0 0.0395c0,0.0034 0.0001,0.0043 0.0002,0.0071 0.0002,0.0027 0.0007,0.0037 0.0014,0.0056 0.0011,0.0024 0.0034,0.0037 0.007,0.0037 0.0012,0 0.0016,-0.0004 0.0016,-0.0016l0 -0.002c0,-0.0012 -0.0004,-0.0016 -0.0016,-0.0016zm0.0381 0.0026c0.0003,0.0023 0.0006,0.0026 0.0018,0.0026l0.0018 0c0.0013,0 0.0019,-0.0006 0.0016,-0.0016 -0.0004,-0.0021 -0.0007,-0.0036 -0.0007,-0.0048l0 -0.0234c0,-0.0038 -0.0011,-0.0066 -0.0034,-0.0085 -0.0022,-0.002 -0.0046,-0.003 -0.0073,-0.003 -0.0032,0 -0.0058,0.0011 -0.0079,0.0034 -0.0021,0.0023 -0.003,0.0049 -0.0027,0.008 0.0001,0.0012 0.0004,0.0016 0.0016,0.0016l0.0023 0c0.0011,0 0.0015,-0.0002 0.0015,-0.0016 0,-0.0039 0.0025,-0.0062 0.0052,-0.0062 0.0036,0 0.0058,0.0032 0.0049,0.0071 -0.0016,0.0068 -0.0162,0.0035 -0.0162,0.0158l0 0.0025c0,0.0071 0.004,0.0109 0.0102,0.0109 0.0029,0 0.0053,-0.001 0.0072,-0.003zm-0.0057 -0.0023c-0.004,0.0003 -0.0061,-0.002 -0.0061,-0.0063l0 -0.0009c-0.0004,-0.0039 0.0024,-0.006 0.0044,-0.0071 0.0007,-0.0003 0.0017,-0.0007 0.0031,-0.0013 0.0015,-0.0006 0.0025,-0.001 0.0033,-0.0012l0 0.0105c0,0.0045 -0.0017,0.0061 -0.0048,0.0063zm0.0381 -0.0235c0,-0.0053 0.0025,-0.0077 0.0057,-0.0077 0.0033,0 0.0057,0.0025 0.0057,0.0076l0 0.0159c0,0.0052 -0.0025,0.0076 -0.0057,0.0076 -0.0032,0 -0.0057,-0.0026 -0.0057,-0.0076l0 -0.0158zm-0.0056 0.0268c0,0.0012 0.0004,0.0016 0.0016,0.0016l0.0023 0c0.0012,0 0.0016,-0.0004 0.0016,-0.0016l0 -0.0015c0.0016,0.0022 0.0038,0.0034 0.0066,0.0034 0.0063,0.0002 0.0105,-0.0042 0.0105,-0.0144l0 -0.0128c0,-0.0103 -0.0042,-0.0147 -0.0105,-0.0144 -0.0028,0.0001 -0.005,0.0013 -0.0066,0.0035l0 -0.018c0,-0.0012 -0.0004,-0.0016 -0.0016,-0.0016l-0.0023 0c-0.0012,0 -0.0016,0.0004 -0.0016,0.0016l0 0.0542zm0.0436 -0.0125c0,0.0102 0.0045,0.0144 0.011,0.0144 0.0065,0 0.011,-0.0043 0.011,-0.0144l0 -0.0128c0,-0.0102 -0.0045,-0.0144 -0.011,-0.0144 -0.0065,0 -0.011,0.0043 -0.011,0.0144l0 0.0128zm0.0164 0.0016c0,0.0052 -0.0021,0.0076 -0.0054,0.0076 -0.0033,0 -0.0054,-0.0025 -0.0054,-0.0076l0 -0.0159c0,-0.0052 0.0021,-0.0076 0.0054,-0.0076 0.0033,0 0.0054,0.0025 0.0054,0.0076l0 0.0159zm0.039 -0.0226c0.0012,0.0003 0.0016,-0.0003 0.0016,-0.0016l0 -0.0026c0,-0.0012 -0.0004,-0.0016 -0.0016,-0.0016l-0.0002 0c-0.0023,0.0001 -0.0043,0.001 -0.0059,0.0026l0 -0.001c0,-0.0012 -0.0004,-0.0016 -0.0016,-0.0016l-0.0023 0c-0.0012,0 -0.0016,0.0004 -0.0016,0.0016l0 0.0377c0,0.0012 0.0004,0.0016 0.0016,0.0016l0.0023 0c0.0012,0 0.0016,-0.0004 0.0016,-0.0016l0 -0.0255c0,-0.0026 0.0001,-0.0038 0.0005,-0.0057 0.0006,-0.0019 0.0017,-0.0027 0.0036,-0.0027 0.0003,0 0.001,0.0002 0.002,0.0004l0 0zm0.0364 0.0325c0.0003,0.0023 0.0006,0.0026 0.0018,0.0026l0.0018 0c0.0013,0 0.0019,-0.0006 0.0016,-0.0016 -0.0004,-0.0021 -0.0007,-0.0036 -0.0007,-0.0048l0 -0.0234c0,-0.0038 -0.0011,-0.0066 -0.0034,-0.0085 -0.0022,-0.002 -0.0046,-0.003 -0.0073,-0.003 -0.0032,0 -0.0058,0.0011 -0.0079,0.0034 -0.0021,0.0023 -0.003,0.0049 -0.0027,0.008 0.0001,0.0012 0.0004,0.0016 0.0016,0.0016l0.0023 0c0.0011,0 0.0015,-0.0002 0.0015,-0.0016 0,-0.0039 0.0025,-0.0062 0.0052,-0.0062 0.0036,0 0.0058,0.0032 0.0049,0.0071 -0.0016,0.0068 -0.0162,0.0035 -0.0162,0.0158l0 0.0025c0,0.0071 0.004,0.0109 0.0102,0.0109 0.0029,0 0.0053,-0.001 0.0072,-0.003zm-0.0057 -0.0023c-0.004,0.0003 -0.0061,-0.002 -0.0061,-0.0063l0 -0.0009c-0.0004,-0.0039 0.0024,-0.006 0.0044,-0.0071 0.0007,-0.0003 0.0017,-0.0007 0.0031,-0.0013 0.0015,-0.0006 0.0025,-0.001 0.0033,-0.0012l0 0.0105c0,0.0045 -0.0017,0.0061 -0.0048,0.0063zm0.041 -0.0003c-0.0014,-0.0001 -0.0022,-0.0007 -0.0026,-0.0025 -0.0003,-0.0019 -0.0003,-0.0028 -0.0003,-0.006l0 -0.02c0,-0.0006 0.0002,-0.0008 0.0008,-0.0008l0.0015 0c0.0012,0 0.0016,-0.0004 0.0016,-0.0016l0 -0.0018c0,-0.0012 -0.0004,-0.0016 -0.0016,-0.0016l-0.0015 0c-0.0006,0 -0.0008,-0.0002 -0.0008,-0.0008l0 -0.0076c0,-0.0012 -0.0004,-0.0016 -0.0016,-0.0016l-0.0023 0c-0.0012,0 -0.0016,0.0004 -0.0016,0.0016l0 0.0076c0,0.0006 -0.0002,0.0008 -0.0008,0.0008 -0.0012,0 -0.0016,0.0004 -0.0016,0.0016l0 0.0018c0,0.0012 0.0004,0.0016 0.0016,0.0016 0.0006,0 0.0008,0.0002 0.0008,0.0008l0 0.0175c0,0.0034 0.0001,0.0043 0.0002,0.0071 0.0002,0.0027 0.0007,0.0037 0.0014,0.0056 0.0011,0.0024 0.0034,0.0037 0.007,0.0037 0.0012,0 0.0016,-0.0004 0.0016,-0.0016l0 -0.002c0,-0.0012 -0.0004,-0.0016 -0.0016,-0.0016zm0.0209 -0.0089c0,0.0102 0.0045,0.0144 0.011,0.0144 0.0065,0 0.011,-0.0043 0.011,-0.0144l0 -0.0128c0,-0.0102 -0.0045,-0.0144 -0.011,-0.0144 -0.0065,0 -0.011,0.0043 -0.011,0.0144l0 0.0128zm0.0164 0.0016c0,0.0052 -0.0021,0.0076 -0.0054,0.0076 -0.0033,0 -0.0054,-0.0025 -0.0054,-0.0076l0 -0.0159c0,-0.0052 0.0021,-0.0076 0.0054,-0.0076 0.0033,0 0.0054,0.0025 0.0054,0.0076l0 0.0159zm0.039 -0.0226c0.0012,0.0003 0.0016,-0.0003 0.0016,-0.0016l0 -0.0026c0,-0.0012 -0.0004,-0.0016 -0.0016,-0.0016l-0.0002 0c-0.0023,0.0001 -0.0043,0.001 -0.0059,0.0026l0 -0.001c0,-0.0012 -0.0004,-0.0016 -0.0016,-0.0016l-0.0023 0c-0.0012,0 -0.0016,0.0004 -0.0016,0.0016l0 0.0377c0,0.0012 0.0004,0.0016 0.0016,0.0016l0.0023 0c0.0012,0 0.0016,-0.0004 0.0016,-0.0016l0 -0.0255c0,-0.0026 0.0001,-0.0038 0.0005,-0.0057 0.0006,-0.0019 0.0017,-0.0027 0.0036,-0.0027 0.0003,0 0.001,0.0002 0.002,0.0004l0 0zm0.0206 -0.0045c0.0016,0.0075 0.0032,0.015 0.0042,0.0197 0.0006,0.0023 0.0011,0.0045 0.0015,0.0067 0.001,0.0043 0.0015,0.0066 0.0019,0.0089 0.0012,0.0053 0.0012,0.0058 0.0012,0.0075 0,0.0034 -0.0015,0.0062 -0.0034,0.0062 -0.0012,0.0001 -0.0016,0.0004 -0.0016,0.0016l0 0.002c0,0.0013 0.0004,0.0016 0.0016,0.0016 0.0045,-0.0002 0.0066,-0.0026 0.0079,-0.0089l0.0098 -0.0455c0.0002,-0.0012 0,-0.0014 -0.0014,-0.0014l-0.0023 0c-0.001,0 -0.0016,0 -0.0018,0.0012l-0.0057 0.029c-0.0001,0.0004 -0.0006,0.0004 -0.0007,0l-0.0057 -0.029c-0.0002,-0.0012 -0.0008,-0.0012 -0.0018,-0.0012l-0.0023 0c-0.0014,0 -0.0016,0.0002 -0.0014,0.0014z"/>
 </g>
</svg>
