<?xml version="1.0"?>
<svg xmlns="http://www.w3.org/2000/svg" xmlns:xlink="http://www.w3.org/1999/xlink" xmlns:svgjs="http://svgjs.com/svgjs" version="1.1" width="512" height="512" x="0" y="0" viewBox="0 0 64 64" style="enable-background:new 0 0 512 512" xml:space="preserve"><g><g xmlns="http://www.w3.org/2000/svg"><circle cx="46" cy="21" r="1" fill="#ffffff" data-original="#000000" style=""/><path d="m55.477 6.299c-4.834-1.169-9.703 1.268-11.636 5.701h-2.841c-1.103 0-2 .897-2 2v2c0 1.103.897 2 2 2h1.37c-.619 1.446-1.37 3.846-1.37 7v1h2.101c.465 2.279 2.484 4 4.899 4v4.27c-.961.524-1.854 1.17-2.631 1.947-.143.143-.271.298-.406.447l-9.963-2.847v-10.817h-7.616l-2.206-2.206-3.603 2.57-.728-4.364h-5.693l-.729 4.365-3.603-2.57-2.226 2.226c-4.223.212-7.596 3.705-7.596 7.979v24c0 4.411 3.589 8 8 8h28v-8h5v8h17v-21-1c0-2.592-.955-6.136-3.051-8.427l-.343-2.397 1.284-.802c3.826-2.393 6.11-6.514 6.11-11.025v-2.235c0-4.709-3.094-8.746-7.523-9.815zm-.469 1.944c3.436.83 5.936 4.081 5.987 7.757h-5.995v-2c0-1.103-.897-2-2-2h-6.93c1.752-3.034 5.352-4.622 8.938-3.757zm-14.008 5.757h12v2h-12zm9 16h2v-2h-4c-1.654 0-3-1.346-3-3v-1h-1.971c.174-3.015 1.098-5.127 1.552-6h8.419v4h1c.552 0 1 .449 1 1 0 .378-.146.733-.414 1l-1.646 1.646.947 6.632-3.545 1.013c-.117.033-.226.085-.342.122zm.891 5.214 3.181-.909-3.741 3.118-.836-1.672c.451-.211.914-.399 1.396-.537zm-7.208 3.164c-.664 1.087-1.143 2.27-1.413 3.517l-5.27-1.506v-3.389h-2v-1.103zm-10.683 12.622c0-1.103.897-2 2-2h2v4h-2c-1.103 0-2-.897-2-2zm4-4v-4.531l5.022 1.435c-.006.148-.022.296-.022.446v2.65zm-7.921-22h3.921v12h-5.349l-1.016-1.424 4.365-.729v-5.693l-4.365-.729zm-18.041-1.594 3.479 2.482.523-.236c.17-.077.347-.154.524-.213l.571-.19.712-4.249h2.307l.71 4.249.571.19c.178.059.354.136.524.213l.523.236 3.479-2.482 1.633 1.633-2.482 3.478.235.523c.076.169.154.346.213.524l.189.573 4.25.71v2.307l-4.25.71-.189.573c-.059.178-.137.355-.213.524l-.235.523 1.083 1.516h-7.195-7.195l1.082-1.516-.235-.523c-.076-.169-.154-.346-.213-.524l-.189-.573-4.25-.711v-2.307l4.25-.71.189-.573c.059-.178.137-.355.213-.524l.235-.523-2.482-3.478zm-3.899 1.899 2.227 3.119-4.366.729v5.693l4.365.729-.993 1.391c-3.014-.314-5.372-2.869-5.372-5.966 0-2.653 1.732-4.905 4.139-5.695zm-4.139 29.695v-18.726c1.467 1.667 3.61 2.726 6 2.726h26v8c-2.206 0-4 1.794-4 4h-2v-10h-8v10h-4v10h-8c-3.309 0-6-2.691-6-6zm24-4h-4v-8h4zm8 10h-16v-8h12.556c.694 1.19 1.97 2 3.444 2zm22 0h-13v-6h4.323c3.275 0 6.268-1.658 8.003-4.436.243-.389.467-.769.674-1.142zm0-19c0 2.672-.664 4.776-2.369 7.504-1.368 2.189-3.727 3.496-6.308 3.496h-9.323v-4h9.382c.764 0 1.449-.424 1.789-1.105l2.724-5.447-1.789-.895-2.724 5.447h-4.382v-2.65c0-2.538.988-4.924 2.783-6.719.308-.309.641-.59.988-.852l1.899 3.798 5.974-4.979c.836 1.579 1.356 3.56 1.356 5.402zm-1.17-14.323-.533.333-.237-1.656.94-.939c.645-.645 1-1.502 1-2.415 0-1.304-.836-2.416-2-2.829v-2.171h6v.349c0 3.817-1.933 7.304-5.17 9.328z" fill="#ffffff" data-original="#000000" style=""/><path d="m29 57h2v2h-2z" fill="#ffffff" data-original="#000000" style=""/><path d="m25 57h2v2h-2z" fill="#ffffff" data-original="#000000" style=""/><path d="m21 57h2v2h-2z" fill="#ffffff" data-original="#000000" style=""/><path d="m9 47h10v2h-10z" fill="#ffffff" data-original="#000000" style=""/><path d="m9 43h10v2h-10z" fill="#ffffff" data-original="#000000" style=""/><path d="m9 51h6v2h-6z" fill="#ffffff" data-original="#000000" style=""/><path d="m9 55h6v2h-6z" fill="#ffffff" data-original="#000000" style=""/><path d="m17 6.816v10.184h2v-10.184c1.161-.414 2-1.514 2-2.816 0-1.654-1.346-3-3-3s-3 1.346-3 3c0 1.302.839 2.402 2 2.816zm1-3.816c.552 0 1 .449 1 1s-.448 1-1 1-1-.449-1-1 .448-1 1-1z" fill="#ffffff" data-original="#000000" style=""/><path d="m4 15c1.302 0 2.402-.839 2.816-2h6.184v4h2v-6h-8.184c-.414-1.161-1.514-2-2.816-2-1.654 0-3 1.346-3 3s1.346 3 3 3zm0-4c.552 0 1 .449 1 1s-.448 1-1 1-1-.449-1-1 .448-1 1-1z" fill="#ffffff" data-original="#000000" style=""/><path d="m21 7v10h2v-8h2v6h6v-2h-4v-4h6.184c.414 1.161 1.514 2 2.816 2 1.654 0 3-1.346 3-3s-1.346-3-3-3c-1.302 0-2.402.839-2.816 2h-6.184v-2h-2v2zm15 0c.552 0 1 .449 1 1s-.448 1-1 1-1-.449-1-1 .448-1 1-1z" fill="#ffffff" data-original="#000000" style=""/><path d="m15 7h-4v-2h-2v4h6z" fill="#ffffff" data-original="#000000" style=""/><path d="m9 1h2v2h-2z" fill="#ffffff" data-original="#000000" style=""/><path d="m23 32c0-2.757-2.243-5-5-5s-5 2.243-5 5 2.243 5 5 5 5-2.243 5-5zm-5 3c-1.654 0-3-1.346-3-3s1.346-3 3-3 3 1.346 3 3-1.346 3-3 3z" fill="#ffffff" data-original="#000000" style=""/><path d="m25 1h2v2h-2z" fill="#ffffff" data-original="#000000" style=""/><path d="m33 13h2v2h-2z" fill="#ffffff" data-original="#000000" style=""/></g></g></svg>
