<?xml version="1.0" encoding="UTF-8"?>
<!DOCTYPE svg PUBLIC "-//W3C//DTD SVG 1.1//EN" "http://www.w3.org/Graphics/SVG/1.1/DTD/svg11.dtd">
<!-- Creator: CorelDRAW 2020 (64-Bit) -->
<svg xmlns="http://www.w3.org/2000/svg" xml:space="preserve" width="109.874mm" height="20.3195mm" version="1.1" style="shape-rendering:geometricPrecision; text-rendering:geometricPrecision; image-rendering:optimizeQuality; fill-rule:evenodd; clip-rule:evenodd"
viewBox="0 0 142.1527 26.289"
 xmlns:xlink="http://www.w3.org/1999/xlink"
 xmlns:xodm="http://www.corel.com/coreldraw/odm/2003">
 <defs>
  <style type="text/css">
   <![CDATA[
    .fil0 {fill:black}
    .fil3 {fill:red}
    .fil1 {fill:black;fill-rule:nonzero}
    .fil2 {fill:red;fill-rule:nonzero}
   ]]>
  </style>
 </defs>
 <g id="Слой_x0020_1">
  <metadata id="CorelCorpID_0Corel-Layer"/>
  <polygon class="fil0" points="6.319,4.4962 21.8727,4.4956 21.8727,0 6.319,0 3.159,0 -0,0 -0,6.6529 6.319,6.6529 "/>
  <path class="fil1" d="M88.0156 0l11.8274 0c3.5107,0 6.0491,0.4253 7.6155,1.2759 1.5663,0.8507 2.3495,2.2754 2.3495,4.2732l0 4.6182c0,1.5391 -0.5469,2.7475 -1.6405,3.6249 -1.0936,0.878 -2.5451,1.4382 -4.3546,1.6811l7.6149 10.8151 -7.291 0 -6.8859 -10.329 -2.9164 0 0 10.329 -6.3188 0 0 -14.5012 6.3188 0 5.4277 0c1.4855,0 2.4978,-0.1957 3.0379,-0.5871 0.5402,-0.3918 0.81,-1.1543 0.81,-2.2887l0 -1.8634c0,-0.9721 -0.2899,-1.6405 -0.8707,-2.005 -0.5804,-0.3646 -1.5731,-0.5469 -2.9773,-0.5469l-5.4277 0 -0.0004 4.6354 -6.3184 0 0 -9.1315z"/>
  <path class="fil1" d="M59.7006 0l10.5314 0c2.5653,0 4.5976,0.1756 6.0959,0.5267 1.499,0.3511 2.5926,0.9654 3.2815,1.8429 0.6884,0.878 1.0328,2.0998 1.0328,3.6657l0 4.9827c0,1.728 -0.3717,3.078 -1.1142,4.0502 -0.7425,0.9721 -1.917,1.6611 -3.524,2.0658 -1.6065,0.4052 -3.7737,0.6077 -6.5013,0.6077l-3.4833 0 0 8.5469 -6.319 0 -0.0005 -19.1366 6.3195 0 0 6.2557 4.0101 0c1.6471,0 2.8083,-0.1956 3.4833,-0.5875 0.6751,-0.3914 1.0129,-1.0596 1.0129,-2.005l0 -4.2126c0,-0.864 -0.3244,-1.4313 -0.9721,-1.7012 -0.621,-0.2703 -1.8228,-0.4052 -3.6054,-0.4052l-3.9287 0 -6.319 0 0 -4.4962z"/>
  <path class="fil1" d="M117.1812 11.8164l0 -4.0752c0,-1.2573 0.291,-2.3839 0.8718,-3.3795 0.5808,-0.9947 1.3314,-1.7812 2.2499,-2.3577 0.8106,-0.4976 1.8109,-0.9166 2.9998,-1.2573 1.1892,-0.3407 2.2974,-0.5501 3.3245,-0.629 0.9454,-0.0785 1.9457,-0.1177 2.9991,-0.1177 1.2435,0 2.3242,0.0459 3.2433,0.1378 0.919,0.0913 1.9457,0.2818 3.081,0.5693 1.2974,0.3674 2.3648,0.8124 3.2025,1.3362 0.8377,0.5244 1.5405,1.2573 2.1083,2.2007 0.5942,0.9693 0.8913,2.1362 0.8913,3.4972l0 4.0752 -6.3237 0 0 -4.1144c0,-1.2052 -0.5004,-2.0629 -1.5003,-2.5739 -0.9994,-0.5105 -2.5538,-0.7664 -4.6616,-0.7664 -2.108,0 -3.6623,0.2492 -4.6618,0.7468 -0.9998,0.4976 -1.5003,1.3626 -1.5003,2.5935l0 4.1144 -6.3237 0z"/>
  <path class="fil2" d="M129.6263 26.2885c-1.4591,0 -2.8035,-0.0919 -4.033,-0.2751 -1.2296,-0.1833 -2.5064,-0.4976 -3.8308,-0.943 -1.4327,-0.4717 -2.5547,-1.2381 -3.3651,-2.2988 -0.8104,-1.0606 -1.2162,-2.3513 -1.2162,-3.8709l0 -4.4286 6.3237 0 0 4.4286c0,0.6545 0.1761,1.1995 0.5272,1.6309 0.3511,0.432 0.8649,0.7402 1.5405,0.9234 0.6487,0.1837 1.2768,0.308 1.8849,0.3731 0.6081,0.0656 1.3582,0.0986 2.25,0.0986 0.8918,0 1.6414,-0.033 2.2495,-0.0986 0.6081,-0.0651 1.2367,-0.1894 1.8849,-0.3731 0.6488,-0.1832 1.1425,-0.4914 1.4802,-0.9234 0.3373,-0.4315 0.5066,-0.9759 0.5066,-1.6309l0 -4.4286 6.3237 0 0 4.4286c0,1.4142 -0.3855,2.6327 -1.1553,3.6547 -0.7698,1.0214 -1.831,1.7945 -3.1819,2.3183 -2.4323,0.943 -5.1622,1.4148 -8.1891,1.4148z"/>
  <polygon class="fil0" points="45.5877,10.6681 52.3272,0 46.0083,0 42.3652,5.6606 43.9229,8.081 "/>
  <polygon class="fil3" points="35.5314,10.8974 28.1261,0 34.9238,0 44.0234,13.145 34.9238,26.2885 28.1261,26.289 35.531,15.3936 6.319,15.3936 6.319,16.9804 -0,16.9804 -0,9.3085 6.3184,9.3085 6.3184,10.8974 "/>
  <polygon class="fil0" points="45.5877,15.6207 52.3272,26.289 46.0083,26.289 42.3652,20.6283 43.9229,18.208 "/>
  <polygon class="fil0" points="-0,19.6361 6.319,19.6361 6.319,21.7929 21.8727,21.7932 21.8727,26.289 6.319,26.289 3.1585,26.289 -0,26.289 "/>
 </g>
</svg>
