<?xml version="1.0"?>
<svg xmlns="http://www.w3.org/2000/svg" xmlns:xlink="http://www.w3.org/1999/xlink" xmlns:svgjs="http://svgjs.com/svgjs" version="1.1" width="512" height="512" x="0" y="0" viewBox="0 0 512 512" style="enable-background:new 0 0 512 512" xml:space="preserve" class=""><g><g xmlns="http://www.w3.org/2000/svg"><path d="m437.02 74.98c-48.353-48.351-112.64-74.98-181.02-74.98-56.636 0-110.316 18.135-155.238 52.444-3.292 2.514-3.922 7.221-1.408 10.513s7.222 3.918 10.513 1.408c42.284-32.295 92.816-49.365 146.133-49.365 64.374 0 124.894 25.068 170.413 70.587s70.587 106.039 70.587 170.413c0 64.373-25.068 124.894-70.587 170.412-45.519 45.52-106.039 70.588-170.413 70.588s-124.894-25.068-170.413-70.588c-45.519-45.518-70.587-106.039-70.587-170.412 0-62.047 23.528-120.984 66.251-165.956 2.853-3.004 2.731-7.751-.272-10.604-3.003-2.854-7.75-2.731-10.603.271-45.383 47.773-70.376 110.38-70.376 176.289 0 68.38 26.629 132.667 74.98 181.02 48.353 48.351 112.64 74.98 181.02 74.98s132.667-26.629 181.02-74.98c48.351-48.353 74.98-112.64 74.98-181.02s-26.629-132.668-74.98-181.02z" fill="#363636" data-original="#000000" style="" class=""/><path d="m152.447 434.597c2.152 3.319 7.034 4.377 10.374 2.212 12.74-8.263 28.754-19.789 45.25-34.549l-1.162 27.944c-.172 4.139 3.043 7.633 7.182 7.805.106.005.212.007.317.007 3.999 0 7.32-3.156 7.488-7.188l1.51-36.333c20.047 8.047 43.025 7.332 62.626-1.683 8.79-4.042 2.521-17.67-6.268-13.627-16.235 7.466-34.334 7.754-49.918 1.759 25.227-27.108 48.693-61.878 60.209-104.248 7.057-25.965 10.604-52.525 10.543-78.945-.023-9.584-15.023-9.697-15 .035.058 25.079-3.313 50.305-10.018 74.977-11.181 41.134-34.533 74.792-59.38 100.808-26.819-19.358-27.858-53.454-10.848-79.77 10.692-16.539 21.023-33.781 28.766-51.929l18.82 5.88c5.85 1.823 11.413-4.055 9.258-9.796l-13.645-36.333c14.132-47.135 19.29-92.359 21.09-114.541 15.596 12.423 33.164 29.183 44.697 48.619l-4.091 26.103c-.909 5.8 5.185 10.422 10.525 7.983l9.797-4.475c15.293 35.28 19.095 73.812 11.306 114.697l-34.83 25.426c-5.077 3.708-3.322 12.118 2.907 13.403l19.292 3.979c-5.848 14.012-12.485 24.669-21.432 34.613-6.47 7.193 4.68 17.225 11.151 10.033 11.801-13.117 20.294-27.805 27.539-47.622 1.551-4.242-1.107-9.007-5.529-9.921l-11.41-2.354 23.525-17.174c1.511-1.104 2.555-2.731 2.928-4.565 9.711-47.821 4.669-92.806-14.984-133.702-1.769-3.683-6.161-5.27-9.875-3.573l-3.932 1.796 2.343-14.945c.261-1.666-.047-3.373-.875-4.843-15.529-27.563-41.883-49.997-61.256-63.962-4.772-3.441-11.664-.071-11.881 5.808-.023.626-2.541 63.402-22.091 127.278-.485 1.583-.432 3.282.15 4.832l9.14 24.338-10.706-3.345c-3.731-1.162-7.734.731-9.194 4.359-7.889 19.608-18.641 38.062-30.1 55.788-16.881 26.116-20.196 59.617-.554 85.303l-20.559-4.207c-4.058-.826-8.021 1.786-8.851 5.844-.831 4.059 1.786 8.021 5.844 8.852l32.697 6.691c-16.95 15.568-33.615 27.615-46.675 36.085-3.474 2.253-4.464 6.897-2.21 10.373z" fill="#363636" data-original="#000000" style="" class=""/></g></g></svg>
