<?xml version="1.0" encoding="UTF-8"?>
<!DOCTYPE svg PUBLIC "-//W3C//DTD SVG 1.1//EN" "http://www.w3.org/Graphics/SVG/1.1/DTD/svg11.dtd">
<!-- Creator: CorelDRAW 2020 (64-Bit) -->
<svg xmlns="http://www.w3.org/2000/svg" xml:space="preserve" width="159.564mm" height="81.1346mm" version="1.1" style="shape-rendering:geometricPrecision; text-rendering:geometricPrecision; image-rendering:optimizeQuality; fill-rule:evenodd; clip-rule:evenodd"
viewBox="0 0 18.9881 9.655"
 xmlns:xlink="http://www.w3.org/1999/xlink"
 xmlns:xodm="http://www.corel.com/coreldraw/odm/2003">
 <defs>
  <style type="text/css">
   <![CDATA[
    .str1 {stroke:#332C2B;stroke-width:0.0238;stroke-miterlimit:22.9256}
    .str0 {stroke:#DAB96B;stroke-width:0.0238;stroke-miterlimit:22.9256}
    .str2 {stroke:#FEFEFE;stroke-width:0.0595;stroke-linecap:round;stroke-linejoin:round;stroke-miterlimit:22.9256}
    .fil4 {fill:none}
    .fil0 {fill:#FEFEFE}
    .fil5 {fill:#8B8B8C}
    .fil6 {fill:#332C2B}
    .fil1 {fill:#DAB96B}
    .fil3 {fill:#A0D9F6}
    .fil2 {fill:#284E78}
    .fil7 {fill:#FEFEFE;fill-rule:nonzero}
   ]]>
  </style>
 </defs>
 <g id="图层_x0020_1">
  <metadata id="CorelCorpID_0Corel-Layer"/>
  <path class="fil0 str0" d="M12.1382 3.8695l0 2.2729 0 0.2173c0,0.6989 -0.5718,1.2706 -1.2706,1.2706l-0 0c-0.6989,0 -1.2706,-0.5718 -1.2706,-1.2706l0 -0.2173 0 -2.2721c0.0607,0.0436 0.1354,0.0719 0.2156,0.0812 0.7034,0.0819 1.4068,0.0948 2.1102,0 0.0801,-0.0108 0.1548,-0.0395 0.2156,-0.0829l0 0.0009zm-2.4708 -0.6333c0.1733,-0.4961 0.6469,-0.8546 1.2002,-0.8546l0 0c0.5527,0 1.0258,0.3577 1.1996,0.8529 -0.0446,-0.018 -0.0936,-0.0243 -0.1445,-0.0147 -0.7034,0.1328 -1.4068,0.1196 -2.1102,0 -0.0512,-0.0087 -0.1004,-0.0019 -0.1451,0.0164z"/>
  <path class="fil1" d="M12.1382 6.0737l0 0.0688 0 0.2173c0,0.6989 -0.5718,1.2706 -1.2706,1.2706l-0 0c-0.6989,0 -1.2706,-0.5718 -1.2706,-1.2706l0 -0.2173 0 -0.1677c0.2732,-0.1349 0.7887,-0.2865 1.4733,-0.0246 0.474,0.1813 0.8148,0.1832 1.068,0.1235z"/>
  <path class="fil1" d="M12.0178 6.3979l2.3183 0 0 0.2264 -2.3183 0c-0.0623,0 -0.1132,-0.0509 -0.1132,-0.1132l0 -0c0,-0.0622 0.0509,-0.1132 0.1132,-0.1132z"/>
  <path class="fil1" d="M14.3361 6.3979l0 1.4689c0,0.0622 -0.0509,0.1132 -0.1132,0.1132l0 0c-0.0622,0 -0.1132,-0.0509 -0.1132,-0.1132l0 -1.4689 0.2264 0z"/>
  <polygon class="fil2" points="3.4419,5.4428 6.2467,5.0289 6.2467,5.7502 3.4419,6.2308 "/>
  <polygon class="fil2" points="3.4419,5.4428 0.0027,3.3554 0.0027,4.0098 3.4419,6.2308 "/>
  <polygon class="fil2" points="-0,3.3534 2.3972,3.0301 6.2492,5.0251 3.442,5.4509 "/>
  <polygon class="fil0 str1" points="0.2154,3.4135 3.4646,5.3601 5.8884,5.0023 2.4054,3.1272 "/>
  <path class="fil3" d="M0.516 3.571c0,0 0.0907,-0.062 0.2195,-0.0477 0.1288,0.0143 0.3912,0.0191 0.5153,-0.0334 0.124,-0.0525 0.2672,-0.062 0.3769,-0.0716 0.1097,-0.0095 0.2576,0 0.3483,-0.0191 0.0907,-0.0191 0.2386,-0.0048 0.3244,-0.0238 0.0859,-0.0191 0.2386,-0.0334 0.439,0.105 0.2004,0.1384 0.2195,0.2338 0.6203,0.3483 0.4008,0.1145 0.4485,0.2576 0.6012,0.334 0.1527,0.0763 0.4485,0.1097 0.6727,0.3197 0.2242,0.2099 0.5582,0.3197 0.7682,0.396 0.2099,0.0763 0.3483,0.1336 0.3483,0.1336l-2.2902 0.3483 -2.9391 -1.7606 -0.0048 -0.0286z"/>
  <g>
   <path class="fil4 str2" d="M2.0177 3.5221c0.1674,0.0404 0.2789,0.1124 0.2789,0.1946 0,0.1264 -0.2638,0.2288 -0.5892,0.2288 -0.3254,0 -0.5892,-0.1024 -0.5892,-0.2288 0,-0.0804 0.1068,-0.1511 0.2682,-0.1919"/>
  </g>
  <g>
   <path class="fil4 str2" d="M1.9287 3.5528c0.1362,0.0312 0.2274,0.0881 0.2274,0.1531 0,0.0985 -0.2093,0.1784 -0.4676,0.1784 -0.2582,0 -0.4676,-0.0799 -0.4676,-0.1784 0,-0.065 0.0912,-0.1219 0.2274,-0.1531 -0.0757,0.0305 -0.1235,0.0753 -0.1235,0.1251 0,0.0921 0.1628,0.1667 0.3637,0.1667 0.2008,0 0.3637,-0.0746 0.3637,-0.1667 0,-0.0498 -0.0478,-0.0946 -0.1235,-0.1251z"/>
  </g>
  <path class="fil1" d="M4.59 1.4892l-3.7588 0.8502c0,0 -0.2078,0.0923 -0.0423,0.3039l0.8118 0.5886 0 0.4001c0,0 0.1039,0.0962 0.2078,0l0 -0.5002 -0.7425 -0.5309c0,0 -0.0923,-0.0923 0.0577,-0.1385l3.4703 -0.7887c0.1951,-0.0444 0.1864,-0.2168 -0.0038,-0.1847z"/>
  <path class="fil0 str0" d="M9.8125 3.2198c0.7034,0.1196 1.4068,0.1328 2.1102,0 0.1977,-0.0373 0.3659,0.1646 0.3659,0.3659l0 0c0,0.2012 -0.1664,0.339 -0.3659,0.3659 -0.7034,0.0948 -1.4068,0.0819 -2.1102,0 -0.1999,-0.0233 -0.3659,-0.1646 -0.3659,-0.3659l0 0c0,-0.2012 0.1675,-0.3996 0.3659,-0.3659z"/>
  <path class="fil4 str0" d="M9.4483 3.5488c0.586,0.1911 2.2781,0.2703 2.8371,-0.0067"/>
  <path class="fil1 str1" d="M3.6315 1.1208c0,0 -0.1241,0.1552 0.2172,0.3104 0,0 0.5586,0.481 1.8052,0.9931 0,0 3.0208,-0.1035 5.1725,-0.5638 0,0 -0.2276,-0.5845 -0.7552,-0.9776 0,0 -1.2156,-0.6259 -1.9863,-0.838 0,0 -2.307,0.0362 -3.7242,0.3466 -0.2362,0.1892 -0.4926,0.473 -0.7293,0.7293z"/>
  <path class="fil4 str1" d="M4.3755 0.3919c0,0 0.995,0.7314 1.8369,0.9907 0,0 3.7079,-0.1531 3.9375,-0.4422"/>
  <path class="fil5 str1" d="M4.5223 0.4055c0,0 0.8695,0.6371 1.7072,0.8837 0,0 2.1558,-0.0213 3.6696,-0.3954 0,0 -0.7484,-0.421 -1.7519,-0.7781 -1.2911,-0.0058 -2.3573,0.1092 -3.6249,0.2899z"/>
  <line class="fil4 str1" x1="4.6721" y1="0.5059" x2="8.4213" y2= "0.2175" />
  <line class="fil4 str1" x1="4.7717" y1="0.5726" x2="8.5335" y2= "0.2614" />
  <path class="fil4 str1" d="M5.0292 0.7324c0,0 3.6195,-0.3007 3.8451,-0.333"/>
  <line class="fil4 str1" x1="5.1178" y1="0.7915" x2="9.0032" y2= "0.4558" />
  <path class="fil4 str1" d="M5.4525 0.9682c0,0 3.6936,-0.1952 4.0243,-0.2965"/>
  <path class="fil4 str1" d="M5.6126 1.0473c0,0 3.8016,-0.17 3.9684,-0.319"/>
  <path class="fil6 str1" d="M5.5448 0.5389c0,0 0.1067,-0.0036 0.1356,-0.0814 0.0289,-0.0778 0.2622,-0.0958 0.3634,-0.0126 0.1013,0.0832 0.1465,0.0181 0.2694,-0.0325 0.123,-0.0506 0.3526,-0.0778 0.4014,-0.009 0.0488,0.0687 0.1519,0.188 -0.0054,0.2025 -0.1573,0.0145 -0.2025,-0.0199 -0.2423,0.0705 -0.0398,0.0904 -0.2188,0.2116 -0.4376,0.2134 -0.2188,0.0018 -0.405,0 -0.5009,-0.0307 -0.0958,-0.0307 -0.2315,-0.1193 -0.2206,-0.179 0.0109,-0.0597 0.0235,-0.1266 0.1085,-0.1392 0.085,-0.0126 0.1284,-0.0018 0.1284,-0.0018z"/>
  <path class="fil6 str1" d="M6.8286 0.8391c0.1266,-0.009 0.3797,0.0669 0.4701,0.0018 0.3908,-0.2814 0.5898,0.0989 0.2694,0.1917 -0.1374,0.0398 -0.2839,0.038 -0.3653,0.0977 -0.0814,0.0597 -0.1231,0.0919 -0.2497,0.072 -0.4088,-0.0642 -0.3532,-0.3468 -0.1246,-0.3631z"/>
  <path class="fil6 str1" d="M8.5013 0.4503c-0.0362,0.1085 -0.14,0.1123 0.0054,0.2097 0.5075,0.3401 -0.1248,0.3772 -0.2893,0.2224 -0.0683,-0.0643 -0.0398,-0.1917 -0.2857,-0.2296 -0.1455,-0.0225 -0.6423,0.015 -0.6582,-0.1971 -0.0164,-0.2181 0.2562,-0.248 0.5079,-0.2254 0.125,0.0112 0.7619,0.0939 0.7199,0.2199z"/>
  <polygon class="fil1" points="9.8226,0.8234 12.5231,0.8381 14.1309,1.9818 13.7692,2.0293 12.4756,1.0536 10.2538,1.0354 9.9067,0.9367 "/>
  <polygon class="fil2" points="16.1808,4.1766 18.9855,3.7628 18.9855,4.4841 16.1808,4.9647 "/>
  <polygon class="fil2" points="16.1808,4.1766 12.7416,2.0893 12.7416,2.7437 16.1808,4.9647 "/>
  <polygon class="fil2" points="12.7389,2.0873 15.136,1.764 18.9881,3.759 16.1809,4.1848 "/>
  <polygon class="fil0 str1" points="12.9543,2.1474 16.2035,4.094 18.6272,3.7362 15.1443,1.8611 "/>
  <path class="fil3" d="M13.2549 2.3049c0,0 0.0907,-0.062 0.2195,-0.0477 0.1288,0.0143 0.3912,0.0191 0.5153,-0.0334 0.124,-0.0525 0.2672,-0.062 0.3769,-0.0716 0.1097,-0.0095 0.2576,0 0.3483,-0.0191 0.0907,-0.0191 0.2386,-0.0048 0.3244,-0.0239 0.0859,-0.0191 0.2386,-0.0334 0.439,0.105 0.2004,0.1384 0.2195,0.2338 0.6203,0.3483 0.4008,0.1145 0.4485,0.2576 0.6012,0.334 0.1527,0.0763 0.4485,0.1097 0.6727,0.3197 0.2242,0.2099 0.5582,0.3197 0.7682,0.396 0.2099,0.0763 0.3483,0.1336 0.3483,0.1336l-2.2902 0.3483 -2.9391 -1.7606 -0.0048 -0.0286z"/>
  <g>
   <path class="fil4 str2" d="M14.7566 2.256c0.1674,0.0404 0.2789,0.1124 0.2789,0.1946 0,0.1264 -0.2638,0.2288 -0.5892,0.2288 -0.3254,0 -0.5892,-0.1024 -0.5892,-0.2288 0,-0.0804 0.1068,-0.1511 0.2682,-0.1919"/>
  </g>
  <g>
   <path class="fil4 str2" d="M14.6675 2.2867c0.1362,0.0312 0.2274,0.0881 0.2274,0.1531 0,0.0985 -0.2093,0.1784 -0.4676,0.1784 -0.2582,0 -0.4676,-0.0799 -0.4676,-0.1784 0,-0.065 0.0912,-0.1219 0.2274,-0.1531 -0.0757,0.0305 -0.1235,0.0753 -0.1235,0.1251 0,0.0921 0.1628,0.1667 0.3637,0.1667 0.2009,0 0.3637,-0.0746 0.3637,-0.1667 0,-0.0498 -0.0478,-0.0946 -0.1235,-0.1251z"/>
  </g>
  <rect class="fil1" x="11.9046" y="4.2274" width="3.9799" height="0.2264" rx="0.1132" ry="0.1132"/>
  <rect class="fil1" x="5.8069" y="5.3739" width="3.9799" height="0.2264" rx="0.1132" ry="0.1132"/>
  <line class="fil4 str0" x1="6.687" y1="5.925" x2="8.7509" y2= "5.925" />
  <polygon class="fil1" points="8.7219,5.8733 9.0342,5.925 8.7219,5.9767 "/>
  <line class="fil4 str0" x1="12.6838" y1="6.8784" x2="13.4588" y2= "6.8784" />
  <polygon class="fil1" points="13.4298,6.8266 13.7421,6.8784 13.4298,6.9301 "/>
  <line class="fil4 str0" x1="12.6838" y1="4.7266" x2="14.3698" y2= "4.7266" />
  <polygon class="fil1" points="14.3121,4.6749 14.6243,4.7266 14.3121,4.7783 "/>
  <line class="fil4 str0" x1="3.5602" y1="2.0828" x2="2.3885" y2= "2.3574" />
  <polygon class="fil1" points="2.4528,2.3989 2.1374,2.425 2.4276,2.2986 "/>
  <line class="fil4 str0" x1="13.3004" y1="1.8809" x2="12.6531" y2= "1.4265" />
  <polygon class="fil1" points="12.6929,1.5195 12.4784,1.2868 12.7565,1.4379 "/>
  <circle class="fil4 str0" cx="11.5236" cy="5.7796" r="0.0648"/>
  <circle class="fil4 str0" cx="10.9618" cy="5.3537" r="0.0648"/>
  <circle class="fil4 str0" cx="11.3384" cy="5.0944" r="0.0648"/>
  <circle class="fil4 str0" cx="11.3137" cy="4.4031" r="0.0648"/>
  <path class="fil4 str1" d="M14.5204 0.8629c0,0 0.486,0.5424 0.5728,1.3625"/>
  <path class="fil4 str1" d="M14.8372 1.1276c0,0 0.3862,0.3645 0.473,0.9763"/>
  <path class="fil4 str1" d="M15.4317 0.8977c0,0 0.243,0.2864 0.2517,0.8288"/>
  <line class="fil4 str0" x1="7.7443" y1="8.8929" x2="9.4421" y2= "7.7194" />
  <polygon class="fil1" points="9.3889,7.6933 9.6752,7.5583 9.4477,7.7784 "/>
  <path class="fil1" d="M15.0834 0.8469l0.1037 -0.0586 0.0631 0.0902c0,0 0.0631,0.1172 0.0135,0.1082 -0.0496,-0.009 -0.1668,-0.0225 -0.1668,-0.0225l-0.0135 -0.1172z"/>
  <polygon class="fil1" points="15.2709,0.7736 15.3295,0.688 15.4017,0.7466 15.3927,0.8413 "/>
  <polygon class="fil1" points="15.2051,1.2257 15.2863,1.2257 15.3223,1.3068 15.1871,1.3789 "/>
  <polygon class="fil1" points="15.4666,1.5502 15.5162,1.4466 15.6199,1.5593 15.6469,1.6359 "/>
  <path class="fil1" d="M14.7859 0.8496c0.0178,0 0.1285,-0.0143 0.1285,-0.0143l0.0036 0.1071 -0.1571 0.0036c0,0 0.0143,-0.0964 0.025,-0.0964z"/>
  <rect class="fil1" transform="matrix(0.33955 0.33955 -0.33955 0.33955 15.1752 1.09126)" width="0.1159" height="0.1159"/>
  <rect class="fil1" transform="matrix(0.0959119 0.47052 -0.47052 0.0959119 15.0125 0.966763)" width="0.1159" height="0.1159"/>
  <rect class="fil1" transform="matrix(0.176167 0.864231 -0.864231 0.176167 15.4054 1.00349)" width="0.1159" height="0.1159"/>
  <rect class="fil1" transform="matrix(0.0880667 0.432034 -0.432034 0.0880667 15.0815 0.719567)" width="0.1159" height="0.1159"/>
  <path class="fil7" d="M0.212 1.6426l0 -0.2223 0.0789 0c0.0242,0 0.0429,0.0046 0.0559,0.0138 0.0131,0.0092 0.0197,0.0219 0.0197,0.0382 0,0.0121 -0.0041,0.0226 -0.0122,0.0317 -0.0081,0.0091 -0.0184,0.0153 -0.0307,0.0188l0 0.0005c0.0155,0.0019 0.028,0.0077 0.0375,0.0172 0.0095,0.0096 0.0143,0.0216 0.0143,0.036 0,0.0202 -0.0072,0.0362 -0.0215,0.0481 -0.0144,0.0119 -0.0339,0.0179 -0.0588,0.0179l-0.0831 0zm0.0474 -0.1869l0 0.0549 0.0225 0c0.0108,0 0.0193,-0.0026 0.0256,-0.0078 0.0062,-0.0051 0.0093,-0.0123 0.0093,-0.0216 0,-0.017 -0.0124,-0.0255 -0.0373,-0.0255l-0.0201 0zm0 0.0907l0 0.061 0.0281 0c0.012,0 0.0213,-0.0027 0.0281,-0.0083 0.0068,-0.0055 0.0101,-0.0132 0.0101,-0.0231 0,-0.0094 -0.0034,-0.0166 -0.01,-0.0218 -0.0067,-0.0051 -0.0162,-0.0077 -0.0285,-0.0077l-0.0277 0zm0.379 0.0963l-0.0465 0 0 -0.1587 0.0465 0 0 0.1587zm-0.2125 0l0 -0.1587 0.0463 0 0 0.0561 0.0419 0c0.0179,0 0.0318,0.0044 0.0417,0.0131 0.0099,0.0088 0.0149,0.021 0.0149,0.0365 0,0.016 -0.005,0.0288 -0.0148,0.0384 -0.0098,0.0097 -0.0235,0.0145 -0.0407,0.0145l-0.0892 0zm0.0463 -0.0727l0 0.0426 0.0253 0c0.017,0 0.0255,-0.0073 0.0255,-0.022 0,-0.0138 -0.0084,-0.0206 -0.0251,-0.0206l-0.0257 0zm0.4801 0.1306l-0.0379 0 0 -0.0578 -0.2162 0 0 -0.1587 0.0463 0 0 0.1255 0.0448 0 0 -0.1255 0.0463 0 0 0.1255 0.0449 0 0 -0.1255 0.0466 0 0 0.1255 0.0251 0 0 0.091zm0.1879 -0.1242l-0.1045 0c0.0016,0.0246 0.0165,0.0369 0.0445,0.0369 0.0175,0 0.033,-0.0043 0.0463,-0.0129l0 0.034c-0.0144,0.0081 -0.0333,0.0122 -0.0568,0.0122 -0.0252,0 -0.0449,-0.0071 -0.0589,-0.0213 -0.0141,-0.0143 -0.0211,-0.0341 -0.0211,-0.0596 0,-0.0254 0.0075,-0.0459 0.0224,-0.0618 0.0149,-0.0159 0.0337,-0.0238 0.0563,-0.0238 0.0225,0 0.0401,0.0068 0.0527,0.0204 0.0127,0.0136 0.0191,0.0324 0.0191,0.0562l0 0.0196zm-0.0432 -0.0289c0,-0.0238 -0.0096,-0.0356 -0.0289,-0.0356 -0.0079,0 -0.015,0.0033 -0.0211,0.0097 -0.0061,0.0065 -0.0099,0.0151 -0.0115,0.0259l0.0614 0zm0.2372 0.0953l-0.0465 0 0 -0.1256 -0.0281 0c-0.0062,0.0529 -0.0153,0.0874 -0.0273,0.1034 -0.0119,0.016 -0.0268,0.024 -0.0446,0.024 -0.0068,0 -0.013,-0.001 -0.0185,-0.003l0 -0.032c0.0037,0.0016 0.0075,0.0024 0.0115,0.0024 0.0092,0 0.0171,-0.0083 0.0237,-0.025 0.0066,-0.0167 0.0126,-0.051 0.0182,-0.1029l0.1116 0 0 0.1587zm0.0637 -0.1491c0.0072,-0.004 0.0168,-0.0072 0.0288,-0.0097 0.012,-0.0025 0.0223,-0.0037 0.0308,-0.0037 0.0444,0 0.0666,0.0222 0.0666,0.0667l0 0.0958 -0.044 0 0 -0.0231 -0.0006 0c-0.0108,0.018 -0.0266,0.027 -0.0475,0.027 -0.015,0 -0.027,-0.0043 -0.0361,-0.0128 -0.009,-0.0086 -0.0136,-0.0202 -0.0136,-0.035 0,-0.0304 0.0182,-0.0481 0.0544,-0.053l0.0436 -0.0059c0,-0.0185 -0.0096,-0.0277 -0.0288,-0.0277 -0.0189,0 -0.0368,0.0057 -0.0535,0.0172l0 -0.0357zm0.0524 0.0772c-0.0168,0.0022 -0.0251,0.0097 -0.0251,0.0227 0,0.0059 0.0021,0.0107 0.0061,0.0144 0.0041,0.0036 0.0095,0.0054 0.0164,0.0054 0.0095,0 0.0173,-0.0033 0.0234,-0.01 0.0061,-0.0067 0.0092,-0.015 0.0092,-0.0249l0 -0.0114 -0.03 0.0039zm0.278 0.0719l-0.0464 0 0 -0.0558c-0.0166,0.0094 -0.0328,0.0141 -0.0485,0.0141 -0.0359,0 -0.0538,-0.0183 -0.0538,-0.0548l0 -0.0621 0.0445 0 0 0.0553c0,0.017 0.0075,0.0255 0.0227,0.0255 0.0108,0 0.0225,-0.0033 0.0351,-0.0099l0 -0.0709 0.0464 0 0 0.1587zm0.2146 0l-0.0421 0 0 -0.1065c-0.0039,0.008 -0.0082,0.0155 -0.0127,0.0222l-0.0561 0.0842 -0.044 0 0 -0.1587 0.0423 0 0 0.1033c0.0036,-0.0072 0.0071,-0.0136 0.0105,-0.019l0.0564 -0.0843 0.0458 0 0 0.1587zm0.0603 0l0 -0.1587 0.0863 0c0.0374,0 0.0561,0.0129 0.0561,0.0387 0,0.009 -0.0029,0.0167 -0.0087,0.0232 -0.0058,0.0065 -0.0136,0.0108 -0.0233,0.0128 0.0121,0.0017 0.0213,0.0059 0.0277,0.0125 0.0064,0.0066 0.0096,0.0146 0.0096,0.024 0,0.0144 -0.0051,0.0259 -0.0154,0.0345 -0.0103,0.0087 -0.024,0.013 -0.0414,0.013l-0.091 0zm0.0462 -0.1297l0 0.0346 0.0257 0c0.0155,0 0.0233,-0.0061 0.0233,-0.0183 0,-0.0109 -0.0072,-0.0163 -0.0218,-0.0163l-0.0271 0zm0 0.0627l0 0.0374 0.03 0c0.0163,0 0.0244,-0.0065 0.0244,-0.0196 0,-0.0119 -0.0085,-0.0178 -0.0254,-0.0178l-0.029 0zm0.1573 -0.0821c0.0072,-0.004 0.0168,-0.0072 0.0288,-0.0097 0.012,-0.0025 0.0223,-0.0037 0.0308,-0.0037 0.0444,0 0.0666,0.0222 0.0666,0.0667l0 0.0958 -0.044 0 0 -0.0231 -0.0006 0c-0.0108,0.018 -0.0266,0.027 -0.0475,0.027 -0.015,0 -0.027,-0.0043 -0.0361,-0.0128 -0.009,-0.0086 -0.0136,-0.0202 -0.0136,-0.035 0,-0.0304 0.0182,-0.0481 0.0544,-0.053l0.0436 -0.0059c0,-0.0185 -0.0096,-0.0277 -0.0288,-0.0277 -0.0189,0 -0.0368,0.0057 -0.0535,0.0172l0 -0.0357zm0.0524 0.0772c-0.0168,0.0022 -0.0251,0.0097 -0.0251,0.0227 0,0.0059 0.0021,0.0107 0.0061,0.0144 0.0041,0.0036 0.0095,0.0054 0.0164,0.0054 0.0095,0 0.0173,-0.0033 0.0234,-0.01 0.0061,-0.0067 0.0092,-0.015 0.0092,-0.0249l0 -0.0114 -0.03 0.0039zm0.2815 0.0719l-0.0465 0 0 -0.067 -0.0577 0 0 0.067 -0.0463 0 0 -0.1587 0.0463 0 0 0.0594 0.0577 0 0 -0.0594 0.0465 0 0 0.1587zm0.2149 0l-0.0421 0 0 -0.1065c-0.0039,0.008 -0.0082,0.0155 -0.0127,0.0222l-0.0561 0.0842 -0.044 0 0 -0.1587 0.0423 0 0 0.1033c0.0036,-0.0072 0.0071,-0.0136 0.0105,-0.019l0.0564 -0.0843 0.0458 0 0 0.1587zm0.201 -0.0663l-0.1045 0c0.0016,0.0246 0.0165,0.0369 0.0445,0.0369 0.0175,0 0.033,-0.0043 0.0463,-0.0129l0 0.034c-0.0144,0.0081 -0.0333,0.0122 -0.0568,0.0122 -0.0252,0 -0.0449,-0.0071 -0.0589,-0.0213 -0.0141,-0.0143 -0.0211,-0.0341 -0.0211,-0.0596 0,-0.0254 0.0075,-0.0459 0.0224,-0.0618 0.0149,-0.0159 0.0337,-0.0238 0.0563,-0.0238 0.0225,0 0.0401,0.0068 0.0527,0.0204 0.0127,0.0136 0.0191,0.0324 0.0191,0.0562l0 0.0196zm-0.0432 -0.0289c0,-0.0238 -0.0096,-0.0356 -0.0289,-0.0356 -0.0079,0 -0.015,0.0033 -0.0211,0.0097 -0.0061,0.0065 -0.0099,0.0151 -0.0115,0.0259l0.0614 0z"/>
  <path class="fil7" d="M1.2376 6.867l0 0.0775 -0.0474 0 0 -0.2223 0.0765 0c0.0553,0 0.0829,0.0234 0.0829,0.0703 0,0.0228 -0.0083,0.041 -0.025,0.0548 -0.0167,0.0137 -0.0376,0.0203 -0.0626,0.0197l-0.0244 0zm0 -0.108l0 0.0717 0.0205 0c0.0279,0 0.0418,-0.0121 0.0418,-0.0363 0,-0.0236 -0.0138,-0.0354 -0.0413,-0.0354l-0.021 0zm0.2996 0.1192l-0.1045 0c0.0016,0.0246 0.0165,0.0369 0.0445,0.0369 0.0175,0 0.033,-0.0043 0.0463,-0.0129l0 0.034c-0.0144,0.0081 -0.0333,0.0122 -0.0568,0.0122 -0.0252,0 -0.0449,-0.0071 -0.0589,-0.0213 -0.0141,-0.0143 -0.0211,-0.0341 -0.0211,-0.0596 0,-0.0254 0.0075,-0.0459 0.0224,-0.0618 0.0149,-0.0159 0.0337,-0.0238 0.0563,-0.0238 0.0225,0 0.0401,0.0068 0.0527,0.0204 0.0127,0.0136 0.0191,0.0324 0.0191,0.0562l0 0.0196zm-0.0432 -0.0289c0,-0.0238 -0.0096,-0.0356 -0.0289,-0.0356 -0.0079,0 -0.015,0.0033 -0.0211,0.0097 -0.0061,0.0065 -0.0099,0.0151 -0.0115,0.0259l0.0614 0zm0.0821 0.0568c0.015,0.0071 0.0304,0.0106 0.046,0.0106 0.0227,0 0.034,-0.0064 0.034,-0.0191 0,-0.0131 -0.0124,-0.0196 -0.0372,-0.0196l-0.0214 0 0 -0.0293 0.0217 0c0.0213,0 0.032,-0.0063 0.032,-0.0188 0,-0.0111 -0.0095,-0.0166 -0.0286,-0.0166 -0.0139,0 -0.0278,0.0032 -0.0419,0.0095l0 -0.0326c0.0184,-0.0055 0.035,-0.0082 0.0501,-0.0082 0.0454,0 0.068,0.0143 0.068,0.0429 0,0.0199 -0.0121,0.0321 -0.0364,0.0367l0 0.0008c0.0126,0.001 0.0226,0.0049 0.03,0.0118 0.0074,0.0069 0.0111,0.0155 0.0111,0.0257 0,0.0319 -0.0254,0.0479 -0.0762,0.0479 -0.0199,0 -0.037,-0.0025 -0.0514,-0.0074l0 -0.0343zm0.3184 -0.0279l-0.1045 0c0.0016,0.0246 0.0165,0.0369 0.0445,0.0369 0.0175,0 0.033,-0.0043 0.0463,-0.0129l0 0.034c-0.0144,0.0081 -0.0333,0.0122 -0.0568,0.0122 -0.0252,0 -0.0449,-0.0071 -0.0589,-0.0213 -0.0141,-0.0143 -0.0211,-0.0341 -0.0211,-0.0596 0,-0.0254 0.0075,-0.0459 0.0224,-0.0618 0.0149,-0.0159 0.0337,-0.0238 0.0563,-0.0238 0.0225,0 0.0401,0.0068 0.0527,0.0204 0.0127,0.0136 0.0191,0.0324 0.0191,0.0562l0 0.0196zm-0.0432 -0.0289c0,-0.0238 -0.0096,-0.0356 -0.0289,-0.0356 -0.0079,0 -0.015,0.0033 -0.0211,0.0097 -0.0061,0.0065 -0.0099,0.0151 -0.0115,0.0259l0.0614 0zm0.1371 0.0762l0 0.0921 -0.0463 0 0 -0.2317 0.0463 0 0 0.0242 0.0006 0c0.0121,-0.0188 0.0293,-0.0281 0.0515,-0.0281 0.0202,0 0.036,0.0071 0.0474,0.0212 0.0114,0.0141 0.0171,0.0333 0.0171,0.0576 0,0.0265 -0.0066,0.0478 -0.0198,0.0637 -0.0132,0.016 -0.0305,0.0239 -0.052,0.0239 -0.0194,0 -0.0341,-0.0076 -0.0442,-0.023l-0.0006 0zm-0.0007 -0.0511c0,0.0113 0.0031,0.0205 0.0092,0.0277 0.0061,0.0072 0.0141,0.0108 0.0238,0.0108 0.0116,0 0.0206,-0.0045 0.027,-0.0135 0.0065,-0.009 0.0097,-0.0217 0.0097,-0.0382 0,-0.0291 -0.0113,-0.0436 -0.034,-0.0436 -0.0105,0 -0.0191,0.004 -0.0258,0.0121 -0.0067,0.008 -0.01,0.0184 -0.01,0.031l0 0.0138zm0.1678 0.0702l0 -0.1587 0.0863 0c0.0374,0 0.0561,0.0129 0.0561,0.0387 0,0.009 -0.0029,0.0167 -0.0087,0.0232 -0.0058,0.0065 -0.0136,0.0108 -0.0233,0.0128 0.0121,0.0017 0.0213,0.0059 0.0277,0.0125 0.0064,0.0066 0.0096,0.0146 0.0096,0.024 0,0.0144 -0.0051,0.0259 -0.0154,0.0345 -0.0103,0.0087 -0.024,0.013 -0.0414,0.013l-0.091 0zm0.0462 -0.1297l0 0.0346 0.0257 0c0.0155,0 0.0233,-0.0061 0.0233,-0.0183 0,-0.0109 -0.0072,-0.0163 -0.0218,-0.0163l-0.0271 0zm0 0.0627l0 0.0374 0.03 0c0.0163,0 0.0244,-0.0065 0.0244,-0.0196 0,-0.0119 -0.0085,-0.0178 -0.0254,-0.0178l-0.029 0zm0.3018 -0.0917l-0.0654 0.1729c-0.0152,0.0402 -0.038,0.0603 -0.0683,0.0603 -0.0119,0 -0.0212,-0.0013 -0.0278,-0.0038l0 -0.0371c0.0062,0.0035 0.0131,0.0053 0.0205,0.0053 0.0126,0 0.0216,-0.0061 0.0267,-0.0184l0.0088 -0.0208 -0.0642 -0.1584 0.0514 0 0.031 0.0994c0.0019,0.006 0.0033,0.0128 0.0042,0.0202l0.0008 0c0.0007,-0.005 0.0022,-0.0117 0.0047,-0.0199l0.0317 -0.0997 0.0459 0zm0.0417 0.0096c0.0072,-0.004 0.0168,-0.0072 0.0288,-0.0097 0.012,-0.0025 0.0223,-0.0037 0.0308,-0.0037 0.0444,0 0.0666,0.0222 0.0666,0.0667l0 0.0958 -0.044 0 0 -0.0231 -0.0006 0c-0.0108,0.018 -0.0266,0.027 -0.0475,0.027 -0.015,0 -0.027,-0.0043 -0.0361,-0.0128 -0.009,-0.0086 -0.0136,-0.0202 -0.0136,-0.035 0,-0.0304 0.0182,-0.0481 0.0544,-0.053l0.0436 -0.0059c0,-0.0185 -0.0096,-0.0277 -0.0288,-0.0277 -0.0189,0 -0.0368,0.0057 -0.0535,0.0172l0 -0.0357zm0.0524 0.0772c-0.0168,0.0022 -0.0251,0.0097 -0.0251,0.0227 0,0.0059 0.0021,0.0107 0.0061,0.0144 0.0041,0.0036 0.0095,0.0054 0.0164,0.0054 0.0095,0 0.0173,-0.0033 0.0234,-0.01 0.0061,-0.0067 0.0092,-0.015 0.0092,-0.0249l0 -0.0114 -0.03 0.0039zm0.1774 0.0528l0 0.0921 -0.0463 0 0 -0.2317 0.0463 0 0 0.0242 0.0006 0c0.0121,-0.0188 0.0293,-0.0281 0.0515,-0.0281 0.0202,0 0.036,0.0071 0.0474,0.0212 0.0114,0.0141 0.0171,0.0333 0.0171,0.0576 0,0.0265 -0.0066,0.0478 -0.0198,0.0637 -0.0132,0.016 -0.0305,0.0239 -0.052,0.0239 -0.0194,0 -0.0341,-0.0076 -0.0442,-0.023l-0.0006 0zm-0.0007 -0.0511c0,0.0113 0.0031,0.0205 0.0092,0.0277 0.0061,0.0072 0.0141,0.0108 0.0238,0.0108 0.0116,0 0.0206,-0.0045 0.027,-0.0135 0.0065,-0.009 0.0097,-0.0217 0.0097,-0.0382 0,-0.0291 -0.0113,-0.0436 -0.034,-0.0436 -0.0105,0 -0.0191,0.004 -0.0258,0.0121 -0.0067,0.008 -0.01,0.0184 -0.01,0.031l0 0.0138zm0.3881 0.0702l-0.0465 0 0 -0.067 -0.0577 0 0 0.067 -0.0463 0 0 -0.1587 0.0463 0 0 0.0594 0.0577 0 0 -0.0594 0.0465 0 0 0.1587zm0.0638 -0.1491c0.0072,-0.004 0.0168,-0.0072 0.0288,-0.0097 0.012,-0.0025 0.0223,-0.0037 0.0308,-0.0037 0.0444,0 0.0666,0.0222 0.0666,0.0667l0 0.0958 -0.044 0 0 -0.0231 -0.0006 0c-0.0108,0.018 -0.0266,0.027 -0.0475,0.027 -0.015,0 -0.027,-0.0043 -0.0361,-0.0128 -0.009,-0.0086 -0.0136,-0.0202 -0.0136,-0.035 0,-0.0304 0.0182,-0.0481 0.0544,-0.053l0.0436 -0.0059c0,-0.0185 -0.0096,-0.0277 -0.0288,-0.0277 -0.0189,0 -0.0368,0.0057 -0.0535,0.0172l0 -0.0357zm0.0524 0.0772c-0.0168,0.0022 -0.0251,0.0097 -0.0251,0.0227 0,0.0059 0.0021,0.0107 0.0061,0.0144 0.0041,0.0036 0.0095,0.0054 0.0164,0.0054 0.0095,0 0.0173,-0.0033 0.0234,-0.01 0.0061,-0.0067 0.0092,-0.015 0.0092,-0.0249l0 -0.0114 -0.03 0.0039zm0.2499 0.066c-0.0111,0.0065 -0.0268,0.0097 -0.0473,0.0097 -0.0242,0 -0.0438,-0.0073 -0.0587,-0.0221 -0.0149,-0.0147 -0.0224,-0.0338 -0.0224,-0.0573 0,-0.027 0.008,-0.0482 0.0241,-0.0638 0.0161,-0.0156 0.0375,-0.0233 0.0643,-0.0233 0.0181,0 0.0315,0.0025 0.0402,0.0074l0 0.0398c-0.0106,-0.0078 -0.0222,-0.0117 -0.0347,-0.0117 -0.0141,0 -0.0255,0.0043 -0.034,0.0129 -0.0086,0.0086 -0.0129,0.0204 -0.0129,0.0355 0,0.0145 0.0041,0.026 0.0122,0.0343 0.0081,0.0084 0.0192,0.0126 0.0332,0.0126 0.0123,0 0.0244,-0.004 0.0362,-0.0118l0 0.0376zm0.2629 0.0059l-0.0465 0 0 -0.1587 0.0465 0 0 0.1587zm-0.2125 0l0 -0.1587 0.0463 0 0 0.0561 0.0419 0c0.0179,0 0.0318,0.0044 0.0417,0.0131 0.0099,0.0088 0.0149,0.021 0.0149,0.0365 0,0.016 -0.005,0.0288 -0.0148,0.0384 -0.0098,0.0097 -0.0235,0.0145 -0.0407,0.0145l-0.0892 0zm0.0463 -0.0727l0 0.0426 0.0253 0c0.017,0 0.0255,-0.0073 0.0255,-0.022 0,-0.0138 -0.0084,-0.0206 -0.0251,-0.0206l-0.0257 0zm0.4801 0.1306l-0.0379 0 0 -0.0578 -0.2162 0 0 -0.1587 0.0463 0 0 0.1255 0.0448 0 0 -0.1255 0.0463 0 0 0.1255 0.0449 0 0 -0.1255 0.0466 0 0 0.1255 0.0251 0 0 0.091zm0.1879 -0.1242l-0.1045 0c0.0016,0.0246 0.0165,0.0369 0.0445,0.0369 0.0175,0 0.033,-0.0043 0.0463,-0.0129l0 0.034c-0.0144,0.0081 -0.0333,0.0122 -0.0568,0.0122 -0.0252,0 -0.0449,-0.0071 -0.0589,-0.0213 -0.0141,-0.0143 -0.0211,-0.0341 -0.0211,-0.0596 0,-0.0254 0.0075,-0.0459 0.0224,-0.0618 0.0149,-0.0159 0.0337,-0.0238 0.0563,-0.0238 0.0225,0 0.0401,0.0068 0.0527,0.0204 0.0127,0.0136 0.0191,0.0324 0.0191,0.0562l0 0.0196zm-0.0432 -0.0289c0,-0.0238 -0.0096,-0.0356 -0.0289,-0.0356 -0.0079,0 -0.015,0.0033 -0.0211,0.0097 -0.0061,0.0065 -0.0099,0.0151 -0.0115,0.0259l0.0614 0zm0.2413 0.0953l-0.0465 0 0 -0.067 -0.0577 0 0 0.067 -0.0463 0 0 -0.1587 0.0463 0 0 0.0594 0.0577 0 0 -0.0594 0.0465 0 0 0.1587zm0.2105 0l-0.0465 0 0 -0.067 -0.0577 0 0 0.067 -0.0463 0 0 -0.1587 0.0463 0 0 0.0594 0.0577 0 0 -0.0594 0.0465 0 0 0.1587zm0.0505 -0.0786c0,-0.0261 0.0078,-0.0467 0.0235,-0.0616 0.0157,-0.0149 0.0367,-0.0224 0.0631,-0.0224 0.0255,0 0.0458,0.0073 0.0608,0.022 0.015,0.0147 0.0225,0.0344 0.0225,0.0592 0,0.026 -0.0077,0.0467 -0.0231,0.0621 -0.0154,0.0154 -0.0362,0.0231 -0.0625,0.0231 -0.0258,0 -0.0463,-0.0074 -0.0615,-0.0222 -0.0152,-0.0147 -0.0228,-0.0349 -0.0228,-0.0603zm0.0469 -0.0006c0,0.0316 0.0129,0.0475 0.0387,0.0475 0.0248,0 0.0372,-0.0163 0.0372,-0.0488 0,-0.031 -0.0125,-0.0465 -0.0375,-0.0465 -0.0121,0 -0.0216,0.0042 -0.0283,0.0125 -0.0068,0.0083 -0.0101,0.0201 -0.0101,0.0353zm0.2749 -0.0441l-0.0554 0 0 0.1233 -0.0463 0 0 -0.1587 0.1017 0 0 0.0354zm0.0354 0.0447c0,-0.0261 0.0078,-0.0467 0.0235,-0.0616 0.0157,-0.0149 0.0367,-0.0224 0.0631,-0.0224 0.0255,0 0.0458,0.0073 0.0608,0.022 0.015,0.0147 0.0225,0.0344 0.0225,0.0592 0,0.026 -0.0077,0.0467 -0.0231,0.0621 -0.0154,0.0154 -0.0362,0.0231 -0.0625,0.0231 -0.0258,0 -0.0463,-0.0074 -0.0615,-0.0222 -0.0152,-0.0147 -0.0228,-0.0349 -0.0228,-0.0603zm0.0469 -0.0006c0,0.0316 0.0129,0.0475 0.0387,0.0475 0.0248,0 0.0372,-0.0163 0.0372,-0.0488 0,-0.031 -0.0125,-0.0465 -0.0375,-0.0465 -0.0121,0 -0.0216,0.0042 -0.0283,0.0125 -0.0068,0.0083 -0.0101,0.0201 -0.0101,0.0353zm-2.6229 0.3393l0 0.0921 -0.0463 0 0 -0.2317 0.0463 0 0 0.0242 0.0006 0c0.0121,-0.0188 0.0293,-0.0281 0.0515,-0.0281 0.0202,0 0.036,0.0071 0.0474,0.0212 0.0114,0.0141 0.0171,0.0333 0.0171,0.0576 0,0.0265 -0.0066,0.0478 -0.0198,0.0637 -0.0132,0.016 -0.0305,0.0239 -0.052,0.0239 -0.0194,0 -0.0341,-0.0076 -0.0442,-0.023l-0.0006 0zm-0.0007 -0.0511c0,0.0113 0.0031,0.0205 0.0092,0.0277 0.0061,0.0072 0.0141,0.0108 0.0238,0.0108 0.0116,0 0.0206,-0.0045 0.027,-0.0135 0.0065,-0.009 0.0097,-0.0217 0.0097,-0.0382 0,-0.0291 -0.0113,-0.0436 -0.034,-0.0436 -0.0105,0 -0.0191,0.004 -0.0258,0.0121 -0.0067,0.008 -0.01,0.0184 -0.01,0.031l0 0.0138zm0.1715 -0.0789c0.0072,-0.004 0.0168,-0.0072 0.0288,-0.0097 0.012,-0.0025 0.0223,-0.0037 0.0308,-0.0037 0.0444,0 0.0666,0.0222 0.0666,0.0667l0 0.0958 -0.044 0 0 -0.0231 -0.0006 0c-0.0108,0.018 -0.0266,0.027 -0.0475,0.027 -0.015,0 -0.027,-0.0043 -0.0361,-0.0128 -0.009,-0.0086 -0.0136,-0.0202 -0.0136,-0.035 0,-0.0304 0.0182,-0.0481 0.0544,-0.053l0.0436 -0.0059c0,-0.0185 -0.0096,-0.0277 -0.0288,-0.0277 -0.0189,0 -0.0368,0.0057 -0.0535,0.0172l0 -0.0357zm0.0524 0.0772c-0.0168,0.0022 -0.0251,0.0097 -0.0251,0.0227 0,0.0059 0.0021,0.0107 0.0061,0.0144 0.0041,0.0036 0.0095,0.0054 0.0164,0.0054 0.0095,0 0.0173,-0.0033 0.0234,-0.01 0.0061,-0.0067 0.0092,-0.015 0.0092,-0.0249l0 -0.0114 -0.03 0.0039zm0.2499 0.066c-0.0111,0.0065 -0.0268,0.0097 -0.0473,0.0097 -0.0242,0 -0.0438,-0.0073 -0.0587,-0.0221 -0.0149,-0.0147 -0.0224,-0.0338 -0.0224,-0.0573 0,-0.027 0.008,-0.0482 0.0241,-0.0638 0.0161,-0.0156 0.0375,-0.0233 0.0643,-0.0233 0.0181,0 0.0315,0.0025 0.0402,0.0074l0 0.0398c-0.0106,-0.0078 -0.0222,-0.0117 -0.0347,-0.0117 -0.0141,0 -0.0255,0.0043 -0.034,0.0129 -0.0086,0.0086 -0.0129,0.0204 -0.0129,0.0355 0,0.0145 0.0041,0.026 0.0122,0.0343 0.0081,0.0084 0.0192,0.0126 0.0332,0.0126 0.0123,0 0.0244,-0.004 0.0362,-0.0118l0 0.0376zm0.1671 -0.1174l-0.043 0 0 0.1233 -0.0465 0 0 -0.1233 -0.0434 0 0 -0.0354 0.133 0 0 0.0354zm0.0438 0.1233l0 -0.1587 0.0863 0c0.0374,0 0.0561,0.0129 0.0561,0.0387 0,0.009 -0.0029,0.0167 -0.0087,0.0232 -0.0058,0.0065 -0.0136,0.0108 -0.0233,0.0128 0.0121,0.0017 0.0213,0.0059 0.0277,0.0125 0.0064,0.0066 0.0096,0.0146 0.0096,0.024 0,0.0144 -0.0051,0.0259 -0.0154,0.0345 -0.0103,0.0087 -0.024,0.013 -0.0414,0.013l-0.091 0zm0.0462 -0.1297l0 0.0346 0.0257 0c0.0155,0 0.0233,-0.0061 0.0233,-0.0183 0,-0.0109 -0.0072,-0.0163 -0.0218,-0.0163l-0.0271 0zm0 0.0627l0 0.0374 0.03 0c0.0163,0 0.0244,-0.0065 0.0244,-0.0196 0,-0.0119 -0.0085,-0.0178 -0.0254,-0.0178l-0.029 0zm0.1439 -0.0116c0,-0.0261 0.0078,-0.0467 0.0235,-0.0616 0.0157,-0.0149 0.0367,-0.0224 0.0631,-0.0224 0.0255,0 0.0458,0.0073 0.0608,0.022 0.015,0.0147 0.0225,0.0344 0.0225,0.0592 0,0.026 -0.0077,0.0467 -0.0231,0.0621 -0.0154,0.0154 -0.0362,0.0231 -0.0625,0.0231 -0.0258,0 -0.0463,-0.0074 -0.0615,-0.0222 -0.0152,-0.0147 -0.0228,-0.0349 -0.0228,-0.0603zm0.0469 -0.0006c0,0.0316 0.0129,0.0475 0.0387,0.0475 0.0248,0 0.0372,-0.0163 0.0372,-0.0488 0,-0.031 -0.0125,-0.0465 -0.0375,-0.0465 -0.0121,0 -0.0216,0.0042 -0.0283,0.0125 -0.0068,0.0083 -0.0101,0.0201 -0.0101,0.0353zm0.2195 0.0601l0 0.0921 -0.0463 0 0 -0.2317 0.0463 0 0 0.0242 0.0006 0c0.0121,-0.0188 0.0293,-0.0281 0.0515,-0.0281 0.0202,0 0.036,0.0071 0.0474,0.0212 0.0114,0.0141 0.0171,0.0333 0.0171,0.0576 0,0.0265 -0.0066,0.0478 -0.0198,0.0637 -0.0132,0.016 -0.0305,0.0239 -0.052,0.0239 -0.0194,0 -0.0341,-0.0076 -0.0442,-0.023l-0.0006 0zm-0.0007 -0.0511c0,0.0113 0.0031,0.0205 0.0092,0.0277 0.0061,0.0072 0.0141,0.0108 0.0238,0.0108 0.0116,0 0.0206,-0.0045 0.027,-0.0135 0.0065,-0.009 0.0097,-0.0217 0.0097,-0.0382 0,-0.0291 -0.0113,-0.0436 -0.034,-0.0436 -0.0105,0 -0.0191,0.004 -0.0258,0.0121 -0.0067,0.008 -0.01,0.0184 -0.01,0.031l0 0.0138zm0.1715 -0.0789c0.0072,-0.004 0.0168,-0.0072 0.0288,-0.0097 0.012,-0.0025 0.0223,-0.0037 0.0308,-0.0037 0.0444,0 0.0666,0.0222 0.0666,0.0667l0 0.0958 -0.044 0 0 -0.0231 -0.0006 0c-0.0108,0.018 -0.0266,0.027 -0.0475,0.027 -0.015,0 -0.027,-0.0043 -0.0361,-0.0128 -0.009,-0.0086 -0.0136,-0.0202 -0.0136,-0.035 0,-0.0304 0.0182,-0.0481 0.0544,-0.053l0.0436 -0.0059c0,-0.0185 -0.0096,-0.0277 -0.0288,-0.0277 -0.0189,0 -0.0368,0.0057 -0.0535,0.0172l0 -0.0357zm0.0524 0.0772c-0.0168,0.0022 -0.0251,0.0097 -0.0251,0.0227 0,0.0059 0.0021,0.0107 0.0061,0.0144 0.0041,0.0036 0.0095,0.0054 0.0164,0.0054 0.0095,0 0.0173,-0.0033 0.0234,-0.01 0.0061,-0.0067 0.0092,-0.015 0.0092,-0.0249l0 -0.0114 -0.03 0.0039z"/>
  <path class="fil7" d="M5.86 9.2509c0.0176,0.0119 0.0377,0.0178 0.0601,0.0178 0.0286,0 0.0429,-0.0105 0.0429,-0.0316 0,-0.0213 -0.0157,-0.032 -0.0472,-0.032l-0.028 0 0 -0.0357 0.0265 0c0.0281,0 0.0422,-0.01 0.0422,-0.0302 0,-0.0184 -0.0119,-0.0275 -0.0358,-0.0275 -0.0168,0 -0.0346,0.0053 -0.0533,0.0159l0 -0.0393c0.0186,-0.0087 0.0393,-0.013 0.0622,-0.013 0.0221,0 0.0403,0.0049 0.0545,0.0146 0.0142,0.0097 0.0213,0.0235 0.0213,0.0413 0,0.0285 -0.0146,0.0465 -0.0437,0.0538l0 0.0006c0.0153,0.0022 0.0275,0.0081 0.0366,0.0174 0.0092,0.0093 0.0137,0.0209 0.0137,0.0348 0,0.0217 -0.0078,0.0384 -0.0233,0.05 -0.0156,0.0116 -0.0374,0.0173 -0.0657,0.0173 -0.0275,0 -0.0486,-0.0041 -0.0631,-0.0122l0 -0.042zm0.1941 -0.0283c0,-0.0261 0.0078,-0.0467 0.0235,-0.0616 0.0157,-0.0149 0.0367,-0.0224 0.0631,-0.0224 0.0255,0 0.0458,0.0073 0.0608,0.022 0.015,0.0147 0.0225,0.0344 0.0225,0.0592 0,0.026 -0.0077,0.0467 -0.0231,0.0621 -0.0154,0.0154 -0.0362,0.0231 -0.0625,0.0231 -0.0258,0 -0.0463,-0.0074 -0.0615,-0.0222 -0.0152,-0.0147 -0.0228,-0.0349 -0.0228,-0.0603zm0.0469 -0.0006c0,0.0316 0.0129,0.0475 0.0387,0.0475 0.0248,0 0.0372,-0.0163 0.0372,-0.0488 0,-0.031 -0.0125,-0.0465 -0.0375,-0.0465 -0.0121,0 -0.0216,0.0042 -0.0283,0.0125 -0.0068,0.0083 -0.0101,0.0201 -0.0101,0.0353zm0.3195 0.0792l-0.0465 0 0 -0.1256 -0.0281 0c-0.0062,0.0529 -0.0153,0.0874 -0.0273,0.1034 -0.0119,0.016 -0.0268,0.024 -0.0446,0.024 -0.0068,0 -0.013,-0.001 -0.0185,-0.003l0 -0.032c0.0037,0.0016 0.0075,0.0024 0.0115,0.0024 0.0092,0 0.0171,-0.0083 0.0237,-0.025 0.0066,-0.0167 0.0126,-0.051 0.0182,-0.1029l0.1116 0 0 0.1587zm0.0504 -0.0786c0,-0.0261 0.0078,-0.0467 0.0235,-0.0616 0.0157,-0.0149 0.0367,-0.0224 0.0631,-0.0224 0.0255,0 0.0458,0.0073 0.0608,0.022 0.015,0.0147 0.0225,0.0344 0.0225,0.0592 0,0.026 -0.0077,0.0467 -0.0231,0.0621 -0.0154,0.0154 -0.0362,0.0231 -0.0625,0.0231 -0.0258,0 -0.0463,-0.0074 -0.0615,-0.0222 -0.0152,-0.0147 -0.0228,-0.0349 -0.0228,-0.0603zm0.0469 -0.0006c0,0.0316 0.0129,0.0475 0.0387,0.0475 0.0248,0 0.0372,-0.0163 0.0372,-0.0488 0,-0.031 -0.0125,-0.0465 -0.0375,-0.0465 -0.0121,0 -0.0216,0.0042 -0.0283,0.0125 -0.0068,0.0083 -0.0101,0.0201 -0.0101,0.0353zm0.2899 -0.0441l-0.043 0 0 0.1233 -0.0465 0 0 -0.1233 -0.0434 0 0 -0.0354 0.133 0 0 0.0354zm0.0341 0.0447c0,-0.0261 0.0078,-0.0467 0.0235,-0.0616 0.0157,-0.0149 0.0367,-0.0224 0.0631,-0.0224 0.0255,0 0.0458,0.0073 0.0608,0.022 0.015,0.0147 0.0225,0.0344 0.0225,0.0592 0,0.026 -0.0077,0.0467 -0.0231,0.0621 -0.0154,0.0154 -0.0362,0.0231 -0.0625,0.0231 -0.0258,0 -0.0463,-0.0074 -0.0615,-0.0222 -0.0152,-0.0147 -0.0228,-0.0349 -0.0228,-0.0603zm0.0469 -0.0006c0,0.0316 0.0129,0.0475 0.0387,0.0475 0.0248,0 0.0372,-0.0163 0.0372,-0.0488 0,-0.031 -0.0125,-0.0465 -0.0375,-0.0465 -0.0121,0 -0.0216,0.0042 -0.0283,0.0125 -0.0068,0.0083 -0.0101,0.0201 -0.0101,0.0353zm0.3237 0.0792l-0.0465 0 0 -0.067 -0.0577 0 0 0.067 -0.0463 0 0 -0.1587 0.0463 0 0 0.0594 0.0577 0 0 -0.0594 0.0465 0 0 0.1587zm0.0638 -0.1491c0.0072,-0.004 0.0168,-0.0072 0.0288,-0.0097 0.012,-0.0025 0.0223,-0.0037 0.0308,-0.0037 0.0444,0 0.0666,0.0222 0.0666,0.0667l0 0.0958 -0.044 0 0 -0.0231 -0.0006 0c-0.0108,0.018 -0.0266,0.027 -0.0475,0.027 -0.015,0 -0.027,-0.0043 -0.0361,-0.0128 -0.009,-0.0086 -0.0136,-0.0202 -0.0136,-0.035 0,-0.0304 0.0182,-0.0481 0.0544,-0.053l0.0436 -0.0059c0,-0.0185 -0.0096,-0.0277 -0.0288,-0.0277 -0.0189,0 -0.0368,0.0057 -0.0535,0.0172l0 -0.0357zm0.0524 0.0772c-0.0168,0.0022 -0.0251,0.0097 -0.0251,0.0227 0,0.0059 0.0021,0.0107 0.0061,0.0144 0.0041,0.0036 0.0095,0.0054 0.0164,0.0054 0.0095,0 0.0173,-0.0033 0.0234,-0.01 0.0061,-0.0067 0.0092,-0.015 0.0092,-0.0249l0 -0.0114 -0.03 0.0039zm0.2499 0.066c-0.0111,0.0065 -0.0268,0.0097 -0.0473,0.0097 -0.0242,0 -0.0438,-0.0073 -0.0587,-0.0221 -0.0149,-0.0147 -0.0224,-0.0338 -0.0224,-0.0573 0,-0.027 0.008,-0.0482 0.0241,-0.0638 0.0161,-0.0156 0.0375,-0.0233 0.0643,-0.0233 0.0181,0 0.0315,0.0025 0.0402,0.0074l0 0.0398c-0.0106,-0.0078 -0.0222,-0.0117 -0.0347,-0.0117 -0.0141,0 -0.0255,0.0043 -0.034,0.0129 -0.0086,0.0086 -0.0129,0.0204 -0.0129,0.0355 0,0.0145 0.0041,0.026 0.0122,0.0343 0.0081,0.0084 0.0192,0.0126 0.0332,0.0126 0.0123,0 0.0244,-0.004 0.0362,-0.0118l0 0.0376zm0.2629 0.0059l-0.0465 0 0 -0.1587 0.0465 0 0 0.1587zm-0.2125 0l0 -0.1587 0.0463 0 0 0.0561 0.0419 0c0.0179,0 0.0318,0.0044 0.0417,0.0131 0.0099,0.0088 0.0149,0.021 0.0149,0.0365 0,0.016 -0.005,0.0288 -0.0148,0.0384 -0.0098,0.0097 -0.0235,0.0145 -0.0407,0.0145l-0.0892 0zm0.0463 -0.0727l0 0.0426 0.0253 0c0.017,0 0.0255,-0.0073 0.0255,-0.022 0,-0.0138 -0.0084,-0.0206 -0.0251,-0.0206l-0.0257 0zm0.4801 0.1306l-0.0379 0 0 -0.0578 -0.2162 0 0 -0.1587 0.0463 0 0 0.1255 0.0448 0 0 -0.1255 0.0463 0 0 0.1255 0.0449 0 0 -0.1255 0.0466 0 0 0.1255 0.0251 0 0 0.091zm0.1879 -0.1242l-0.1045 0c0.0016,0.0246 0.0165,0.0369 0.0445,0.0369 0.0175,0 0.033,-0.0043 0.0463,-0.0129l0 0.034c-0.0144,0.0081 -0.0333,0.0122 -0.0568,0.0122 -0.0252,0 -0.0449,-0.0071 -0.0589,-0.0213 -0.0141,-0.0143 -0.0211,-0.0341 -0.0211,-0.0596 0,-0.0254 0.0075,-0.0459 0.0224,-0.0618 0.0149,-0.0159 0.0337,-0.0238 0.0563,-0.0238 0.0225,0 0.0401,0.0068 0.0527,0.0204 0.0127,0.0136 0.0191,0.0324 0.0191,0.0562l0 0.0196zm-0.0432 -0.0289c0,-0.0238 -0.0096,-0.0356 -0.0289,-0.0356 -0.0079,0 -0.015,0.0033 -0.0211,0.0097 -0.0061,0.0065 -0.0099,0.0151 -0.0115,0.0259l0.0614 0zm0.2413 0.0953l-0.0465 0 0 -0.067 -0.0577 0 0 0.067 -0.0463 0 0 -0.1587 0.0463 0 0 0.0594 0.0577 0 0 -0.0594 0.0465 0 0 0.1587zm0.2105 0l-0.0465 0 0 -0.067 -0.0577 0 0 0.067 -0.0463 0 0 -0.1587 0.0463 0 0 0.0594 0.0577 0 0 -0.0594 0.0465 0 0 0.1587zm0.2725 0l-0.0465 0 0 -0.1587 0.0465 0 0 0.1587zm-0.2125 0l0 -0.1587 0.0463 0 0 0.0561 0.0419 0c0.0179,0 0.0318,0.0044 0.0417,0.0131 0.0099,0.0088 0.0149,0.021 0.0149,0.0365 0,0.016 -0.005,0.0288 -0.0148,0.0384 -0.0098,0.0097 -0.0235,0.0145 -0.0407,0.0145l-0.0892 0zm0.0463 -0.0727l0 0.0426 0.0253 0c0.017,0 0.0255,-0.0073 0.0255,-0.022 0,-0.0138 -0.0084,-0.0206 -0.0251,-0.0206l-0.0257 0zm0.381 0.0727l-0.0421 0 0 -0.1065c-0.0039,0.008 -0.0082,0.0155 -0.0127,0.0222l-0.0561 0.0842 -0.044 0 0 -0.1587 0.0423 0 0 0.1033c0.0036,-0.0072 0.0071,-0.0136 0.0105,-0.019l0.0564 -0.0843 0.0458 0 0 0.1587zm-0.0276 -0.2303c-0.0014,0.0144 -0.0068,0.0258 -0.016,0.0341 -0.0093,0.0083 -0.0211,0.0124 -0.0355,0.0124 -0.0144,0 -0.0263,-0.0042 -0.0357,-0.0127 -0.0095,-0.0085 -0.0145,-0.0197 -0.015,-0.0338l0.0265 0c0.0015,0.0141 0.0097,0.0211 0.0246,0.0211 0.0144,0 0.0225,-0.007 0.0245,-0.0211l0.0265 0zm-1.9502 0.3508l-0.0654 0.1729c-0.0152,0.0402 -0.038,0.0603 -0.0683,0.0603 -0.0119,0 -0.0212,-0.0013 -0.0278,-0.0038l0 -0.0371c0.0062,0.0035 0.0131,0.0053 0.0205,0.0053 0.0126,0 0.0216,-0.0061 0.0267,-0.0184l0.0088 -0.0208 -0.0642 -0.1584 0.0514 0 0.031 0.0994c0.0019,0.006 0.0033,0.0128 0.0042,0.0202l0.0008 0c0.0007,-0.005 0.0022,-0.0117 0.0047,-0.0199l0.0317 -0.0997 0.0459 0zm0.1396 0.0354l-0.0554 0 0 0.1233 -0.0463 0 0 -0.1587 0.1017 0 0 0.0354zm0.0354 0.0447c0,-0.0261 0.0078,-0.0467 0.0235,-0.0616 0.0157,-0.0149 0.0367,-0.0224 0.0631,-0.0224 0.0255,0 0.0458,0.0073 0.0608,0.022 0.015,0.0147 0.0225,0.0344 0.0225,0.0592 0,0.026 -0.0077,0.0467 -0.0231,0.0621 -0.0154,0.0154 -0.0362,0.0231 -0.0625,0.0231 -0.0258,0 -0.0463,-0.0074 -0.0615,-0.0222 -0.0152,-0.0147 -0.0228,-0.0349 -0.0228,-0.0603zm0.0469 -0.0006c0,0.0316 0.0129,0.0475 0.0387,0.0475 0.0248,0 0.0372,-0.0163 0.0372,-0.0488 0,-0.031 -0.0125,-0.0465 -0.0375,-0.0465 -0.0121,0 -0.0216,0.0042 -0.0283,0.0125 -0.0068,0.0083 -0.0101,0.0201 -0.0101,0.0353zm0.3195 0.0792l-0.0465 0 0 -0.1256 -0.0281 0c-0.0062,0.0529 -0.0153,0.0874 -0.0273,0.1034 -0.0119,0.016 -0.0268,0.024 -0.0446,0.024 -0.0068,0 -0.013,-0.001 -0.0185,-0.003l0 -0.032c0.0037,0.0016 0.0075,0.0024 0.0115,0.0024 0.0092,0 0.0171,-0.0083 0.0237,-0.025 0.0066,-0.0167 0.0126,-0.051 0.0182,-0.1029l0.1116 0 0 0.1587zm0.0599 0l0 -0.1587 0.0463 0 0 0.0561 0.0419 0c0.0179,0 0.0318,0.0044 0.0417,0.0131 0.0099,0.0088 0.0149,0.021 0.0149,0.0365 0,0.016 -0.005,0.0288 -0.0148,0.0384 -0.0098,0.0097 -0.0235,0.0145 -0.0407,0.0145l-0.0892 0zm0.0463 -0.0727l0 0.0426 0.0253 0c0.017,0 0.0255,-0.0073 0.0255,-0.022 0,-0.0138 -0.0084,-0.0206 -0.0251,-0.0206l-0.0257 0z"/>
  <path class="fil7" d="M12.9054 8.5369c-0.0162,0.0079 -0.0373,0.0119 -0.0633,0.0119 -0.0335,0 -0.06,-0.01 -0.0797,-0.0301 -0.0196,-0.02 -0.0295,-0.0467 -0.0295,-0.0801 0,-0.0351 0.011,-0.0638 0.033,-0.0862 0.0219,-0.0223 0.0502,-0.0335 0.085,-0.0335 0.0218,0 0.0399,0.0028 0.0546,0.0085l0 0.0457c-0.015,-0.0088 -0.0321,-0.0132 -0.0511,-0.0132 -0.0217,0 -0.0391,0.0069 -0.0521,0.0208 -0.013,0.0139 -0.0195,0.032 -0.0195,0.0544 0,0.0218 0.0062,0.0394 0.0185,0.0526 0.0123,0.0133 0.029,0.0199 0.0501,0.0199 0.0198,0 0.0379,-0.0047 0.0541,-0.0144l0 0.0435zm0.1986 0.008l-0.0465 0 0 -0.1256 -0.0281 0c-0.0062,0.0529 -0.0153,0.0874 -0.0273,0.1034 -0.0119,0.016 -0.0268,0.024 -0.0446,0.024 -0.0068,0 -0.013,-0.001 -0.0185,-0.003l0 -0.032c0.0037,0.0016 0.0075,0.0024 0.0115,0.0024 0.0092,0 0.0171,-0.0083 0.0237,-0.025 0.0066,-0.0167 0.0126,-0.051 0.0182,-0.1029l0.1116 0 0 0.1587zm0.2148 0l-0.0421 0 0 -0.1065c-0.0039,0.008 -0.0082,0.0155 -0.0127,0.0222l-0.0561 0.0842 -0.044 0 0 -0.1587 0.0423 0 0 0.1033c0.0036,-0.0072 0.0071,-0.0136 0.0105,-0.019l0.0564 -0.0843 0.0458 0 0 0.1587zm0.1768 -0.1233l-0.043 0 0 0.1233 -0.0465 0 0 -0.1233 -0.0434 0 0 -0.0354 0.133 0 0 0.0354zm0.1996 0.1233l-0.0562 0 -0.0528 -0.0785 -0.0006 0 0 0.0785 -0.0463 0 0 -0.1587 0.0463 0 0 0.0733 0.0006 0 0.0495 -0.0733 0.0553 0 -0.0588 0.0749 0.0631 0.0838zm0.1917 0l-0.0421 0 0 -0.1065c-0.0039,0.008 -0.0082,0.0155 -0.0127,0.0222l-0.0561 0.0842 -0.044 0 0 -0.1587 0.0423 0 0 0.1033c0.0036,-0.0072 0.0071,-0.0136 0.0105,-0.019l0.0564 -0.0843 0.0458 0 0 0.1587zm0.2851 0l-0.0421 0 0 -0.1065c-0.0039,0.008 -0.0082,0.0155 -0.0127,0.0222l-0.0561 0.0842 -0.044 0 0 -0.1587 0.0423 0 0 0.1033c0.0036,-0.0072 0.0071,-0.0136 0.0105,-0.019l0.0564 -0.0843 0.0458 0 0 0.1587zm0.0513 -0.0384c0.015,0.0071 0.0304,0.0106 0.046,0.0106 0.0227,0 0.034,-0.0064 0.034,-0.0191 0,-0.0131 -0.0124,-0.0196 -0.0372,-0.0196l-0.0214 0 0 -0.0293 0.0217 0c0.0213,0 0.032,-0.0063 0.032,-0.0188 0,-0.0111 -0.0095,-0.0166 -0.0286,-0.0166 -0.0139,0 -0.0278,0.0032 -0.0419,0.0095l0 -0.0326c0.0184,-0.0055 0.035,-0.0082 0.0501,-0.0082 0.0454,0 0.068,0.0143 0.068,0.0429 0,0.0199 -0.0121,0.0321 -0.0364,0.0367l0 0.0008c0.0126,0.001 0.0226,0.0049 0.03,0.0118 0.0074,0.0069 0.0111,0.0155 0.0111,0.0257 0,0.0319 -0.0254,0.0479 -0.0762,0.0479 -0.0199,0 -0.037,-0.0025 -0.0514,-0.0074l0 -0.0343zm0.3664 0.0326c-0.0111,0.0065 -0.0268,0.0097 -0.0473,0.0097 -0.0242,0 -0.0438,-0.0073 -0.0587,-0.0221 -0.0149,-0.0147 -0.0224,-0.0338 -0.0224,-0.0573 0,-0.027 0.008,-0.0482 0.0241,-0.0638 0.0161,-0.0156 0.0375,-0.0233 0.0643,-0.0233 0.0181,0 0.0315,0.0025 0.0402,0.0074l0 0.0398c-0.0106,-0.0078 -0.0222,-0.0117 -0.0347,-0.0117 -0.0141,0 -0.0255,0.0043 -0.034,0.0129 -0.0086,0.0086 -0.0129,0.0204 -0.0129,0.0355 0,0.0145 0.0041,0.026 0.0122,0.0343 0.0081,0.0084 0.0192,0.0126 0.0332,0.0126 0.0123,0 0.0244,-0.004 0.0362,-0.0118l0 0.0376zm0.2009 0.0059l-0.0465 0 0 -0.1256 -0.0577 0 0 0.1256 -0.0463 0 0 -0.1587 0.1505 0 0 0.1587zm0.2063 0l-0.0465 0 0 -0.1256 -0.0281 0c-0.0062,0.0529 -0.0153,0.0874 -0.0273,0.1034 -0.0119,0.016 -0.0268,0.024 -0.0446,0.024 -0.0068,0 -0.013,-0.001 -0.0185,-0.003l0 -0.032c0.0037,0.0016 0.0075,0.0024 0.0115,0.0024 0.0092,0 0.0171,-0.0083 0.0237,-0.025 0.0066,-0.0167 0.0126,-0.051 0.0182,-0.1029l0.1116 0 0 0.1587zm0.0637 -0.1491c0.0072,-0.004 0.0168,-0.0072 0.0288,-0.0097 0.012,-0.0025 0.0223,-0.0037 0.0308,-0.0037 0.0444,0 0.0666,0.0222 0.0666,0.0667l0 0.0958 -0.044 0 0 -0.0231 -0.0006 0c-0.0108,0.018 -0.0266,0.027 -0.0475,0.027 -0.015,0 -0.027,-0.0043 -0.0361,-0.0128 -0.009,-0.0086 -0.0136,-0.0202 -0.0136,-0.035 0,-0.0304 0.0182,-0.0481 0.0544,-0.053l0.0436 -0.0059c0,-0.0185 -0.0096,-0.0277 -0.0288,-0.0277 -0.0189,0 -0.0368,0.0057 -0.0535,0.0172l0 -0.0357zm0.0524 0.0772c-0.0168,0.0022 -0.0251,0.0097 -0.0251,0.0227 0,0.0059 0.0021,0.0107 0.0061,0.0144 0.0041,0.0036 0.0095,0.0054 0.0164,0.0054 0.0095,0 0.0173,-0.0033 0.0234,-0.01 0.0061,-0.0067 0.0092,-0.015 0.0092,-0.0249l0 -0.0114 -0.03 0.0039zm0.1312 0.0719l0 -0.1587 0.0863 0c0.0374,0 0.0561,0.0129 0.0561,0.0387 0,0.009 -0.0029,0.0167 -0.0087,0.0232 -0.0058,0.0065 -0.0136,0.0108 -0.0233,0.0128 0.0121,0.0017 0.0213,0.0059 0.0277,0.0125 0.0064,0.0066 0.0096,0.0146 0.0096,0.024 0,0.0144 -0.0051,0.0259 -0.0154,0.0345 -0.0103,0.0087 -0.024,0.013 -0.0414,0.013l-0.091 0zm0.0462 -0.1297l0 0.0346 0.0257 0c0.0155,0 0.0233,-0.0061 0.0233,-0.0183 0,-0.0109 -0.0072,-0.0163 -0.0218,-0.0163l-0.0271 0zm0 0.0627l0 0.0374 0.03 0c0.0163,0 0.0244,-0.0065 0.0244,-0.0196 0,-0.0119 -0.0085,-0.0178 -0.0254,-0.0178l-0.029 0zm0.1573 -0.0821c0.0072,-0.004 0.0168,-0.0072 0.0288,-0.0097 0.012,-0.0025 0.0223,-0.0037 0.0308,-0.0037 0.0444,0 0.0666,0.0222 0.0666,0.0667l0 0.0958 -0.044 0 0 -0.0231 -0.0006 0c-0.0108,0.018 -0.0266,0.027 -0.0475,0.027 -0.015,0 -0.027,-0.0043 -0.0361,-0.0128 -0.009,-0.0086 -0.0136,-0.0202 -0.0136,-0.035 0,-0.0304 0.0182,-0.0481 0.0544,-0.053l0.0436 -0.0059c0,-0.0185 -0.0096,-0.0277 -0.0288,-0.0277 -0.0189,0 -0.0368,0.0057 -0.0535,0.0172l0 -0.0357zm0.0524 0.0772c-0.0168,0.0022 -0.0251,0.0097 -0.0251,0.0227 0,0.0059 0.0021,0.0107 0.0061,0.0144 0.0041,0.0036 0.0095,0.0054 0.0164,0.0054 0.0095,0 0.0173,-0.0033 0.0234,-0.01 0.0061,-0.0067 0.0092,-0.015 0.0092,-0.0249l0 -0.0114 -0.03 0.0039zm-1.5394 0.4115l-0.0418 0 0 -0.0604 -0.1429 0 0 0.0604 -0.0413 0 0 -0.0993 0.0202 0c0.0292,-0.0527 0.0454,-0.1138 0.0485,-0.1834l0.126 0 0 0.1834 0.0313 0 0 0.0993zm-0.0788 -0.0993l0 -0.1436 -0.04 0c-0.0029,0.0465 -0.0156,0.0944 -0.0382,0.1436l0.0782 0zm0.1194 -0.0397c0,-0.0261 0.0078,-0.0467 0.0235,-0.0616 0.0157,-0.0149 0.0367,-0.0224 0.0631,-0.0224 0.0255,0 0.0458,0.0073 0.0608,0.022 0.015,0.0147 0.0225,0.0344 0.0225,0.0592 0,0.026 -0.0077,0.0467 -0.0231,0.0621 -0.0154,0.0154 -0.0362,0.0231 -0.0625,0.0231 -0.0258,0 -0.0463,-0.0074 -0.0615,-0.0222 -0.0152,-0.0147 -0.0228,-0.0349 -0.0228,-0.0603zm0.0469 -0.0006c0,0.0316 0.0129,0.0475 0.0387,0.0475 0.0248,0 0.0372,-0.0163 0.0372,-0.0488 0,-0.031 -0.0125,-0.0465 -0.0375,-0.0465 -0.0121,0 -0.0216,0.0042 -0.0283,0.0125 -0.0068,0.0083 -0.0101,0.0201 -0.0101,0.0353zm0.2195 0.0601l0 0.0921 -0.0463 0 0 -0.2317 0.0463 0 0 0.0242 0.0006 0c0.0121,-0.0188 0.0293,-0.0281 0.0515,-0.0281 0.0202,0 0.036,0.0071 0.0474,0.0212 0.0114,0.0141 0.0171,0.0333 0.0171,0.0576 0,0.0265 -0.0066,0.0478 -0.0198,0.0637 -0.0132,0.016 -0.0305,0.0239 -0.052,0.0239 -0.0194,0 -0.0341,-0.0076 -0.0442,-0.023l-0.0006 0zm-0.0007 -0.0511c0,0.0113 0.0031,0.0205 0.0092,0.0277 0.0061,0.0072 0.0141,0.0108 0.0238,0.0108 0.0116,0 0.0206,-0.0045 0.027,-0.0135 0.0065,-0.009 0.0097,-0.0217 0.0097,-0.0382 0,-0.0291 -0.0113,-0.0436 -0.034,-0.0436 -0.0105,0 -0.0191,0.004 -0.0258,0.0121 -0.0067,0.008 -0.01,0.0184 -0.01,0.031l0 0.0138zm0.3085 0.0039l-0.1045 0c0.0016,0.0246 0.0165,0.0369 0.0445,0.0369 0.0175,0 0.033,-0.0043 0.0463,-0.0129l0 0.034c-0.0144,0.0081 -0.0333,0.0122 -0.0568,0.0122 -0.0252,0 -0.0449,-0.0071 -0.0589,-0.0213 -0.0141,-0.0143 -0.0211,-0.0341 -0.0211,-0.0596 0,-0.0254 0.0075,-0.0459 0.0224,-0.0618 0.0149,-0.0159 0.0337,-0.0238 0.0563,-0.0238 0.0225,0 0.0401,0.0068 0.0527,0.0204 0.0127,0.0136 0.0191,0.0324 0.0191,0.0562l0 0.0196zm-0.0432 -0.0289c0,-0.0238 -0.0096,-0.0356 -0.0289,-0.0356 -0.0079,0 -0.015,0.0033 -0.0211,0.0097 -0.0061,0.0065 -0.0099,0.0151 -0.0115,0.0259l0.0614 0z"/>
  <path class="fil7" d="M7.542 6.4922l-0.0694 0.1527c-0.0141,0.0312 -0.0274,0.0512 -0.0398,0.0601 -0.0123,0.0089 -0.0257,0.0133 -0.0402,0.0133 -0.0117,0 -0.0213,-0.0017 -0.0287,-0.0051l0 -0.0435c0.0084,0.0054 0.0171,0.0082 0.0261,0.0082 0.013,0 0.0245,-0.0106 0.0346,-0.0318l-0.0732 -0.1538 0.0538 0 0.0387 0.0924c0.0019,0.0045 0.0036,0.0103 0.0051,0.0176l0.0003 0c0.0011,-0.0052 0.0029,-0.0109 0.0054,-0.0172l0.0372 -0.0928 0.05 0zm0.1389 0.099l-0.0554 0 0 0.1233 -0.0463 0 0 -0.1587 0.1017 0 0 0.0354zm0.0354 0.0447c0,-0.0261 0.0078,-0.0467 0.0235,-0.0616 0.0157,-0.0149 0.0367,-0.0224 0.0631,-0.0224 0.0255,0 0.0458,0.0073 0.0608,0.022 0.015,0.0147 0.0225,0.0344 0.0225,0.0592 0,0.026 -0.0077,0.0467 -0.0231,0.0621 -0.0154,0.0154 -0.0362,0.0231 -0.0625,0.0231 -0.0258,0 -0.0463,-0.0074 -0.0615,-0.0222 -0.0152,-0.0147 -0.0228,-0.0349 -0.0228,-0.0603zm0.0469 -0.0006c0,0.0316 0.0129,0.0475 0.0387,0.0475 0.0248,0 0.0372,-0.0163 0.0372,-0.0488 0,-0.031 -0.0125,-0.0465 -0.0375,-0.0465 -0.0121,0 -0.0216,0.0042 -0.0283,0.0125 -0.0068,0.0083 -0.0101,0.0201 -0.0101,0.0353zm0.3195 0.0792l-0.0465 0 0 -0.1256 -0.0281 0c-0.0062,0.0529 -0.0153,0.0874 -0.0273,0.1034 -0.0119,0.016 -0.0268,0.024 -0.0446,0.024 -0.0068,0 -0.013,-0.001 -0.0185,-0.003l0 -0.032c0.0037,0.0016 0.0075,0.0024 0.0115,0.0024 0.0092,0 0.0171,-0.0083 0.0237,-0.025 0.0066,-0.0167 0.0126,-0.051 0.0182,-0.1029l0.1116 0 0 0.1587zm0.0599 0l0 -0.1587 0.0463 0 0 0.0561 0.0419 0c0.0179,0 0.0318,0.0044 0.0417,0.0131 0.0099,0.0088 0.0149,0.021 0.0149,0.0365 0,0.016 -0.005,0.0288 -0.0148,0.0384 -0.0098,0.0097 -0.0235,0.0145 -0.0407,0.0145l-0.0892 0zm0.0463 -0.0727l0 0.0426 0.0253 0c0.017,0 0.0255,-0.0073 0.0255,-0.022 0,-0.0138 -0.0084,-0.0206 -0.0251,-0.0206l-0.0257 0z"/>
  <path class="fil7" d="M12.1986 7.6314l-0.0475 0 0 -0.1807 -0.0947 0 0 0.1807 -0.0474 0 0 -0.2223 0.1896 0 0 0.2223zm0.2106 0l-0.0465 0 0 -0.1256 -0.0281 0c-0.0062,0.0529 -0.0153,0.0874 -0.0273,0.1034 -0.0119,0.016 -0.0268,0.024 -0.0446,0.024 -0.0068,0 -0.013,-0.001 -0.0185,-0.003l0 -0.032c0.0037,0.0016 0.0075,0.0024 0.0115,0.0024 0.0092,0 0.0171,-0.0083 0.0237,-0.025 0.0066,-0.0167 0.0126,-0.051 0.0182,-0.1029l0.1116 0 0 0.1587zm0.0637 -0.1491c0.0072,-0.004 0.0168,-0.0072 0.0288,-0.0097 0.012,-0.0025 0.0223,-0.0037 0.0308,-0.0037 0.0444,0 0.0666,0.0222 0.0666,0.0667l0 0.0958 -0.044 0 0 -0.0231 -0.0006 0c-0.0108,0.018 -0.0266,0.027 -0.0475,0.027 -0.015,0 -0.027,-0.0043 -0.0361,-0.0128 -0.009,-0.0086 -0.0136,-0.0202 -0.0136,-0.035 0,-0.0304 0.0182,-0.0481 0.0544,-0.053l0.0436 -0.0059c0,-0.0185 -0.0096,-0.0277 -0.0288,-0.0277 -0.0189,0 -0.0368,0.0057 -0.0535,0.0172l0 -0.0357zm0.0524 0.0772c-0.0168,0.0022 -0.0251,0.0097 -0.0251,0.0227 0,0.0059 0.0021,0.0107 0.0061,0.0144 0.0041,0.0036 0.0095,0.0054 0.0164,0.0054 0.0095,0 0.0173,-0.0033 0.0234,-0.01 0.0061,-0.0067 0.0092,-0.015 0.0092,-0.0249l0 -0.0114 -0.03 0.0039zm0.1312 0.0719l0 -0.1587 0.0863 0c0.0374,0 0.0561,0.0129 0.0561,0.0387 0,0.009 -0.0029,0.0167 -0.0087,0.0232 -0.0058,0.0065 -0.0136,0.0108 -0.0233,0.0128 0.0121,0.0017 0.0213,0.0059 0.0277,0.0125 0.0064,0.0066 0.0096,0.0146 0.0096,0.024 0,0.0144 -0.0051,0.0259 -0.0154,0.0345 -0.0103,0.0087 -0.024,0.013 -0.0414,0.013l-0.091 0zm0.0462 -0.1297l0 0.0346 0.0257 0c0.0155,0 0.0233,-0.0061 0.0233,-0.0183 0,-0.0109 -0.0072,-0.0163 -0.0218,-0.0163l-0.0271 0zm0 0.0627l0 0.0374 0.03 0c0.0163,0 0.0244,-0.0065 0.0244,-0.0196 0,-0.0119 -0.0085,-0.0178 -0.0254,-0.0178l-0.029 0zm0.2997 0.067l-0.0465 0 0 -0.1256 -0.0281 0c-0.0062,0.0529 -0.0153,0.0874 -0.0273,0.1034 -0.0119,0.016 -0.0268,0.024 -0.0446,0.024 -0.0068,0 -0.013,-0.001 -0.0185,-0.003l0 -0.032c0.0037,0.0016 0.0075,0.0024 0.0115,0.0024 0.0092,0 0.0171,-0.0083 0.0237,-0.025 0.0066,-0.0167 0.0126,-0.051 0.0182,-0.1029l0.1116 0 0 0.1587zm0.2008 -0.0663l-0.1045 0c0.0016,0.0246 0.0165,0.0369 0.0445,0.0369 0.0175,0 0.033,-0.0043 0.0463,-0.0129l0 0.034c-0.0144,0.0081 -0.0333,0.0122 -0.0568,0.0122 -0.0252,0 -0.0449,-0.0071 -0.0589,-0.0213 -0.0141,-0.0143 -0.0211,-0.0341 -0.0211,-0.0596 0,-0.0254 0.0075,-0.0459 0.0224,-0.0618 0.0149,-0.0159 0.0337,-0.0238 0.0563,-0.0238 0.0225,0 0.0401,0.0068 0.0527,0.0204 0.0127,0.0136 0.0191,0.0324 0.0191,0.0562l0 0.0196zm-0.0432 -0.0289c0,-0.0238 -0.0096,-0.0356 -0.0289,-0.0356 -0.0079,0 -0.015,0.0033 -0.0211,0.0097 -0.0061,0.0065 -0.0099,0.0151 -0.0115,0.0259l0.0614 0zm0.2413 0.0953l-0.0465 0 0 -0.067 -0.0577 0 0 0.067 -0.0463 0 0 -0.1587 0.0463 0 0 0.0594 0.0577 0 0 -0.0594 0.0465 0 0 0.1587zm0.2149 0l-0.0421 0 0 -0.1065c-0.0039,0.008 -0.0082,0.0155 -0.0127,0.0222l-0.0561 0.0842 -0.044 0 0 -0.1587 0.0423 0 0 0.1033c0.0036,-0.0072 0.0071,-0.0136 0.0105,-0.019l0.0564 -0.0843 0.0458 0 0 0.1587zm0.201 -0.0663l-0.1045 0c0.0016,0.0246 0.0165,0.0369 0.0445,0.0369 0.0175,0 0.033,-0.0043 0.0463,-0.0129l0 0.034c-0.0144,0.0081 -0.0333,0.0122 -0.0568,0.0122 -0.0252,0 -0.0449,-0.0071 -0.0589,-0.0213 -0.0141,-0.0143 -0.0211,-0.0341 -0.0211,-0.0596 0,-0.0254 0.0075,-0.0459 0.0224,-0.0618 0.0149,-0.0159 0.0337,-0.0238 0.0563,-0.0238 0.0225,0 0.0401,0.0068 0.0527,0.0204 0.0127,0.0136 0.0191,0.0324 0.0191,0.0562l0 0.0196zm-0.0432 -0.0289c0,-0.0238 -0.0096,-0.0356 -0.0289,-0.0356 -0.0079,0 -0.015,0.0033 -0.0211,0.0097 -0.0061,0.0065 -0.0099,0.0151 -0.0115,0.0259l0.0614 0z"/>
  <path class="fil7" d="M13.5272 5.1484c-0.0162,0.0079 -0.0373,0.0119 -0.0633,0.0119 -0.0335,0 -0.06,-0.01 -0.0797,-0.0301 -0.0196,-0.02 -0.0295,-0.0467 -0.0295,-0.0801 0,-0.0351 0.011,-0.0638 0.033,-0.0862 0.0219,-0.0223 0.0502,-0.0335 0.085,-0.0335 0.0218,0 0.0399,0.0028 0.0546,0.0085l0 0.0457c-0.015,-0.0088 -0.0321,-0.0132 -0.0511,-0.0132 -0.0217,0 -0.0391,0.0069 -0.0521,0.0208 -0.013,0.0139 -0.0195,0.032 -0.0195,0.0544 0,0.0218 0.0062,0.0394 0.0185,0.0526 0.0123,0.0133 0.029,0.0199 0.0501,0.0199 0.0198,0 0.0379,-0.0047 0.0541,-0.0144l0 0.0435zm0.1908 -0.1933c-0.0048,0.0036 -0.0115,0.0061 -0.0199,0.0074 -0.0259,0.004 -0.0425,0.0072 -0.0498,0.0094 -0.0073,0.0023 -0.0136,0.007 -0.0187,0.0141 -0.0051,0.0072 -0.0086,0.0195 -0.0104,0.0369l0.0007 0c0.0118,-0.0142 0.0277,-0.0212 0.0479,-0.0212 0.022,0 0.0394,0.0067 0.0521,0.0202 0.0127,0.0135 0.0191,0.032 0.0191,0.0557 0,0.025 -0.0077,0.0451 -0.023,0.0601 -0.0153,0.015 -0.0358,0.0225 -0.0614,0.0225 -0.0272,0 -0.0479,-0.0088 -0.0621,-0.0263 -0.0143,-0.0175 -0.0214,-0.0429 -0.0214,-0.0761 0,-0.0253 0.0028,-0.0465 0.0086,-0.0635 0.0057,-0.017 0.013,-0.0297 0.0219,-0.0382 0.0089,-0.0085 0.0183,-0.0144 0.0282,-0.0177 0.0099,-0.0033 0.0243,-0.0064 0.0433,-0.0093 0.0159,-0.0024 0.0264,-0.0044 0.0315,-0.0059 0.0052,-0.0016 0.0096,-0.0034 0.0134,-0.0055l0 0.0372zm-0.0996 0.101l-0.0001 0.0057c-0.0006,0.0224 0.0026,0.0385 0.0097,0.0482 0.007,0.0097 0.0163,0.0146 0.0277,0.0146 0.0106,0 0.0193,-0.0041 0.026,-0.0123 0.0067,-0.0082 0.01,-0.0191 0.01,-0.0326 0,-0.0136 -0.0034,-0.0243 -0.0102,-0.0323 -0.0068,-0.008 -0.0159,-0.012 -0.0271,-0.012 -0.0071,0 -0.014,0.0019 -0.0206,0.0056 -0.0066,0.0037 -0.0117,0.0087 -0.0154,0.015zm0.2171 0.0812l0 0.0921 -0.0463 0 0 -0.2317 0.0463 0 0 0.0242 0.0006 0c0.0121,-0.0188 0.0293,-0.0281 0.0515,-0.0281 0.0202,0 0.036,0.0071 0.0474,0.0212 0.0114,0.0141 0.0171,0.0333 0.0171,0.0576 0,0.0265 -0.0066,0.0478 -0.0198,0.0637 -0.0132,0.016 -0.0305,0.0239 -0.052,0.0239 -0.0194,0 -0.0341,-0.0076 -0.0442,-0.023l-0.0006 0zm-0.0007 -0.0511c0,0.0113 0.0031,0.0205 0.0092,0.0277 0.0061,0.0072 0.0141,0.0108 0.0238,0.0108 0.0116,0 0.0206,-0.0045 0.027,-0.0135 0.0065,-0.009 0.0097,-0.0217 0.0097,-0.0382 0,-0.0291 -0.0113,-0.0436 -0.034,-0.0436 -0.0105,0 -0.0191,0.004 -0.0258,0.0121 -0.0067,0.008 -0.01,0.0184 -0.01,0.031l0 0.0138zm0.1581 -0.0084c0,-0.0261 0.0078,-0.0467 0.0235,-0.0616 0.0157,-0.0149 0.0367,-0.0224 0.0631,-0.0224 0.0255,0 0.0458,0.0073 0.0608,0.022 0.015,0.0147 0.0225,0.0344 0.0225,0.0592 0,0.026 -0.0077,0.0467 -0.0231,0.0621 -0.0154,0.0154 -0.0362,0.0231 -0.0625,0.0231 -0.0258,0 -0.0463,-0.0074 -0.0615,-0.0222 -0.0152,-0.0147 -0.0228,-0.0349 -0.0228,-0.0603zm0.0469 -0.0006c0,0.0316 0.0129,0.0475 0.0387,0.0475 0.0248,0 0.0372,-0.0163 0.0372,-0.0488 0,-0.031 -0.0125,-0.0465 -0.0375,-0.0465 -0.0121,0 -0.0216,0.0042 -0.0283,0.0125 -0.0068,0.0083 -0.0101,0.0201 -0.0101,0.0353zm0.2921 0.0733c-0.0111,0.0065 -0.0268,0.0097 -0.0473,0.0097 -0.0242,0 -0.0438,-0.0073 -0.0587,-0.0221 -0.0149,-0.0147 -0.0224,-0.0338 -0.0224,-0.0573 0,-0.027 0.008,-0.0482 0.0241,-0.0638 0.0161,-0.0156 0.0375,-0.0233 0.0643,-0.0233 0.0181,0 0.0315,0.0025 0.0402,0.0074l0 0.0398c-0.0106,-0.0078 -0.0222,-0.0117 -0.0347,-0.0117 -0.0141,0 -0.0255,0.0043 -0.034,0.0129 -0.0086,0.0086 -0.0129,0.0204 -0.0129,0.0355 0,0.0145 0.0041,0.026 0.0122,0.0343 0.0081,0.0084 0.0192,0.0126 0.0332,0.0126 0.0123,0 0.0244,-0.004 0.0362,-0.0118l0 0.0376zm-1.7323 0.2453c0,-0.0261 0.0078,-0.0467 0.0235,-0.0616 0.0157,-0.0149 0.0367,-0.0224 0.0631,-0.0224 0.0255,0 0.0458,0.0073 0.0608,0.022 0.015,0.0147 0.0225,0.0344 0.0225,0.0592 0,0.026 -0.0077,0.0467 -0.0231,0.0621 -0.0154,0.0154 -0.0362,0.0231 -0.0625,0.0231 -0.0258,0 -0.0463,-0.0074 -0.0615,-0.0222 -0.0152,-0.0147 -0.0228,-0.0349 -0.0228,-0.0603zm0.0469 -0.0006c0,0.0316 0.0129,0.0475 0.0387,0.0475 0.0248,0 0.0372,-0.0163 0.0372,-0.0488 0,-0.031 -0.0125,-0.0465 -0.0375,-0.0465 -0.0121,0 -0.0216,0.0042 -0.0283,0.0125 -0.0068,0.0083 -0.0101,0.0201 -0.0101,0.0353zm0.2899 -0.0441l-0.043 0 0 0.1233 -0.0465 0 0 -0.1233 -0.0434 0 0 -0.0354 0.133 0 0 0.0354zm0.0899 0.1042l0 0.0921 -0.0463 0 0 -0.2317 0.0463 0 0 0.0242 0.0006 0c0.0121,-0.0188 0.0293,-0.0281 0.0515,-0.0281 0.0202,0 0.036,0.0071 0.0474,0.0212 0.0114,0.0141 0.0171,0.0333 0.0171,0.0576 0,0.0265 -0.0066,0.0478 -0.0198,0.0637 -0.0132,0.016 -0.0305,0.0239 -0.052,0.0239 -0.0194,0 -0.0341,-0.0076 -0.0442,-0.023l-0.0006 0zm-0.0007 -0.0511c0,0.0113 0.0031,0.0205 0.0092,0.0277 0.0061,0.0072 0.0141,0.0108 0.0238,0.0108 0.0116,0 0.0206,-0.0045 0.027,-0.0135 0.0065,-0.009 0.0097,-0.0217 0.0097,-0.0382 0,-0.0291 -0.0113,-0.0436 -0.034,-0.0436 -0.0105,0 -0.0191,0.004 -0.0258,0.0121 -0.0067,0.008 -0.01,0.0184 -0.01,0.031l0 0.0138zm0.1715 -0.0789c0.0072,-0.004 0.0168,-0.0072 0.0288,-0.0097 0.012,-0.0025 0.0223,-0.0037 0.0308,-0.0037 0.0444,0 0.0666,0.0222 0.0666,0.0667l0 0.0958 -0.044 0 0 -0.0231 -0.0006 0c-0.0108,0.018 -0.0266,0.027 -0.0475,0.027 -0.015,0 -0.027,-0.0043 -0.0361,-0.0128 -0.009,-0.0086 -0.0136,-0.0202 -0.0136,-0.035 0,-0.0304 0.0182,-0.0481 0.0544,-0.053l0.0436 -0.0059c0,-0.0185 -0.0096,-0.0277 -0.0288,-0.0277 -0.0189,0 -0.0368,0.0057 -0.0535,0.0172l0 -0.0357zm0.0524 0.0772c-0.0168,0.0022 -0.0251,0.0097 -0.0251,0.0227 0,0.0059 0.0021,0.0107 0.0061,0.0144 0.0041,0.0036 0.0095,0.0054 0.0164,0.0054 0.0095,0 0.0173,-0.0033 0.0234,-0.01 0.0061,-0.0067 0.0092,-0.015 0.0092,-0.0249l0 -0.0114 -0.03 0.0039zm0.2696 -0.1294c-0.0048,0.0036 -0.0115,0.0061 -0.0199,0.0074 -0.0259,0.004 -0.0425,0.0072 -0.0498,0.0094 -0.0073,0.0023 -0.0136,0.007 -0.0187,0.0141 -0.0051,0.0072 -0.0086,0.0195 -0.0104,0.0369l0.0007 0c0.0118,-0.0142 0.0277,-0.0212 0.0479,-0.0212 0.022,0 0.0394,0.0067 0.0521,0.0202 0.0127,0.0135 0.0191,0.032 0.0191,0.0557 0,0.025 -0.0077,0.0451 -0.023,0.0601 -0.0153,0.015 -0.0358,0.0225 -0.0614,0.0225 -0.0272,0 -0.0479,-0.0088 -0.0621,-0.0263 -0.0143,-0.0175 -0.0214,-0.0429 -0.0214,-0.0761 0,-0.0253 0.0028,-0.0465 0.0086,-0.0635 0.0057,-0.017 0.013,-0.0297 0.0219,-0.0382 0.0089,-0.0085 0.0183,-0.0144 0.0282,-0.0177 0.0099,-0.0033 0.0243,-0.0064 0.0433,-0.0093 0.0159,-0.0024 0.0264,-0.0044 0.0315,-0.0059 0.0052,-0.0016 0.0096,-0.0034 0.0134,-0.0055l0 0.0372zm-0.0996 0.101l-0.0001 0.0057c-0.0006,0.0224 0.0026,0.0385 0.0097,0.0482 0.007,0.0097 0.0163,0.0146 0.0277,0.0146 0.0106,0 0.0193,-0.0041 0.026,-0.0123 0.0067,-0.0082 0.01,-0.0191 0.01,-0.0326 0,-0.0136 -0.0034,-0.0243 -0.0102,-0.0323 -0.0068,-0.008 -0.0159,-0.012 -0.0271,-0.012 -0.0071,0 -0.014,0.0019 -0.0206,0.0056 -0.0066,0.0037 -0.0117,0.0087 -0.0154,0.015zm0.1612 0.0217c0,-0.0261 0.0078,-0.0467 0.0235,-0.0616 0.0157,-0.0149 0.0367,-0.0224 0.0631,-0.0224 0.0255,0 0.0458,0.0073 0.0608,0.022 0.015,0.0147 0.0225,0.0344 0.0225,0.0592 0,0.026 -0.0077,0.0467 -0.0231,0.0621 -0.0154,0.0154 -0.0362,0.0231 -0.0625,0.0231 -0.0258,0 -0.0463,-0.0074 -0.0615,-0.0222 -0.0152,-0.0147 -0.0228,-0.0349 -0.0228,-0.0603zm0.0469 -0.0006c0,0.0316 0.0129,0.0475 0.0387,0.0475 0.0248,0 0.0372,-0.0163 0.0372,-0.0488 0,-0.031 -0.0125,-0.0465 -0.0375,-0.0465 -0.0121,0 -0.0216,0.0042 -0.0283,0.0125 -0.0068,0.0083 -0.0101,0.0201 -0.0101,0.0353zm0.2899 -0.0441l-0.043 0 0 0.1233 -0.0465 0 0 -0.1233 -0.0434 0 0 -0.0354 0.133 0 0 0.0354zm0.0475 -0.0258c0.0072,-0.004 0.0168,-0.0072 0.0288,-0.0097 0.012,-0.0025 0.0223,-0.0037 0.0308,-0.0037 0.0444,0 0.0666,0.0222 0.0666,0.0667l0 0.0958 -0.044 0 0 -0.0231 -0.0006 0c-0.0108,0.018 -0.0266,0.027 -0.0475,0.027 -0.015,0 -0.027,-0.0043 -0.0361,-0.0128 -0.009,-0.0086 -0.0136,-0.0202 -0.0136,-0.035 0,-0.0304 0.0182,-0.0481 0.0544,-0.053l0.0436 -0.0059c0,-0.0185 -0.0096,-0.0277 -0.0288,-0.0277 -0.0189,0 -0.0368,0.0057 -0.0535,0.0172l0 -0.0357zm0.0524 0.0772c-0.0168,0.0022 -0.0251,0.0097 -0.0251,0.0227 0,0.0059 0.0021,0.0107 0.0061,0.0144 0.0041,0.0036 0.0095,0.0054 0.0164,0.0054 0.0095,0 0.0173,-0.0033 0.0234,-0.01 0.0061,-0.0067 0.0092,-0.015 0.0092,-0.0249l0 -0.0114 -0.03 0.0039zm0.2815 0.0719l-0.0465 0 0 -0.067 -0.0577 0 0 0.067 -0.0463 0 0 -0.1587 0.0463 0 0 0.0594 0.0577 0 0 -0.0594 0.0465 0 0 0.1587zm0.2105 0l-0.0465 0 0 -0.067 -0.0577 0 0 0.067 -0.0463 0 0 -0.1587 0.0463 0 0 0.0594 0.0577 0 0 -0.0594 0.0465 0 0 0.1587zm0.0505 -0.0786c0,-0.0261 0.0078,-0.0467 0.0235,-0.0616 0.0157,-0.0149 0.0367,-0.0224 0.0631,-0.0224 0.0255,0 0.0458,0.0073 0.0608,0.022 0.015,0.0147 0.0225,0.0344 0.0225,0.0592 0,0.026 -0.0077,0.0467 -0.0231,0.0621 -0.0154,0.0154 -0.0362,0.0231 -0.0625,0.0231 -0.0258,0 -0.0463,-0.0074 -0.0615,-0.0222 -0.0152,-0.0147 -0.0228,-0.0349 -0.0228,-0.0603zm0.0469 -0.0006c0,0.0316 0.0129,0.0475 0.0387,0.0475 0.0248,0 0.0372,-0.0163 0.0372,-0.0488 0,-0.031 -0.0125,-0.0465 -0.0375,-0.0465 -0.0121,0 -0.0216,0.0042 -0.0283,0.0125 -0.0068,0.0083 -0.0101,0.0201 -0.0101,0.0353zm0.2749 -0.0441l-0.0554 0 0 0.1233 -0.0463 0 0 -0.1587 0.1017 0 0 0.0354zm0.0354 0.0447c0,-0.0261 0.0078,-0.0467 0.0235,-0.0616 0.0157,-0.0149 0.0367,-0.0224 0.0631,-0.0224 0.0255,0 0.0458,0.0073 0.0608,0.022 0.015,0.0147 0.0225,0.0344 0.0225,0.0592 0,0.026 -0.0077,0.0467 -0.0231,0.0621 -0.0154,0.0154 -0.0362,0.0231 -0.0625,0.0231 -0.0258,0 -0.0463,-0.0074 -0.0615,-0.0222 -0.0152,-0.0147 -0.0228,-0.0349 -0.0228,-0.0603zm0.0469 -0.0006c0,0.0316 0.0129,0.0475 0.0387,0.0475 0.0248,0 0.0372,-0.0163 0.0372,-0.0488 0,-0.031 -0.0125,-0.0465 -0.0375,-0.0465 -0.0121,0 -0.0216,0.0042 -0.0283,0.0125 -0.0068,0.0083 -0.0101,0.0201 -0.0101,0.0353zm-1.815 0.3781l0 0.0921 -0.0463 0 0 -0.2317 0.0463 0 0 0.0242 0.0006 0c0.0121,-0.0188 0.0293,-0.0281 0.0515,-0.0281 0.0202,0 0.036,0.0071 0.0474,0.0212 0.0114,0.0141 0.0171,0.0333 0.0171,0.0576 0,0.0265 -0.0066,0.0478 -0.0198,0.0637 -0.0132,0.016 -0.0305,0.0239 -0.052,0.0239 -0.0194,0 -0.0341,-0.0076 -0.0442,-0.023l-0.0006 0zm-0.0007 -0.0511c0,0.0113 0.0031,0.0205 0.0092,0.0277 0.0061,0.0072 0.0141,0.0108 0.0238,0.0108 0.0116,0 0.0206,-0.0045 0.027,-0.0135 0.0065,-0.009 0.0097,-0.0217 0.0097,-0.0382 0,-0.0291 -0.0113,-0.0436 -0.034,-0.0436 -0.0105,0 -0.0191,0.004 -0.0258,0.0121 -0.0067,0.008 -0.01,0.0184 -0.01,0.031l0 0.0138zm0.1715 -0.0789c0.0072,-0.004 0.0168,-0.0072 0.0288,-0.0097 0.012,-0.0025 0.0223,-0.0037 0.0308,-0.0037 0.0444,0 0.0666,0.0222 0.0666,0.0667l0 0.0958 -0.044 0 0 -0.0231 -0.0006 0c-0.0108,0.018 -0.0266,0.027 -0.0475,0.027 -0.015,0 -0.027,-0.0043 -0.0361,-0.0128 -0.009,-0.0086 -0.0136,-0.0202 -0.0136,-0.035 0,-0.0304 0.0182,-0.0481 0.0544,-0.053l0.0436 -0.0059c0,-0.0185 -0.0096,-0.0277 -0.0288,-0.0277 -0.0189,0 -0.0368,0.0057 -0.0535,0.0172l0 -0.0357zm0.0524 0.0772c-0.0168,0.0022 -0.0251,0.0097 -0.0251,0.0227 0,0.0059 0.0021,0.0107 0.0061,0.0144 0.0041,0.0036 0.0095,0.0054 0.0164,0.0054 0.0095,0 0.0173,-0.0033 0.0234,-0.01 0.0061,-0.0067 0.0092,-0.015 0.0092,-0.0249l0 -0.0114 -0.03 0.0039zm0.2499 0.066c-0.0111,0.0065 -0.0268,0.0097 -0.0473,0.0097 -0.0242,0 -0.0438,-0.0073 -0.0587,-0.0221 -0.0149,-0.0147 -0.0224,-0.0338 -0.0224,-0.0573 0,-0.027 0.008,-0.0482 0.0241,-0.0638 0.0161,-0.0156 0.0375,-0.0233 0.0643,-0.0233 0.0181,0 0.0315,0.0025 0.0402,0.0074l0 0.0398c-0.0106,-0.0078 -0.0222,-0.0117 -0.0347,-0.0117 -0.0141,0 -0.0255,0.0043 -0.034,0.0129 -0.0086,0.0086 -0.0129,0.0204 -0.0129,0.0355 0,0.0145 0.0041,0.026 0.0122,0.0343 0.0081,0.0084 0.0192,0.0126 0.0332,0.0126 0.0123,0 0.0244,-0.004 0.0362,-0.0118l0 0.0376zm0.1671 -0.1174l-0.043 0 0 0.1233 -0.0465 0 0 -0.1233 -0.0434 0 0 -0.0354 0.133 0 0 0.0354zm0.0438 0.1233l0 -0.1587 0.0863 0c0.0374,0 0.0561,0.0129 0.0561,0.0387 0,0.009 -0.0029,0.0167 -0.0087,0.0232 -0.0058,0.0065 -0.0136,0.0108 -0.0233,0.0128 0.0121,0.0017 0.0213,0.0059 0.0277,0.0125 0.0064,0.0066 0.0096,0.0146 0.0096,0.024 0,0.0144 -0.0051,0.0259 -0.0154,0.0345 -0.0103,0.0087 -0.024,0.013 -0.0414,0.013l-0.091 0zm0.0462 -0.1297l0 0.0346 0.0257 0c0.0155,0 0.0233,-0.0061 0.0233,-0.0183 0,-0.0109 -0.0072,-0.0163 -0.0218,-0.0163l-0.0271 0zm0 0.0627l0 0.0374 0.03 0c0.0163,0 0.0244,-0.0065 0.0244,-0.0196 0,-0.0119 -0.0085,-0.0178 -0.0254,-0.0178l-0.029 0zm0.1439 -0.0116c0,-0.0261 0.0078,-0.0467 0.0235,-0.0616 0.0157,-0.0149 0.0367,-0.0224 0.0631,-0.0224 0.0255,0 0.0458,0.0073 0.0608,0.022 0.015,0.0147 0.0225,0.0344 0.0225,0.0592 0,0.026 -0.0077,0.0467 -0.0231,0.0621 -0.0154,0.0154 -0.0362,0.0231 -0.0625,0.0231 -0.0258,0 -0.0463,-0.0074 -0.0615,-0.0222 -0.0152,-0.0147 -0.0228,-0.0349 -0.0228,-0.0603zm0.0469 -0.0006c0,0.0316 0.0129,0.0475 0.0387,0.0475 0.0248,0 0.0372,-0.0163 0.0372,-0.0488 0,-0.031 -0.0125,-0.0465 -0.0375,-0.0465 -0.0121,0 -0.0216,0.0042 -0.0283,0.0125 -0.0068,0.0083 -0.0101,0.0201 -0.0101,0.0353zm0.2195 0.0601l0 0.0921 -0.0463 0 0 -0.2317 0.0463 0 0 0.0242 0.0006 0c0.0121,-0.0188 0.0293,-0.0281 0.0515,-0.0281 0.0202,0 0.036,0.0071 0.0474,0.0212 0.0114,0.0141 0.0171,0.0333 0.0171,0.0576 0,0.0265 -0.0066,0.0478 -0.0198,0.0637 -0.0132,0.016 -0.0305,0.0239 -0.052,0.0239 -0.0194,0 -0.0341,-0.0076 -0.0442,-0.023l-0.0006 0zm-0.0007 -0.0511c0,0.0113 0.0031,0.0205 0.0092,0.0277 0.0061,0.0072 0.0141,0.0108 0.0238,0.0108 0.0116,0 0.0206,-0.0045 0.027,-0.0135 0.0065,-0.009 0.0097,-0.0217 0.0097,-0.0382 0,-0.0291 -0.0113,-0.0436 -0.034,-0.0436 -0.0105,0 -0.0191,0.004 -0.0258,0.0121 -0.0067,0.008 -0.01,0.0184 -0.01,0.031l0 0.0138zm0.1715 -0.0789c0.0072,-0.004 0.0168,-0.0072 0.0288,-0.0097 0.012,-0.0025 0.0223,-0.0037 0.0308,-0.0037 0.0444,0 0.0666,0.0222 0.0666,0.0667l0 0.0958 -0.044 0 0 -0.0231 -0.0006 0c-0.0108,0.018 -0.0266,0.027 -0.0475,0.027 -0.015,0 -0.027,-0.0043 -0.0361,-0.0128 -0.009,-0.0086 -0.0136,-0.0202 -0.0136,-0.035 0,-0.0304 0.0182,-0.0481 0.0544,-0.053l0.0436 -0.0059c0,-0.0185 -0.0096,-0.0277 -0.0288,-0.0277 -0.0189,0 -0.0368,0.0057 -0.0535,0.0172l0 -0.0357zm0.0524 0.0772c-0.0168,0.0022 -0.0251,0.0097 -0.0251,0.0227 0,0.0059 0.0021,0.0107 0.0061,0.0144 0.0041,0.0036 0.0095,0.0054 0.0164,0.0054 0.0095,0 0.0173,-0.0033 0.0234,-0.01 0.0061,-0.0067 0.0092,-0.015 0.0092,-0.0249l0 -0.0114 -0.03 0.0039z"/>
  <path class="fil7" d="M17.0033 5.0789l0 0.0775 -0.0474 0 0 -0.2223 0.0765 0c0.0553,0 0.0829,0.0234 0.0829,0.0703 0,0.0228 -0.0083,0.041 -0.025,0.0548 -0.0167,0.0137 -0.0376,0.0203 -0.0626,0.0197l-0.0244 0zm0 -0.108l0 0.0717 0.0205 0c0.0279,0 0.0418,-0.0121 0.0418,-0.0363 0,-0.0236 -0.0138,-0.0354 -0.0413,-0.0354l-0.021 0zm0.2996 0.1192l-0.1045 0c0.0016,0.0246 0.0165,0.0369 0.0445,0.0369 0.0175,0 0.033,-0.0043 0.0463,-0.0129l0 0.034c-0.0144,0.0081 -0.0333,0.0122 -0.0568,0.0122 -0.0252,0 -0.0449,-0.0071 -0.0589,-0.0213 -0.0141,-0.0143 -0.0211,-0.0341 -0.0211,-0.0596 0,-0.0254 0.0075,-0.0459 0.0224,-0.0618 0.0149,-0.0159 0.0337,-0.0238 0.0563,-0.0238 0.0225,0 0.0401,0.0068 0.0527,0.0204 0.0127,0.0136 0.0191,0.0324 0.0191,0.0562l0 0.0196zm-0.0432 -0.0289c0,-0.0238 -0.0096,-0.0356 -0.0289,-0.0356 -0.0079,0 -0.015,0.0033 -0.0211,0.0097 -0.0061,0.0065 -0.0099,0.0151 -0.0115,0.0259l0.0614 0zm0.0821 0.0568c0.015,0.0071 0.0304,0.0106 0.046,0.0106 0.0227,0 0.034,-0.0064 0.034,-0.0191 0,-0.0131 -0.0124,-0.0196 -0.0372,-0.0196l-0.0214 0 0 -0.0293 0.0217 0c0.0213,0 0.032,-0.0063 0.032,-0.0188 0,-0.0111 -0.0095,-0.0166 -0.0286,-0.0166 -0.0139,0 -0.0278,0.0032 -0.0419,0.0095l0 -0.0326c0.0184,-0.0055 0.035,-0.0082 0.0501,-0.0082 0.0454,0 0.068,0.0143 0.068,0.0429 0,0.0199 -0.0121,0.0321 -0.0364,0.0367l0 0.0008c0.0126,0.001 0.0226,0.0049 0.03,0.0118 0.0074,0.0069 0.0111,0.0155 0.0111,0.0257 0,0.0319 -0.0254,0.0479 -0.0762,0.0479 -0.0199,0 -0.037,-0.0025 -0.0514,-0.0074l0 -0.0343zm0.3184 -0.0279l-0.1045 0c0.0016,0.0246 0.0165,0.0369 0.0445,0.0369 0.0175,0 0.033,-0.0043 0.0463,-0.0129l0 0.034c-0.0144,0.0081 -0.0333,0.0122 -0.0568,0.0122 -0.0252,0 -0.0449,-0.0071 -0.0589,-0.0213 -0.0141,-0.0143 -0.0211,-0.0341 -0.0211,-0.0596 0,-0.0254 0.0075,-0.0459 0.0224,-0.0618 0.0149,-0.0159 0.0337,-0.0238 0.0563,-0.0238 0.0225,0 0.0401,0.0068 0.0527,0.0204 0.0127,0.0136 0.0191,0.0324 0.0191,0.0562l0 0.0196zm-0.0432 -0.0289c0,-0.0238 -0.0096,-0.0356 -0.0289,-0.0356 -0.0079,0 -0.015,0.0033 -0.0211,0.0097 -0.0061,0.0065 -0.0099,0.0151 -0.0115,0.0259l0.0614 0zm0.1371 0.0762l0 0.0921 -0.0463 0 0 -0.2317 0.0463 0 0 0.0242 0.0006 0c0.0121,-0.0188 0.0293,-0.0281 0.0515,-0.0281 0.0202,0 0.036,0.0071 0.0474,0.0212 0.0114,0.0141 0.0171,0.0333 0.0171,0.0576 0,0.0265 -0.0066,0.0478 -0.0198,0.0637 -0.0132,0.016 -0.0305,0.0239 -0.052,0.0239 -0.0194,0 -0.0341,-0.0076 -0.0442,-0.023l-0.0006 0zm-0.0007 -0.0511c0,0.0113 0.0031,0.0205 0.0092,0.0277 0.0061,0.0072 0.0141,0.0108 0.0238,0.0108 0.0116,0 0.0206,-0.0045 0.027,-0.0135 0.0065,-0.009 0.0097,-0.0217 0.0097,-0.0382 0,-0.0291 -0.0113,-0.0436 -0.034,-0.0436 -0.0105,0 -0.0191,0.004 -0.0258,0.0121 -0.0067,0.008 -0.01,0.0184 -0.01,0.031l0 0.0138zm0.1678 0.0702l0 -0.1587 0.0863 0c0.0374,0 0.0561,0.0129 0.0561,0.0387 0,0.009 -0.0029,0.0167 -0.0087,0.0232 -0.0058,0.0065 -0.0136,0.0108 -0.0233,0.0128 0.0121,0.0017 0.0213,0.0059 0.0277,0.0125 0.0064,0.0066 0.0096,0.0146 0.0096,0.024 0,0.0144 -0.0051,0.0259 -0.0154,0.0345 -0.0103,0.0087 -0.024,0.013 -0.0414,0.013l-0.091 0zm0.0462 -0.1297l0 0.0346 0.0257 0c0.0155,0 0.0233,-0.0061 0.0233,-0.0183 0,-0.0109 -0.0072,-0.0163 -0.0218,-0.0163l-0.0271 0zm0 0.0627l0 0.0374 0.03 0c0.0163,0 0.0244,-0.0065 0.0244,-0.0196 0,-0.0119 -0.0085,-0.0178 -0.0254,-0.0178l-0.029 0zm0.3018 -0.0917l-0.0654 0.1729c-0.0152,0.0402 -0.038,0.0603 -0.0683,0.0603 -0.0119,0 -0.0212,-0.0013 -0.0278,-0.0038l0 -0.0371c0.0062,0.0035 0.0131,0.0053 0.0205,0.0053 0.0126,0 0.0216,-0.0061 0.0267,-0.0184l0.0088 -0.0208 -0.0642 -0.1584 0.0514 0 0.031 0.0994c0.0019,0.006 0.0033,0.0128 0.0042,0.0202l0.0008 0c0.0007,-0.005 0.0022,-0.0117 0.0047,-0.0199l0.0317 -0.0997 0.0459 0zm0.0417 0.0096c0.0072,-0.004 0.0168,-0.0072 0.0288,-0.0097 0.012,-0.0025 0.0223,-0.0037 0.0308,-0.0037 0.0444,0 0.0666,0.0222 0.0666,0.0667l0 0.0958 -0.044 0 0 -0.0231 -0.0006 0c-0.0108,0.018 -0.0266,0.027 -0.0475,0.027 -0.015,0 -0.027,-0.0043 -0.0361,-0.0128 -0.009,-0.0086 -0.0136,-0.0202 -0.0136,-0.035 0,-0.0304 0.0182,-0.0481 0.0544,-0.053l0.0436 -0.0059c0,-0.0185 -0.0096,-0.0277 -0.0288,-0.0277 -0.0189,0 -0.0368,0.0057 -0.0535,0.0172l0 -0.0357zm0.0524 0.0772c-0.0168,0.0022 -0.0251,0.0097 -0.0251,0.0227 0,0.0059 0.0021,0.0107 0.0061,0.0144 0.0041,0.0036 0.0095,0.0054 0.0164,0.0054 0.0095,0 0.0173,-0.0033 0.0234,-0.01 0.0061,-0.0067 0.0092,-0.015 0.0092,-0.0249l0 -0.0114 -0.03 0.0039zm0.1774 0.0528l0 0.0921 -0.0463 0 0 -0.2317 0.0463 0 0 0.0242 0.0006 0c0.0121,-0.0188 0.0293,-0.0281 0.0515,-0.0281 0.0202,0 0.036,0.0071 0.0474,0.0212 0.0114,0.0141 0.0171,0.0333 0.0171,0.0576 0,0.0265 -0.0066,0.0478 -0.0198,0.0637 -0.0132,0.016 -0.0305,0.0239 -0.052,0.0239 -0.0194,0 -0.0341,-0.0076 -0.0442,-0.023l-0.0006 0zm-0.0007 -0.0511c0,0.0113 0.0031,0.0205 0.0092,0.0277 0.0061,0.0072 0.0141,0.0108 0.0238,0.0108 0.0116,0 0.0206,-0.0045 0.027,-0.0135 0.0065,-0.009 0.0097,-0.0217 0.0097,-0.0382 0,-0.0291 -0.0113,-0.0436 -0.034,-0.0436 -0.0105,0 -0.0191,0.004 -0.0258,0.0121 -0.0067,0.008 -0.01,0.0184 -0.01,0.031l0 0.0138zm-1.2659 0.1869c-0.0048,0.0036 -0.0115,0.0061 -0.0199,0.0074 -0.0259,0.004 -0.0425,0.0072 -0.0498,0.0094 -0.0073,0.0023 -0.0136,0.007 -0.0187,0.0141 -0.0051,0.0072 -0.0086,0.0195 -0.0104,0.0369l0.0007 0c0.0118,-0.0142 0.0277,-0.0212 0.0479,-0.0212 0.022,0 0.0394,0.0067 0.0521,0.0202 0.0127,0.0135 0.0191,0.032 0.0191,0.0557 0,0.025 -0.0077,0.0451 -0.023,0.0601 -0.0153,0.015 -0.0358,0.0225 -0.0614,0.0225 -0.0272,0 -0.0479,-0.0088 -0.0621,-0.0263 -0.0143,-0.0175 -0.0214,-0.0429 -0.0214,-0.0761 0,-0.0253 0.0028,-0.0465 0.0086,-0.0635 0.0057,-0.017 0.013,-0.0297 0.0219,-0.0382 0.0089,-0.0085 0.0183,-0.0144 0.0282,-0.0177 0.0099,-0.0033 0.0243,-0.0064 0.0433,-0.0093 0.0159,-0.0024 0.0264,-0.0044 0.0315,-0.0059 0.0052,-0.0016 0.0096,-0.0034 0.0134,-0.0055l0 0.0372zm-0.0996 0.101l-0.0001 0.0057c-0.0006,0.0224 0.0026,0.0385 0.0097,0.0482 0.007,0.0097 0.0163,0.0146 0.0277,0.0146 0.0106,0 0.0193,-0.0041 0.026,-0.0123 0.0067,-0.0082 0.01,-0.0191 0.01,-0.0326 0,-0.0136 -0.0034,-0.0243 -0.0102,-0.0323 -0.0068,-0.008 -0.0159,-0.012 -0.0271,-0.012 -0.0071,0 -0.014,0.0019 -0.0206,0.0056 -0.0066,0.0037 -0.0117,0.0087 -0.0154,0.015zm0.3117 0.034l-0.1045 0c0.0016,0.0246 0.0165,0.0369 0.0445,0.0369 0.0175,0 0.033,-0.0043 0.0463,-0.0129l0 0.034c-0.0144,0.0081 -0.0333,0.0122 -0.0568,0.0122 -0.0252,0 -0.0449,-0.0071 -0.0589,-0.0213 -0.0141,-0.0143 -0.0211,-0.0341 -0.0211,-0.0596 0,-0.0254 0.0075,-0.0459 0.0224,-0.0618 0.0149,-0.0159 0.0337,-0.0238 0.0563,-0.0238 0.0225,0 0.0401,0.0068 0.0527,0.0204 0.0127,0.0136 0.0191,0.0324 0.0191,0.0562l0 0.0196zm-0.0432 -0.0289c0,-0.0238 -0.0096,-0.0356 -0.0289,-0.0356 -0.0079,0 -0.015,0.0033 -0.0211,0.0097 -0.0061,0.0065 -0.0099,0.0151 -0.0115,0.0259l0.0614 0zm0.2558 0.1531l-0.0381 0 0 -0.0578 -0.1081 0 0 0.0578 -0.0374 0 0 -0.091 0.0142 0c0.0228,-0.0351 0.0348,-0.0769 0.0361,-0.1255l0.1082 0 0 0.1255 0.025 0 0 0.091zm-0.0715 -0.091l0 -0.0927 -0.0254 0c-0.0025,0.0346 -0.0116,0.0655 -0.0272,0.0927l0.0527 0zm0.2685 0.0332l-0.0465 0 0 -0.067 -0.0577 0 0 0.067 -0.0463 0 0 -0.1587 0.0463 0 0 0.0594 0.0577 0 0 -0.0594 0.0465 0 0 0.1587zm0.0505 -0.0786c0,-0.0261 0.0078,-0.0467 0.0235,-0.0616 0.0157,-0.0149 0.0367,-0.0224 0.0631,-0.0224 0.0255,0 0.0458,0.0073 0.0608,0.022 0.015,0.0147 0.0225,0.0344 0.0225,0.0592 0,0.026 -0.0077,0.0467 -0.0231,0.0621 -0.0154,0.0154 -0.0362,0.0231 -0.0625,0.0231 -0.0258,0 -0.0463,-0.0074 -0.0615,-0.0222 -0.0152,-0.0147 -0.0228,-0.0349 -0.0228,-0.0603zm0.0469 -0.0006c0,0.0316 0.0129,0.0475 0.0387,0.0475 0.0248,0 0.0372,-0.0163 0.0372,-0.0488 0,-0.031 -0.0125,-0.0465 -0.0375,-0.0465 -0.0121,0 -0.0216,0.0042 -0.0283,0.0125 -0.0068,0.0083 -0.0101,0.0201 -0.0101,0.0353zm0.2749 -0.0441l-0.0554 0 0 0.1233 -0.0463 0 0 -0.1587 0.1017 0 0 0.0354zm0.0354 0.0447c0,-0.0261 0.0078,-0.0467 0.0235,-0.0616 0.0157,-0.0149 0.0367,-0.0224 0.0631,-0.0224 0.0255,0 0.0458,0.0073 0.0608,0.022 0.015,0.0147 0.0225,0.0344 0.0225,0.0592 0,0.026 -0.0077,0.0467 -0.0231,0.0621 -0.0154,0.0154 -0.0362,0.0231 -0.0625,0.0231 -0.0258,0 -0.0463,-0.0074 -0.0615,-0.0222 -0.0152,-0.0147 -0.0228,-0.0349 -0.0228,-0.0603zm0.0469 -0.0006c0,0.0316 0.0129,0.0475 0.0387,0.0475 0.0248,0 0.0372,-0.0163 0.0372,-0.0488 0,-0.031 -0.0125,-0.0465 -0.0375,-0.0465 -0.0121,0 -0.0216,0.0042 -0.0283,0.0125 -0.0068,0.0083 -0.0101,0.0201 -0.0101,0.0353zm-1.245 0.3781l0 0.0921 -0.0463 0 0 -0.2317 0.0463 0 0 0.0242 0.0006 0c0.0121,-0.0188 0.0293,-0.0281 0.0515,-0.0281 0.0202,0 0.036,0.0071 0.0474,0.0212 0.0114,0.0141 0.0171,0.0333 0.0171,0.0576 0,0.0265 -0.0066,0.0478 -0.0198,0.0637 -0.0132,0.016 -0.0305,0.0239 -0.052,0.0239 -0.0194,0 -0.0341,-0.0076 -0.0442,-0.023l-0.0006 0zm-0.0007 -0.0511c0,0.0113 0.0031,0.0205 0.0092,0.0277 0.0061,0.0072 0.0141,0.0108 0.0238,0.0108 0.0116,0 0.0206,-0.0045 0.027,-0.0135 0.0065,-0.009 0.0097,-0.0217 0.0097,-0.0382 0,-0.0291 -0.0113,-0.0436 -0.034,-0.0436 -0.0105,0 -0.0191,0.004 -0.0258,0.0121 -0.0067,0.008 -0.01,0.0184 -0.01,0.031l0 0.0138zm0.1715 -0.0789c0.0072,-0.004 0.0168,-0.0072 0.0288,-0.0097 0.012,-0.0025 0.0223,-0.0037 0.0308,-0.0037 0.0444,0 0.0666,0.0222 0.0666,0.0667l0 0.0958 -0.044 0 0 -0.0231 -0.0006 0c-0.0108,0.018 -0.0266,0.027 -0.0475,0.027 -0.015,0 -0.027,-0.0043 -0.0361,-0.0128 -0.009,-0.0086 -0.0136,-0.0202 -0.0136,-0.035 0,-0.0304 0.0182,-0.0481 0.0544,-0.053l0.0436 -0.0059c0,-0.0185 -0.0096,-0.0277 -0.0288,-0.0277 -0.0189,0 -0.0368,0.0057 -0.0535,0.0172l0 -0.0357zm0.0524 0.0772c-0.0168,0.0022 -0.0251,0.0097 -0.0251,0.0227 0,0.0059 0.0021,0.0107 0.0061,0.0144 0.0041,0.0036 0.0095,0.0054 0.0164,0.0054 0.0095,0 0.0173,-0.0033 0.0234,-0.01 0.0061,-0.0067 0.0092,-0.015 0.0092,-0.0249l0 -0.0114 -0.03 0.0039zm0.2499 0.066c-0.0111,0.0065 -0.0268,0.0097 -0.0473,0.0097 -0.0242,0 -0.0438,-0.0073 -0.0587,-0.0221 -0.0149,-0.0147 -0.0224,-0.0338 -0.0224,-0.0573 0,-0.027 0.008,-0.0482 0.0241,-0.0638 0.0161,-0.0156 0.0375,-0.0233 0.0643,-0.0233 0.0181,0 0.0315,0.0025 0.0402,0.0074l0 0.0398c-0.0106,-0.0078 -0.0222,-0.0117 -0.0347,-0.0117 -0.0141,0 -0.0255,0.0043 -0.034,0.0129 -0.0086,0.0086 -0.0129,0.0204 -0.0129,0.0355 0,0.0145 0.0041,0.026 0.0122,0.0343 0.0081,0.0084 0.0192,0.0126 0.0332,0.0126 0.0123,0 0.0244,-0.004 0.0362,-0.0118l0 0.0376zm0.1671 -0.1174l-0.043 0 0 0.1233 -0.0465 0 0 -0.1233 -0.0434 0 0 -0.0354 0.133 0 0 0.0354zm0.0438 0.1233l0 -0.1587 0.0863 0c0.0374,0 0.0561,0.0129 0.0561,0.0387 0,0.009 -0.0029,0.0167 -0.0087,0.0232 -0.0058,0.0065 -0.0136,0.0108 -0.0233,0.0128 0.0121,0.0017 0.0213,0.0059 0.0277,0.0125 0.0064,0.0066 0.0096,0.0146 0.0096,0.024 0,0.0144 -0.0051,0.0259 -0.0154,0.0345 -0.0103,0.0087 -0.024,0.013 -0.0414,0.013l-0.091 0zm0.0462 -0.1297l0 0.0346 0.0257 0c0.0155,0 0.0233,-0.0061 0.0233,-0.0183 0,-0.0109 -0.0072,-0.0163 -0.0218,-0.0163l-0.0271 0zm0 0.0627l0 0.0374 0.03 0c0.0163,0 0.0244,-0.0065 0.0244,-0.0196 0,-0.0119 -0.0085,-0.0178 -0.0254,-0.0178l-0.029 0zm0.1439 -0.0116c0,-0.0261 0.0078,-0.0467 0.0235,-0.0616 0.0157,-0.0149 0.0367,-0.0224 0.0631,-0.0224 0.0255,0 0.0458,0.0073 0.0608,0.022 0.015,0.0147 0.0225,0.0344 0.0225,0.0592 0,0.026 -0.0077,0.0467 -0.0231,0.0621 -0.0154,0.0154 -0.0362,0.0231 -0.0625,0.0231 -0.0258,0 -0.0463,-0.0074 -0.0615,-0.0222 -0.0152,-0.0147 -0.0228,-0.0349 -0.0228,-0.0603zm0.0469 -0.0006c0,0.0316 0.0129,0.0475 0.0387,0.0475 0.0248,0 0.0372,-0.0163 0.0372,-0.0488 0,-0.031 -0.0125,-0.0465 -0.0375,-0.0465 -0.0121,0 -0.0216,0.0042 -0.0283,0.0125 -0.0068,0.0083 -0.0101,0.0201 -0.0101,0.0353zm0.2195 0.0601l0 0.0921 -0.0463 0 0 -0.2317 0.0463 0 0 0.0242 0.0006 0c0.0121,-0.0188 0.0293,-0.0281 0.0515,-0.0281 0.0202,0 0.036,0.0071 0.0474,0.0212 0.0114,0.0141 0.0171,0.0333 0.0171,0.0576 0,0.0265 -0.0066,0.0478 -0.0198,0.0637 -0.0132,0.016 -0.0305,0.0239 -0.052,0.0239 -0.0194,0 -0.0341,-0.0076 -0.0442,-0.023l-0.0006 0zm-0.0007 -0.0511c0,0.0113 0.0031,0.0205 0.0092,0.0277 0.0061,0.0072 0.0141,0.0108 0.0238,0.0108 0.0116,0 0.0206,-0.0045 0.027,-0.0135 0.0065,-0.009 0.0097,-0.0217 0.0097,-0.0382 0,-0.0291 -0.0113,-0.0436 -0.034,-0.0436 -0.0105,0 -0.0191,0.004 -0.0258,0.0121 -0.0067,0.008 -0.01,0.0184 -0.01,0.031l0 0.0138zm0.1715 -0.0789c0.0072,-0.004 0.0168,-0.0072 0.0288,-0.0097 0.012,-0.0025 0.0223,-0.0037 0.0308,-0.0037 0.0444,0 0.0666,0.0222 0.0666,0.0667l0 0.0958 -0.044 0 0 -0.0231 -0.0006 0c-0.0108,0.018 -0.0266,0.027 -0.0475,0.027 -0.015,0 -0.027,-0.0043 -0.0361,-0.0128 -0.009,-0.0086 -0.0136,-0.0202 -0.0136,-0.035 0,-0.0304 0.0182,-0.0481 0.0544,-0.053l0.0436 -0.0059c0,-0.0185 -0.0096,-0.0277 -0.0288,-0.0277 -0.0189,0 -0.0368,0.0057 -0.0535,0.0172l0 -0.0357zm0.0524 0.0772c-0.0168,0.0022 -0.0251,0.0097 -0.0251,0.0227 0,0.0059 0.0021,0.0107 0.0061,0.0144 0.0041,0.0036 0.0095,0.0054 0.0164,0.0054 0.0095,0 0.0173,-0.0033 0.0234,-0.01 0.0061,-0.0067 0.0092,-0.015 0.0092,-0.0249l0 -0.0114 -0.03 0.0039z"/>
  <path class="fil7" d="M16.4295 1.1677l-0.0418 0 0 -0.0604 -0.1429 0 0 0.0604 -0.0413 0 0 -0.0993 0.0202 0c0.0292,-0.0527 0.0454,-0.1138 0.0485,-0.1834l0.126 0 0 0.1834 0.0313 0 0 0.0993zm-0.0788 -0.0993l0 -0.1436 -0.04 0c-0.0029,0.0465 -0.0156,0.0944 -0.0382,0.1436l0.0782 0zm0.1194 -0.0397c0,-0.0261 0.0078,-0.0467 0.0235,-0.0616 0.0157,-0.0149 0.0367,-0.0224 0.0631,-0.0224 0.0255,0 0.0458,0.0073 0.0608,0.022 0.015,0.0147 0.0225,0.0344 0.0225,0.0592 0,0.026 -0.0077,0.0467 -0.0231,0.0621 -0.0154,0.0154 -0.0362,0.0231 -0.0625,0.0231 -0.0258,0 -0.0463,-0.0074 -0.0615,-0.0222 -0.0152,-0.0147 -0.0228,-0.0349 -0.0228,-0.0603zm0.0469 -0.0006c0,0.0316 0.0129,0.0475 0.0387,0.0475 0.0248,0 0.0372,-0.0163 0.0372,-0.0488 0,-0.031 -0.0125,-0.0465 -0.0375,-0.0465 -0.0121,0 -0.0216,0.0042 -0.0283,0.0125 -0.0068,0.0083 -0.0101,0.0201 -0.0101,0.0353zm0.3118 -0.1221c-0.0048,0.0036 -0.0115,0.0061 -0.0199,0.0074 -0.0259,0.004 -0.0425,0.0072 -0.0498,0.0094 -0.0073,0.0023 -0.0136,0.007 -0.0187,0.0141 -0.0051,0.0072 -0.0086,0.0195 -0.0104,0.0369l0.0007 0c0.0118,-0.0142 0.0277,-0.0212 0.0479,-0.0212 0.022,0 0.0394,0.0067 0.0521,0.0202 0.0127,0.0135 0.0191,0.032 0.0191,0.0557 0,0.025 -0.0077,0.0451 -0.023,0.0601 -0.0153,0.015 -0.0358,0.0225 -0.0614,0.0225 -0.0272,0 -0.0479,-0.0088 -0.0621,-0.0263 -0.0143,-0.0175 -0.0214,-0.0429 -0.0214,-0.0761 0,-0.0253 0.0028,-0.0465 0.0086,-0.0635 0.0057,-0.017 0.013,-0.0297 0.0219,-0.0382 0.0089,-0.0085 0.0183,-0.0144 0.0282,-0.0177 0.0099,-0.0033 0.0243,-0.0064 0.0433,-0.0093 0.0159,-0.0024 0.0264,-0.0044 0.0315,-0.0059 0.0052,-0.0016 0.0096,-0.0034 0.0134,-0.0055l0 0.0372zm-0.0996 0.101l-0.0001 0.0057c-0.0006,0.0224 0.0026,0.0385 0.0097,0.0482 0.007,0.0097 0.0163,0.0146 0.0277,0.0146 0.0106,0 0.0193,-0.0041 0.026,-0.0123 0.0067,-0.0082 0.01,-0.0191 0.01,-0.0326 0,-0.0136 -0.0034,-0.0243 -0.0102,-0.0323 -0.0068,-0.008 -0.0159,-0.012 -0.0271,-0.012 -0.0071,0 -0.014,0.0019 -0.0206,0.0056 -0.0066,0.0037 -0.0117,0.0087 -0.0154,0.015zm0.1746 -0.0488c0.0072,-0.004 0.0168,-0.0072 0.0288,-0.0097 0.012,-0.0025 0.0223,-0.0037 0.0308,-0.0037 0.0444,0 0.0666,0.0222 0.0666,0.0667l0 0.0958 -0.044 0 0 -0.0231 -0.0006 0c-0.0108,0.018 -0.0266,0.027 -0.0475,0.027 -0.015,0 -0.027,-0.0043 -0.0361,-0.0128 -0.009,-0.0086 -0.0136,-0.0202 -0.0136,-0.035 0,-0.0304 0.0182,-0.0481 0.0544,-0.053l0.0436 -0.0059c0,-0.0185 -0.0096,-0.0277 -0.0288,-0.0277 -0.0189,0 -0.0368,0.0057 -0.0535,0.0172l0 -0.0357zm0.0524 0.0772c-0.0168,0.0022 -0.0251,0.0097 -0.0251,0.0227 0,0.0059 0.0021,0.0107 0.0061,0.0144 0.0041,0.0036 0.0095,0.0054 0.0164,0.0054 0.0095,0 0.0173,-0.0033 0.0234,-0.01 0.0061,-0.0067 0.0092,-0.015 0.0092,-0.0249l0 -0.0114 -0.03 0.0039zm0.1312 0.0719l0 -0.1587 0.0863 0c0.0374,0 0.0561,0.0129 0.0561,0.0387 0,0.009 -0.0029,0.0167 -0.0087,0.0232 -0.0058,0.0065 -0.0136,0.0108 -0.0233,0.0128 0.0121,0.0017 0.0213,0.0059 0.0277,0.0125 0.0064,0.0066 0.0096,0.0146 0.0096,0.024 0,0.0144 -0.0051,0.0259 -0.0154,0.0345 -0.0103,0.0087 -0.024,0.013 -0.0414,0.013l-0.091 0zm0.0462 -0.1297l0 0.0346 0.0257 0c0.0155,0 0.0233,-0.0061 0.0233,-0.0183 0,-0.0109 -0.0072,-0.0163 -0.0218,-0.0163l-0.0271 0zm0 0.0627l0 0.0374 0.03 0c0.0163,0 0.0244,-0.0065 0.0244,-0.0196 0,-0.0119 -0.0085,-0.0178 -0.0254,-0.0178l-0.029 0zm0.2997 0.067l-0.0465 0 0 -0.1256 -0.0281 0c-0.0062,0.0529 -0.0153,0.0874 -0.0273,0.1034 -0.0119,0.016 -0.0268,0.024 -0.0446,0.024 -0.0068,0 -0.013,-0.001 -0.0185,-0.003l0 -0.032c0.0037,0.0016 0.0075,0.0024 0.0115,0.0024 0.0092,0 0.0171,-0.0083 0.0237,-0.025 0.0066,-0.0167 0.0126,-0.051 0.0182,-0.1029l0.1116 0 0 0.1587zm0.2008 -0.0663l-0.1045 0c0.0016,0.0246 0.0165,0.0369 0.0445,0.0369 0.0175,0 0.033,-0.0043 0.0463,-0.0129l0 0.034c-0.0144,0.0081 -0.0333,0.0122 -0.0568,0.0122 -0.0252,0 -0.0449,-0.0071 -0.0589,-0.0213 -0.0141,-0.0143 -0.0211,-0.0341 -0.0211,-0.0596 0,-0.0254 0.0075,-0.0459 0.0224,-0.0618 0.0149,-0.0159 0.0337,-0.0238 0.0563,-0.0238 0.0225,0 0.0401,0.0068 0.0527,0.0204 0.0127,0.0136 0.0191,0.0324 0.0191,0.0562l0 0.0196zm-0.0432 -0.0289c0,-0.0238 -0.0096,-0.0356 -0.0289,-0.0356 -0.0079,0 -0.015,0.0033 -0.0211,0.0097 -0.0061,0.0065 -0.0099,0.0151 -0.0115,0.0259l0.0614 0zm0.2413 0.0953l-0.0465 0 0 -0.067 -0.0577 0 0 0.067 -0.0463 0 0 -0.1587 0.0463 0 0 0.0594 0.0577 0 0 -0.0594 0.0465 0 0 0.1587zm0.2149 0l-0.0421 0 0 -0.1065c-0.0039,0.008 -0.0082,0.0155 -0.0127,0.0222l-0.0561 0.0842 -0.044 0 0 -0.1587 0.0423 0 0 0.1033c0.0036,-0.0072 0.0071,-0.0136 0.0105,-0.019l0.0564 -0.0843 0.0458 0 0 0.1587zm0.201 -0.0663l-0.1045 0c0.0016,0.0246 0.0165,0.0369 0.0445,0.0369 0.0175,0 0.033,-0.0043 0.0463,-0.0129l0 0.034c-0.0144,0.0081 -0.0333,0.0122 -0.0568,0.0122 -0.0252,0 -0.0449,-0.0071 -0.0589,-0.0213 -0.0141,-0.0143 -0.0211,-0.0341 -0.0211,-0.0596 0,-0.0254 0.0075,-0.0459 0.0224,-0.0618 0.0149,-0.0159 0.0337,-0.0238 0.0563,-0.0238 0.0225,0 0.0401,0.0068 0.0527,0.0204 0.0127,0.0136 0.0191,0.0324 0.0191,0.0562l0 0.0196zm-0.0432 -0.0289c0,-0.0238 -0.0096,-0.0356 -0.0289,-0.0356 -0.0079,0 -0.015,0.0033 -0.0211,0.0097 -0.0061,0.0065 -0.0099,0.0151 -0.0115,0.0259l0.0614 0zm-1.4739 0.2873c0,0.0293 -0.0068,0.0519 -0.0203,0.0676 -0.0135,0.0157 -0.0329,0.0235 -0.0582,0.0235 -0.0112,0 -0.0216,-0.0019 -0.0311,-0.0057l0 -0.0446c0.0082,0.0062 0.0176,0.0093 0.0281,0.0093 0.0228,0 0.0341,-0.0172 0.0341,-0.0518l0 -0.1333 0.0474 0 0 0.135zm0.058 -0.1227c0,-0.0071 0.0025,-0.0128 0.0075,-0.0173 0.005,-0.0045 0.0114,-0.0067 0.0193,-0.0067 0.008,0 0.0145,0.0022 0.0195,0.0068 0.005,0.0046 0.0074,0.0102 0.0074,0.0171 0,0.007 -0.0025,0.0128 -0.0076,0.0174 -0.005,0.0047 -0.0115,0.007 -0.0193,0.007 -0.0078,0 -0.0141,-0.0024 -0.0192,-0.0071 -0.005,-0.0047 -0.0076,-0.0105 -0.0076,-0.0173zm0.0034 0.2099l0 -0.1587 0.0462 0 0 0.1587 -0.0462 0zm0.256 0l-0.0461 0 0 -0.0885c0,-0.0256 -0.0092,-0.0384 -0.0277,-0.0384 -0.0088,0 -0.0161,0.0034 -0.0219,0.0103 -0.0058,0.0068 -0.0088,0.0156 -0.0088,0.0262l0 0.0906 -0.0463 0 0 -0.1587 0.0463 0 0 0.0252 0.0006 0c0.0116,-0.0194 0.0286,-0.0291 0.0511,-0.0291 0.0352,0 0.0528,0.0218 0.0528,0.0654l0 0.0971zm0.176 -0.0059c-0.0111,0.0065 -0.0268,0.0097 -0.0473,0.0097 -0.0242,0 -0.0438,-0.0073 -0.0587,-0.0221 -0.0149,-0.0147 -0.0224,-0.0338 -0.0224,-0.0573 0,-0.027 0.008,-0.0482 0.0241,-0.0638 0.0161,-0.0156 0.0375,-0.0233 0.0643,-0.0233 0.0181,0 0.0315,0.0025 0.0402,0.0074l0 0.0398c-0.0106,-0.0078 -0.0222,-0.0117 -0.0347,-0.0117 -0.0141,0 -0.0255,0.0043 -0.034,0.0129 -0.0086,0.0086 -0.0129,0.0204 -0.0129,0.0355 0,0.0145 0.0041,0.026 0.0122,0.0343 0.0081,0.0084 0.0192,0.0126 0.0332,0.0126 0.0123,0 0.0244,-0.004 0.0362,-0.0118l0 0.0376zm0.2003 0.0059l-0.0462 0 0 -0.0904c0,-0.0244 -0.0089,-0.0366 -0.0267,-0.0366 -0.0089,0 -0.0163,0.0034 -0.022,0.0102 -0.0058,0.0068 -0.0087,0.0156 -0.0087,0.0264l0 0.0904 -0.0463 0 0 -0.2349 0.0463 0 0 0.1 0.0006 0c0.0121,-0.0185 0.0285,-0.0277 0.0491,-0.0277 0.0359,0 0.0539,0.0217 0.0539,0.0651l0 0.0974zm0.0611 -0.1491c0.0072,-0.004 0.0168,-0.0072 0.0288,-0.0097 0.012,-0.0025 0.0223,-0.0037 0.0308,-0.0037 0.0444,0 0.0666,0.0222 0.0666,0.0667l0 0.0958 -0.044 0 0 -0.0231 -0.0006 0c-0.0108,0.018 -0.0266,0.027 -0.0475,0.027 -0.015,0 -0.027,-0.0043 -0.0361,-0.0128 -0.009,-0.0086 -0.0136,-0.0202 -0.0136,-0.035 0,-0.0304 0.0182,-0.0481 0.0544,-0.053l0.0436 -0.0059c0,-0.0185 -0.0096,-0.0277 -0.0288,-0.0277 -0.0189,0 -0.0368,0.0057 -0.0535,0.0172l0 -0.0357zm0.0524 0.0772c-0.0168,0.0022 -0.0251,0.0097 -0.0251,0.0227 0,0.0059 0.0021,0.0107 0.0061,0.0144 0.0041,0.0036 0.0095,0.0054 0.0164,0.0054 0.0095,0 0.0173,-0.0033 0.0234,-0.01 0.0061,-0.0067 0.0092,-0.015 0.0092,-0.0249l0 -0.0114 -0.03 0.0039zm0.2818 0.0719l-0.0461 0 0 -0.0885c0,-0.0256 -0.0092,-0.0384 -0.0277,-0.0384 -0.0088,0 -0.0161,0.0034 -0.0219,0.0103 -0.0058,0.0068 -0.0088,0.0156 -0.0088,0.0262l0 0.0906 -0.0463 0 0 -0.1587 0.0463 0 0 0.0252 0.0006 0c0.0116,-0.0194 0.0286,-0.0291 0.0511,-0.0291 0.0352,0 0.0528,0.0218 0.0528,0.0654l0 0.0971z"/>
  <path class="fil7" d="M10.8766 0.1448l0 0.0775 -0.0474 0 0 -0.2223 0.0765 0c0.0553,0 0.0829,0.0234 0.0829,0.0703 0,0.0228 -0.0083,0.041 -0.025,0.0548 -0.0167,0.0137 -0.0376,0.0203 -0.0626,0.0197l-0.0244 0zm0 -0.108l0 0.0717 0.0205 0c0.0279,0 0.0418,-0.0121 0.0418,-0.0363 0,-0.0236 -0.0138,-0.0354 -0.0413,-0.0354l-0.021 0zm0.1626 0.0364c0.0072,-0.004 0.0168,-0.0072 0.0288,-0.0097 0.012,-0.0025 0.0223,-0.0037 0.0308,-0.0037 0.0444,0 0.0666,0.0222 0.0666,0.0667l0 0.0958 -0.044 0 0 -0.0231 -0.0006 0c-0.0108,0.018 -0.0266,0.027 -0.0475,0.027 -0.015,0 -0.027,-0.0043 -0.0361,-0.0128 -0.009,-0.0086 -0.0136,-0.0202 -0.0136,-0.035 0,-0.0304 0.0182,-0.0481 0.0544,-0.053l0.0436 -0.0059c0,-0.0185 -0.0096,-0.0277 -0.0288,-0.0277 -0.0189,0 -0.0368,0.0057 -0.0535,0.0172l0 -0.0357zm0.0524 0.0772c-0.0168,0.0022 -0.0251,0.0097 -0.0251,0.0227 0,0.0059 0.0021,0.0107 0.0061,0.0144 0.0041,0.0036 0.0095,0.0054 0.0164,0.0054 0.0095,0 0.0173,-0.0033 0.0234,-0.01 0.0061,-0.0067 0.0092,-0.015 0.0092,-0.0249l0 -0.0114 -0.03 0.0039zm0.2499 0.066c-0.0111,0.0065 -0.0268,0.0097 -0.0473,0.0097 -0.0242,0 -0.0438,-0.0073 -0.0587,-0.0221 -0.0149,-0.0147 -0.0224,-0.0338 -0.0224,-0.0573 0,-0.027 0.008,-0.0482 0.0241,-0.0638 0.0161,-0.0156 0.0375,-0.0233 0.0643,-0.0233 0.0181,0 0.0315,0.0025 0.0402,0.0074l0 0.0398c-0.0106,-0.0078 -0.0222,-0.0117 -0.0347,-0.0117 -0.0141,0 -0.0255,0.0043 -0.034,0.0129 -0.0086,0.0086 -0.0129,0.0204 -0.0129,0.0355 0,0.0145 0.0041,0.026 0.0122,0.0343 0.0081,0.0084 0.0192,0.0126 0.0332,0.0126 0.0123,0 0.0244,-0.004 0.0362,-0.0118l0 0.0376zm0.2009 0.0059l-0.0465 0 0 -0.1256 -0.0577 0 0 0.1256 -0.0463 0 0 -0.1587 0.1505 0 0 0.1587zm0.2725 0l-0.0465 0 0 -0.1587 0.0465 0 0 0.1587zm-0.2125 0l0 -0.1587 0.0463 0 0 0.0561 0.0419 0c0.0179,0 0.0318,0.0044 0.0417,0.0131 0.0099,0.0088 0.0149,0.021 0.0149,0.0365 0,0.016 -0.005,0.0288 -0.0148,0.0384 -0.0098,0.0097 -0.0235,0.0145 -0.0407,0.0145l-0.0892 0zm0.0463 -0.0727l0 0.0426 0.0253 0c0.017,0 0.0255,-0.0073 0.0255,-0.022 0,-0.0138 -0.0084,-0.0206 -0.0251,-0.0206l-0.0257 0zm0.3723 0.0727l-0.0465 0 0 -0.1256 -0.0281 0c-0.0062,0.0529 -0.0153,0.0874 -0.0273,0.1034 -0.0119,0.016 -0.0268,0.024 -0.0446,0.024 -0.0068,0 -0.013,-0.001 -0.0185,-0.003l0 -0.032c0.0037,0.0016 0.0075,0.0024 0.0115,0.0024 0.0092,0 0.0171,-0.0083 0.0237,-0.025 0.0066,-0.0167 0.0126,-0.051 0.0182,-0.1029l0.1116 0 0 0.1587zm0.2008 -0.0663l-0.1045 0c0.0016,0.0246 0.0165,0.0369 0.0445,0.0369 0.0175,0 0.033,-0.0043 0.0463,-0.0129l0 0.034c-0.0144,0.0081 -0.0333,0.0122 -0.0568,0.0122 -0.0252,0 -0.0449,-0.0071 -0.0589,-0.0213 -0.0141,-0.0143 -0.0211,-0.0341 -0.0211,-0.0596 0,-0.0254 0.0075,-0.0459 0.0224,-0.0618 0.0149,-0.0159 0.0337,-0.0238 0.0563,-0.0238 0.0225,0 0.0401,0.0068 0.0527,0.0204 0.0127,0.0136 0.0191,0.0324 0.0191,0.0562l0 0.0196zm-0.0432 -0.0289c0,-0.0238 -0.0096,-0.0356 -0.0289,-0.0356 -0.0079,0 -0.015,0.0033 -0.0211,0.0097 -0.0061,0.0065 -0.0099,0.0151 -0.0115,0.0259l0.0614 0zm0.2413 0.0953l-0.0465 0 0 -0.067 -0.0577 0 0 0.067 -0.0463 0 0 -0.1587 0.0463 0 0 0.0594 0.0577 0 0 -0.0594 0.0465 0 0 0.1587zm0.2149 0l-0.0421 0 0 -0.1065c-0.0039,0.008 -0.0082,0.0155 -0.0127,0.0222l-0.0561 0.0842 -0.044 0 0 -0.1587 0.0423 0 0 0.1033c0.0036,-0.0072 0.0071,-0.0136 0.0105,-0.019l0.0564 -0.0843 0.0458 0 0 0.1587zm0.201 -0.0663l-0.1045 0c0.0016,0.0246 0.0165,0.0369 0.0445,0.0369 0.0175,0 0.033,-0.0043 0.0463,-0.0129l0 0.034c-0.0144,0.0081 -0.0333,0.0122 -0.0568,0.0122 -0.0252,0 -0.0449,-0.0071 -0.0589,-0.0213 -0.0141,-0.0143 -0.0211,-0.0341 -0.0211,-0.0596 0,-0.0254 0.0075,-0.0459 0.0224,-0.0618 0.0149,-0.0159 0.0337,-0.0238 0.0563,-0.0238 0.0225,0 0.0401,0.0068 0.0527,0.0204 0.0127,0.0136 0.0191,0.0324 0.0191,0.0562l0 0.0196zm-0.0432 -0.0289c0,-0.0238 -0.0096,-0.0356 -0.0289,-0.0356 -0.0079,0 -0.015,0.0033 -0.0211,0.0097 -0.0061,0.0065 -0.0099,0.0151 -0.0115,0.0259l0.0614 0z"/>
  <path class="fil7" d="M6.4323 3.2736l-0.0475 0 0 -0.1807 -0.0947 0 0 0.1807 -0.0474 0 0 -0.2223 0.1896 0 0 0.2223zm0.0548 -0.0786c0,-0.0261 0.0078,-0.0467 0.0235,-0.0616 0.0157,-0.0149 0.0367,-0.0224 0.0631,-0.0224 0.0255,0 0.0458,0.0073 0.0608,0.022 0.015,0.0147 0.0225,0.0344 0.0225,0.0592 0,0.026 -0.0077,0.0467 -0.0231,0.0621 -0.0154,0.0154 -0.0362,0.0231 -0.0625,0.0231 -0.0258,0 -0.0463,-0.0074 -0.0615,-0.0222 -0.0152,-0.0147 -0.0228,-0.0349 -0.0228,-0.0603zm0.0469 -0.0006c0,0.0316 0.0129,0.0475 0.0387,0.0475 0.0248,0 0.0372,-0.0163 0.0372,-0.0488 0,-0.031 -0.0125,-0.0465 -0.0375,-0.0465 -0.0121,0 -0.0216,0.0042 -0.0283,0.0125 -0.0068,0.0083 -0.0101,0.0201 -0.0101,0.0353zm0.3195 0.0792l-0.0465 0 0 -0.1256 -0.0281 0c-0.0062,0.0529 -0.0153,0.0874 -0.0273,0.1034 -0.0119,0.016 -0.0268,0.024 -0.0446,0.024 -0.0068,0 -0.013,-0.001 -0.0185,-0.003l0 -0.032c0.0037,0.0016 0.0075,0.0024 0.0115,0.0024 0.0092,0 0.0171,-0.0083 0.0237,-0.025 0.0066,-0.0167 0.0126,-0.051 0.0182,-0.1029l0.1116 0 0 0.1587zm0.2008 -0.0663l-0.1045 0c0.0016,0.0246 0.0165,0.0369 0.0445,0.0369 0.0175,0 0.033,-0.0043 0.0463,-0.0129l0 0.034c-0.0144,0.0081 -0.0333,0.0122 -0.0568,0.0122 -0.0252,0 -0.0449,-0.0071 -0.0589,-0.0213 -0.0141,-0.0143 -0.0211,-0.0341 -0.0211,-0.0596 0,-0.0254 0.0075,-0.0459 0.0224,-0.0618 0.0149,-0.0159 0.0337,-0.0238 0.0563,-0.0238 0.0225,0 0.0401,0.0068 0.0527,0.0204 0.0127,0.0136 0.0191,0.0324 0.0191,0.0562l0 0.0196zm-0.0432 -0.0289c0,-0.0238 -0.0096,-0.0356 -0.0289,-0.0356 -0.0079,0 -0.015,0.0033 -0.0211,0.0097 -0.0061,0.0065 -0.0099,0.0151 -0.0115,0.0259l0.0614 0zm0.3168 0.0953l-0.0562 0 -0.0528 -0.0785 -0.0006 0 0 0.0785 -0.0463 0 0 -0.1587 0.0463 0 0 0.0733 0.0006 0 0.0495 -0.0733 0.0553 0 -0.0588 0.0749 0.0631 0.0838zm0.1851 -0.1587l-0.0654 0.1729c-0.0152,0.0402 -0.038,0.0603 -0.0683,0.0603 -0.0119,0 -0.0212,-0.0013 -0.0278,-0.0038l0 -0.0371c0.0062,0.0035 0.0131,0.0053 0.0205,0.0053 0.0126,0 0.0216,-0.0061 0.0267,-0.0184l0.0088 -0.0208 -0.0642 -0.1584 0.0514 0 0.031 0.0994c0.0019,0.006 0.0033,0.0128 0.0042,0.0202l0.0008 0c0.0007,-0.005 0.0022,-0.0117 0.0047,-0.0199l0.0317 -0.0997 0.0459 0zm0.1848 0.1587l-0.0464 0 0 -0.0558c-0.0166,0.0094 -0.0328,0.0141 -0.0485,0.0141 -0.0359,0 -0.0538,-0.0183 -0.0538,-0.0548l0 -0.0621 0.0445 0 0 0.0553c0,0.017 0.0075,0.0255 0.0227,0.0255 0.0108,0 0.0225,-0.0033 0.0351,-0.0099l0 -0.0709 0.0464 0 0 0.1587zm0.2102 0l-0.0465 0 0 -0.067 -0.0577 0 0 0.067 -0.0463 0 0 -0.1587 0.0463 0 0 0.0594 0.0577 0 0 -0.0594 0.0465 0 0 0.1587zm0.0505 -0.0786c0,-0.0261 0.0078,-0.0467 0.0235,-0.0616 0.0157,-0.0149 0.0367,-0.0224 0.0631,-0.0224 0.0255,0 0.0458,0.0073 0.0608,0.022 0.015,0.0147 0.0225,0.0344 0.0225,0.0592 0,0.026 -0.0077,0.0467 -0.0231,0.0621 -0.0154,0.0154 -0.0362,0.0231 -0.0625,0.0231 -0.0258,0 -0.0463,-0.0074 -0.0615,-0.0222 -0.0152,-0.0147 -0.0228,-0.0349 -0.0228,-0.0603zm0.0469 -0.0006c0,0.0316 0.0129,0.0475 0.0387,0.0475 0.0248,0 0.0372,-0.0163 0.0372,-0.0488 0,-0.031 -0.0125,-0.0465 -0.0375,-0.0465 -0.0121,0 -0.0216,0.0042 -0.0283,0.0125 -0.0068,0.0083 -0.0101,0.0201 -0.0101,0.0353zm0.2749 -0.0441l-0.0554 0 0 0.1233 -0.0463 0 0 -0.1587 0.1017 0 0 0.0354zm0.0354 0.0447c0,-0.0261 0.0078,-0.0467 0.0235,-0.0616 0.0157,-0.0149 0.0367,-0.0224 0.0631,-0.0224 0.0255,0 0.0458,0.0073 0.0608,0.022 0.015,0.0147 0.0225,0.0344 0.0225,0.0592 0,0.026 -0.0077,0.0467 -0.0231,0.0621 -0.0154,0.0154 -0.0362,0.0231 -0.0625,0.0231 -0.0258,0 -0.0463,-0.0074 -0.0615,-0.0222 -0.0152,-0.0147 -0.0228,-0.0349 -0.0228,-0.0603zm0.0469 -0.0006c0,0.0316 0.0129,0.0475 0.0387,0.0475 0.0248,0 0.0372,-0.0163 0.0372,-0.0488 0,-0.031 -0.0125,-0.0465 -0.0375,-0.0465 -0.0121,0 -0.0216,0.0042 -0.0283,0.0125 -0.0068,0.0083 -0.0101,0.0201 -0.0101,0.0353zm-2.368 0.3584l0 -0.1587 0.0863 0c0.0374,0 0.0561,0.0129 0.0561,0.0387 0,0.009 -0.0029,0.0167 -0.0087,0.0232 -0.0058,0.0065 -0.0136,0.0108 -0.0233,0.0128 0.0121,0.0017 0.0213,0.0059 0.0277,0.0125 0.0064,0.0066 0.0096,0.0146 0.0096,0.024 0,0.0144 -0.0051,0.0259 -0.0154,0.0345 -0.0103,0.0087 -0.024,0.013 -0.0414,0.013l-0.091 0zm0.0462 -0.1297l0 0.0346 0.0257 0c0.0155,0 0.0233,-0.0061 0.0233,-0.0183 0,-0.0109 -0.0072,-0.0163 -0.0218,-0.0163l-0.0271 0zm0 0.0627l0 0.0374 0.03 0c0.0163,0 0.0244,-0.0065 0.0244,-0.0196 0,-0.0119 -0.0085,-0.0178 -0.0254,-0.0178l-0.029 0zm0.3659 0.067l-0.0465 0 0 -0.1587 0.0465 0 0 0.1587zm-0.2125 0l0 -0.1587 0.0463 0 0 0.0561 0.0419 0c0.0179,0 0.0318,0.0044 0.0417,0.0131 0.0099,0.0088 0.0149,0.021 0.0149,0.0365 0,0.016 -0.005,0.0288 -0.0148,0.0384 -0.0098,0.0097 -0.0235,0.0145 -0.0407,0.0145l-0.0892 0zm0.0463 -0.0727l0 0.0426 0.0253 0c0.017,0 0.0255,-0.0073 0.0255,-0.022 0,-0.0138 -0.0084,-0.0206 -0.0251,-0.0206l-0.0257 0zm0.4801 0.1306l-0.0379 0 0 -0.0578 -0.2162 0 0 -0.1587 0.0463 0 0 0.1255 0.0448 0 0 -0.1255 0.0463 0 0 0.1255 0.0449 0 0 -0.1255 0.0466 0 0 0.1255 0.0251 0 0 0.091zm0.1879 -0.1242l-0.1045 0c0.0016,0.0246 0.0165,0.0369 0.0445,0.0369 0.0175,0 0.033,-0.0043 0.0463,-0.0129l0 0.034c-0.0144,0.0081 -0.0333,0.0122 -0.0568,0.0122 -0.0252,0 -0.0449,-0.0071 -0.0589,-0.0213 -0.0141,-0.0143 -0.0211,-0.0341 -0.0211,-0.0596 0,-0.0254 0.0075,-0.0459 0.0224,-0.0618 0.0149,-0.0159 0.0337,-0.0238 0.0563,-0.0238 0.0225,0 0.0401,0.0068 0.0527,0.0204 0.0127,0.0136 0.0191,0.0324 0.0191,0.0562l0 0.0196zm-0.0432 -0.0289c0,-0.0238 -0.0096,-0.0356 -0.0289,-0.0356 -0.0079,0 -0.015,0.0033 -0.0211,0.0097 -0.0061,0.0065 -0.0099,0.0151 -0.0115,0.0259l0.0614 0zm0.2372 0.0953l-0.0465 0 0 -0.1256 -0.0281 0c-0.0062,0.0529 -0.0153,0.0874 -0.0273,0.1034 -0.0119,0.016 -0.0268,0.024 -0.0446,0.024 -0.0068,0 -0.013,-0.001 -0.0185,-0.003l0 -0.032c0.0037,0.0016 0.0075,0.0024 0.0115,0.0024 0.0092,0 0.0171,-0.0083 0.0237,-0.025 0.0066,-0.0167 0.0126,-0.051 0.0182,-0.1029l0.1116 0 0 0.1587zm0.0637 -0.1491c0.0072,-0.004 0.0168,-0.0072 0.0288,-0.0097 0.012,-0.0025 0.0223,-0.0037 0.0308,-0.0037 0.0444,0 0.0666,0.0222 0.0666,0.0667l0 0.0958 -0.044 0 0 -0.0231 -0.0006 0c-0.0108,0.018 -0.0266,0.027 -0.0475,0.027 -0.015,0 -0.027,-0.0043 -0.0361,-0.0128 -0.009,-0.0086 -0.0136,-0.0202 -0.0136,-0.035 0,-0.0304 0.0182,-0.0481 0.0544,-0.053l0.0436 -0.0059c0,-0.0185 -0.0096,-0.0277 -0.0288,-0.0277 -0.0189,0 -0.0368,0.0057 -0.0535,0.0172l0 -0.0357zm0.0524 0.0772c-0.0168,0.0022 -0.0251,0.0097 -0.0251,0.0227 0,0.0059 0.0021,0.0107 0.0061,0.0144 0.0041,0.0036 0.0095,0.0054 0.0164,0.0054 0.0095,0 0.0173,-0.0033 0.0234,-0.01 0.0061,-0.0067 0.0092,-0.015 0.0092,-0.0249l0 -0.0114 -0.03 0.0039zm0.278 0.0719l-0.0464 0 0 -0.0558c-0.0166,0.0094 -0.0328,0.0141 -0.0485,0.0141 -0.0359,0 -0.0538,-0.0183 -0.0538,-0.0548l0 -0.0621 0.0445 0 0 0.0553c0,0.017 0.0075,0.0255 0.0227,0.0255 0.0108,0 0.0225,-0.0033 0.0351,-0.0099l0 -0.0709 0.0464 0 0 0.1587zm0.2146 0l-0.0421 0 0 -0.1065c-0.0039,0.008 -0.0082,0.0155 -0.0127,0.0222l-0.0561 0.0842 -0.044 0 0 -0.1587 0.0423 0 0 0.1033c0.0036,-0.0072 0.0071,-0.0136 0.0105,-0.019l0.0564 -0.0843 0.0458 0 0 0.1587zm0.0603 0l0 -0.1587 0.0863 0c0.0374,0 0.0561,0.0129 0.0561,0.0387 0,0.009 -0.0029,0.0167 -0.0087,0.0232 -0.0058,0.0065 -0.0136,0.0108 -0.0233,0.0128 0.0121,0.0017 0.0213,0.0059 0.0277,0.0125 0.0064,0.0066 0.0096,0.0146 0.0096,0.024 0,0.0144 -0.0051,0.0259 -0.0154,0.0345 -0.0103,0.0087 -0.024,0.013 -0.0414,0.013l-0.091 0zm0.0462 -0.1297l0 0.0346 0.0257 0c0.0155,0 0.0233,-0.0061 0.0233,-0.0183 0,-0.0109 -0.0072,-0.0163 -0.0218,-0.0163l-0.0271 0zm0 0.0627l0 0.0374 0.03 0c0.0163,0 0.0244,-0.0065 0.0244,-0.0196 0,-0.0119 -0.0085,-0.0178 -0.0254,-0.0178l-0.029 0zm0.1573 -0.0821c0.0072,-0.004 0.0168,-0.0072 0.0288,-0.0097 0.012,-0.0025 0.0223,-0.0037 0.0308,-0.0037 0.0444,0 0.0666,0.0222 0.0666,0.0667l0 0.0958 -0.044 0 0 -0.0231 -0.0006 0c-0.0108,0.018 -0.0266,0.027 -0.0475,0.027 -0.015,0 -0.027,-0.0043 -0.0361,-0.0128 -0.009,-0.0086 -0.0136,-0.0202 -0.0136,-0.035 0,-0.0304 0.0182,-0.0481 0.0544,-0.053l0.0436 -0.0059c0,-0.0185 -0.0096,-0.0277 -0.0288,-0.0277 -0.0189,0 -0.0368,0.0057 -0.0535,0.0172l0 -0.0357zm0.0524 0.0772c-0.0168,0.0022 -0.0251,0.0097 -0.0251,0.0227 0,0.0059 0.0021,0.0107 0.0061,0.0144 0.0041,0.0036 0.0095,0.0054 0.0164,0.0054 0.0095,0 0.0173,-0.0033 0.0234,-0.01 0.0061,-0.0067 0.0092,-0.015 0.0092,-0.0249l0 -0.0114 -0.03 0.0039zm0.2815 0.0719l-0.0465 0 0 -0.067 -0.0577 0 0 0.067 -0.0463 0 0 -0.1587 0.0463 0 0 0.0594 0.0577 0 0 -0.0594 0.0465 0 0 0.1587zm0.2149 0l-0.0421 0 0 -0.1065c-0.0039,0.008 -0.0082,0.0155 -0.0127,0.0222l-0.0561 0.0842 -0.044 0 0 -0.1587 0.0423 0 0 0.1033c0.0036,-0.0072 0.0071,-0.0136 0.0105,-0.019l0.0564 -0.0843 0.0458 0 0 0.1587zm0.1961 0l-0.0459 0 0 -0.0601 -0.0123 0c-0.0088,0 -0.0168,0.0077 -0.024,0.0231l-0.0173 0.037 -0.0517 0 0.0236 -0.0455c0.0069,-0.0134 0.0166,-0.0219 0.0287,-0.0257 -0.0263,-0.0044 -0.0393,-0.0181 -0.0393,-0.0412 0,-0.0309 0.0222,-0.0463 0.0667,-0.0463l0.0716 0 0 0.1587zm-0.0459 -0.0884l0 -0.0402 -0.0198 0c-0.0175,0 -0.0263,0.0066 -0.0263,0.0198 0,0.0136 0.0087,0.0204 0.0261,0.0204l0.02 0z"/>
 </g>
</svg>
