<?xml version="1.0"?>
<svg xmlns="http://www.w3.org/2000/svg" xmlns:xlink="http://www.w3.org/1999/xlink" xmlns:svgjs="http://svgjs.com/svgjs" version="1.1" width="512" height="512" x="0" y="0" viewBox="0 0 512 512" style="enable-background:new 0 0 512 512" xml:space="preserve" class=""><g><g xmlns="http://www.w3.org/2000/svg"><path d="m437.02 74.98c-48.353-48.351-112.64-74.98-181.02-74.98-62.354 0-122.438 22.691-169.186 63.893-3.107 2.739-3.406 7.478-.667 10.585 2.739 3.108 7.479 3.406 10.585.667 44.006-38.785 100.569-60.145 159.268-60.145 64.373 0 124.894 25.068 170.412 70.587 45.52 45.519 70.588 106.039 70.588 170.413s-25.068 124.894-70.588 170.413c-45.518 45.519-106.039 70.587-170.412 70.587-64.374 0-124.894-25.068-170.413-70.587s-70.587-106.039-70.587-170.413c0-54.95 18.996-108.711 53.489-151.381 2.604-3.221 2.104-7.943-1.118-10.547-3.221-2.604-7.943-2.104-10.547 1.118-18.02 22.292-32.062 47.204-41.734 74.044-10.013 27.781-15.09 56.974-15.09 86.766 0 68.38 26.629 132.667 74.98 181.02 48.353 48.351 112.64 74.98 181.02 74.98s132.667-26.629 181.02-74.98c48.351-48.353 74.98-112.64 74.98-181.02s-26.629-132.667-74.98-181.02z" fill="#363636" data-original="#000000" style="" class=""/><path d="m385.509 163.092c-4.117-7.972-12.676-13.399-21.803-13.827-8.384-.394-15.808 3.523-20.437 10.741l-15.34 23.911c-30.67-53.293-66.03-98.183-66.408-98.66-1.422-1.799-3.589-2.848-5.882-2.848s-4.46 1.049-5.883 2.848c-.28.354-28.325 35.934-55.967 81.081-37.529 61.294-56.557 110.289-56.557 145.62 0 64.863 53.117 117.633 118.407 117.633s118.407-52.77 118.407-117.633c0-21.071-6.933-47.386-20.571-78.227l30.531-47.589c4.721-7.358 5.268-15.76 1.503-23.05zm-14.128 14.95-55.902 87.135c-2.236 3.486-1.224 8.125 2.263 10.362 3.485 2.235 8.125 1.224 10.362-2.263l15.58-24.284c10.193 24.891 15.362 46.036 15.362 62.966 0 56.592-46.388 102.633-103.407 102.633s-103.407-46.041-103.407-102.633c0-67.584 80.691-179.539 103.41-209.715 11.861 15.735 39.507 53.716 63.135 95.939l-65.089 101.455-17.713-22.985c-7.098-9.21-20.849-13.475-33.397-3.806-12.62 9.726-12.038 24.139-4.94 33.35l38.692 50.207c4.55 5.903 11.715 9.428 19.167 9.428 7.789 0 16.166-4.578 20.37-11.133l31.276-48.75c2.236-3.486 1.224-8.125-2.263-10.362-3.486-2.236-8.126-1.224-10.362 2.263l-31.277 48.751c-1.445 2.254-5.064 4.232-7.744 4.232-2.833 0-5.556-1.34-7.286-3.584l-38.691-50.207c-4.984-6.468 1.463-11.734 2.215-12.313 1.207-.931 7.478-5.253 12.36 1.081l24.214 31.421c1.489 1.933 3.814 3.019 6.264 2.915 2.438-.105 4.671-1.39 5.99-3.443l73.184-114.073c.049-.074.097-.148.143-.223l22.005-34.299c1.731-2.699 4.117-4 7.109-3.856 3.693.173 7.553 2.581 9.178 5.727 1.312 2.539 1.05 5.177-.801 8.064z" fill="#363636" data-original="#000000" style="" class=""/></g></g></svg>
