<?xml version="1.0"?>
<svg xmlns="http://www.w3.org/2000/svg" xmlns:xlink="http://www.w3.org/1999/xlink" xmlns:svgjs="http://svgjs.com/svgjs" version="1.1" width="512" height="512" x="0" y="0" viewBox="0 0 511.596 511.596" style="enable-background:new 0 0 512 512" xml:space="preserve" class=""><g><g xmlns="http://www.w3.org/2000/svg" fill="#233d91"><path d="m204.298 382.432-74.993-119.155c-11.428-18.158-34.763-24.49-54.007-13.796v-112.885c0-37.22-30.28-67.5-67.5-67.5h-7.5v269.121l39 86v19.879h-15v67.5h15v-52.5h165v52.5h15v-67.5h-15zm-15 61.664h-135v-23.121l-39-86v-250.345c25.408 3.65 45 25.563 45 51.966v127.347c-7.356 12.283-8.103 28.109-.138 41.557l43.185 72.918 12.906-7.645-43.185-72.918c-7.47-12.611-2.828-28.907 10.23-35.66 11.872-6.141 26.193-2.241 33.312 9.071l72.688 115.493v57.337z" fill="#000529" data-original="#233d91" style=""/><path d="m511.298 338.217v-269.121h-7.5c-37.22 0-67.5 30.28-67.5 67.5v112.884c-19.203-10.671-42.555-4.399-54.007 13.796l-74.993 119.155v61.664h-15v67.5h15v-52.5h165v52.5h15v-67.5h-15v-19.879zm-54 82.758v23.121h-135v-57.336l72.688-115.493c11.98-19.038 40.153-14.222 46.114 6.554 5.16 17.987-7.345 23.61-45.756 92.953l12.906 7.645 43.185-72.918c7.941-13.408 7.234-29.248-.138-41.557v-127.348c0-26.402 19.592-48.315 45-51.966v250.345z" fill="#000529" data-original="#233d91" style=""/><path d="m208.298 165.096h25v22.5h15v-22.5h15v22.5h15v-22.5h25v-25h22.5v-15h-22.5v-15h22.5v-15h-22.5v-25h-25v-22.5h-15v22.5h-15v-22.5h-15v22.5h-25v25h-22.5v15h22.5v15h-22.5v15h22.5zm15-80h65v65h-65z" fill="#000529" data-original="#233d91" style=""/><path d="m188.578 213.98c6.086 4.252 9.72 11.171 9.72 18.509v82.607h115v-82.316c0-7.532 3.585-14.526 9.591-18.71 31.564-21.99 50.409-58.055 50.409-96.474 0-104.573-127.693-157.143-201.221-82.656-51.221 51.892-42.972 137.49 16.501 179.04zm109.72 86.116h-85v-25h85zm0-40h-85v-25h85zm-43.82-244.992c101.561-1.124 141.908 129.482 59.837 186.657-6.489 4.52-11.272 10.976-13.85 18.335h-89.305c-2.585-7.337-7.419-13.822-13.991-18.413-80.613-56.319-43.499-185.312 57.309-186.579z" fill="#000529" data-original="#233d91" style=""/><path d="m225.798 330.096h60v15h-60z" fill="#000529" data-original="#233d91" style=""/><path d="m85.798 110.096h40v15h-40z" fill="#000529" data-original="#233d91" style=""/><path d="m96.119 165.096h40v15h-40z" transform="matrix(.866 -.5 .5 .866 -70.742 81.184)" fill="#000529" data-original="#233d91" style=""/><path d="m108.619 42.596h15v40h-15z" transform="matrix(.5 -.866 .866 .5 3.849 131.859)" fill="#000529" data-original="#233d91" style=""/><path d="m385.798 110.096h40v15h-40z" fill="#000529" data-original="#233d91" style=""/><path d="m387.978 152.596h15v40h-15z" transform="matrix(.5 -.866 .866 .5 48.265 428.79)" fill="#000529" data-original="#233d91" style=""/><path d="m375.478 55.096h40v15h-40z" transform="matrix(.866 -.5 .5 .866 21.687 206.127)" fill="#000529" data-original="#233d91" style=""/></g></g></svg>
