<?xml version="1.0" encoding="UTF-8"?>
<!DOCTYPE svg PUBLIC "-//W3C//DTD SVG 1.1//EN" "http://www.w3.org/Graphics/SVG/1.1/DTD/svg11.dtd">
<!-- Creator: CorelDRAW 2020 (64-Bit) -->
<svg xmlns="http://www.w3.org/2000/svg" xml:space="preserve" width="19mm" height="16.6902mm" version="1.1" style="shape-rendering:geometricPrecision; text-rendering:geometricPrecision; image-rendering:optimizeQuality; fill-rule:evenodd; clip-rule:evenodd"
viewBox="0 0 0.7521 0.6607"
 xmlns:xlink="http://www.w3.org/1999/xlink"
 xmlns:xodm="http://www.corel.com/coreldraw/odm/2003">
 <defs>
  <style type="text/css">
   <![CDATA[
    .fil0 {fill:#FEFEFE}
   ]]>
  </style>
 </defs>
 <g id="图层_x0020_1">
  <metadata id="CorelCorpID_0Corel-Layer"/>
  <path class="fil0" d="M0.5655 0l-0.3783 0 -0.1872 0.3268 0.0971 0.1826 0.3797 0 0.0821 -0.1511 -0.0809 0c-0.018,0.0255 -0.0459,0.0503 -0.094,0.0695 0,0 -0.0407,0.0173 -0.1262,0.0132 0,0 -0.0107,-0.0002 -0.0087,-0.0165 0.0015,-0.0222 0.0057,-0.0446 0.0129,-0.0662l-0.1545 0c-0.0148,0 -0.013,-0.0044 -0.0059,-0.0189l0.1578 -0.275 0.3359 0 -0.0299 -0.0644z"/>
  <path class="fil0" d="M0.2734 0.3892c0.0268,-0.1461 0.1529,-0.1826 0.2802,-0.1675 0,0 -0.0421,0.0147 -0.0613,0.0759 -0.0275,0.0881 -0.1211,0.1334 -0.2033,0.1282 -0.0062,-0.0002 -0.0077,0.0014 -0.0064,-0.0084 0.006,-0.0471 0.0494,-0.0925 0.1024,-0.1182 0.0198,-0.0077 0.0202,-0.0133 -0.0094,-0.002 -0.0783,0.0298 -0.1022,0.0925 -0.1023,0.0921z"/>
  <path class="fil0" d="M0.1866 0.6607l0.3783 0 0.1872 -0.3268 -0.0971 -0.1826 -0.3797 0 -0.0821 0.1511 0.0956 0c0.0641,-0.0985 0.1935,-0.1166 0.3,-0.0859 -0.0437,0.0247 -0.0639,0.0393 -0.0824,0.0859l0.1381 0c0.0148,0 0.013,0.0044 0.0059,0.0189l-0.1578 0.275 -0.3359 0 0.0299 0.0644z"/>
 </g>
</svg>
