<?xml version="1.0" encoding="UTF-8"?>
<!DOCTYPE svg PUBLIC "-//W3C//DTD SVG 1.1//EN" "http://www.w3.org/Graphics/SVG/1.1/DTD/svg11.dtd">
<!-- Creator: CorelDRAW 2020 (64-Bit) -->
<svg xmlns="http://www.w3.org/2000/svg" xml:space="preserve" width="138.044mm" height="129.427mm" version="1.1" style="shape-rendering:geometricPrecision; text-rendering:geometricPrecision; image-rendering:optimizeQuality; fill-rule:evenodd; clip-rule:evenodd"
viewBox="0 0 6.5644 6.1547"
 xmlns:xlink="http://www.w3.org/1999/xlink"
 xmlns:xodm="http://www.corel.com/coreldraw/odm/2003">
 <defs>
  <style type="text/css">
   <![CDATA[
    .fil0 {fill:#FEFEFE}
    .fil1 {fill:#FEFEFE;fill-rule:nonzero}
   ]]>
  </style>
 </defs>
 <g id="Слой_x0020_1">
  <metadata id="CorelCorpID_0Corel-Layer"/>
  <path class="fil0" d="M1.7203 5.5669l-0.5456 0.5456c-0.0563,0.0563 -0.1484,0.0563 -0.2047,0l-0.9278 -0.9278c-0.0563,-0.0563 -0.0563,-0.1484 0,-0.2047l0.9403 -0.9403c0.0031,0.0938 0.0126,0.1884 0.0287,0.2831 0.0853,0.5009 0.3444,0.9348 0.7091,1.2441z"/>
  <path class="fil0" d="M5.5819 4.0396l0.9403 0.9403c0.0563,0.0563 0.0563,0.1484 0,0.2047l-0.9278 0.9278c-0.0563,0.0563 -0.1484,0.0563 -0.2047,0l-0.5456 -0.5456c0.3647,-0.3093 0.6238,-0.7431 0.7091,-1.2441 0.0161,-0.0948 0.0256,-0.1893 0.0287,-0.2831z"/>
  <path class="fil1" d="M3.9742 1.8982l0 -1.2817c0.1501,-0.044 0.2451,-0.1915 0.223,-0.3464 -0.0221,-0.1549 -0.1547,-0.2699 -0.3111,-0.2701l-1.2078 0c-0.1564,0.0002 -0.289,0.1153 -0.3111,0.2701 -0.0221,0.1548 0.0729,0.3024 0.223,0.3464l0 1.2817c-0.9622,0.3374 -1.5409,1.3195 -1.3698,2.3247 0.1711,1.0052 1.0422,1.7405 2.0618,1.7405 1.0196,0 1.8907,-0.7353 2.0618,-1.7405 0.1711,-1.0052 -0.4076,-1.9873 -1.3698,-2.3247zm-0.692 3.8894c-0.9449,-0.0003 -1.7485,-0.6896 -1.8926,-1.6234 -0.1441,-0.9338 0.4143,-1.8333 1.3152,-2.1184 0.0366,-0.0115 0.0615,-0.0455 0.0615,-0.084l0 -1.4208c0,-0.0486 -0.0395,-0.0881 -0.0881,-0.0881 -0.0764,0 -0.1384,-0.062 -0.1384,-0.1384 0,-0.0764 0.062,-0.1384 0.1384,-0.1384l1.2078 0c0.0764,0 0.1384,0.062 0.1384,0.1384 0,0.0764 -0.062,0.1384 -0.1384,0.1384 -0.0486,0 -0.0881,0.0395 -0.0881,0.0881l0 1.4207c-0.0001,0.0384 0.0249,0.0725 0.0615,0.0841 0.9009,0.2851 1.4593,1.1846 1.3152,2.1184 -0.1441,0.9339 -0.9477,1.6232 -1.8926,1.6234z"/>
  <path class="fil1" d="M4.2059 3.2293c-0.0148,-0.0255 -0.0421,-0.0412 -0.0716,-0.0412l-0.3986 0 -0.1998 -0.3476c-0.0147,-0.0257 -0.0421,-0.0415 -0.0717,-0.0415l-0.4469 0c-0.0296,0 -0.0569,0.0158 -0.0716,0.0414l-0.1837 0.3182 -0.1444 -0.0758c0.0017,-0.0116 0.0026,-0.0235 0.0026,-0.0356 0,-0.1368 -0.1113,-0.2481 -0.2481,-0.2481 -0.1368,0 -0.2481,0.1113 -0.2481,0.2481 0,0.1368 0.1113,0.2481 0.2481,0.2481 0.065,0 0.1242,-0.0252 0.1685,-0.0662l0.1939 0.1018 0.2114 0.3618c0.0149,0.0254 0.0421,0.041 0.0714,0.041l0.3982 0 0.175 0.3108 -0.1664 0.2506c-0.019,-0.0047 -0.039,-0.0072 -0.0594,-0.0072 -0.1368,0 -0.2482,0.1113 -0.2482,0.2481 0,0.1368 0.1113,0.2481 0.2482,0.2481 0.0376,0 0.074,-0.0083 0.107,-0.0241l0.1653 0.1653c-0.0158,0.033 -0.0241,0.0694 -0.0241,0.107 0,0.1368 0.1113,0.2481 0.2481,0.2481 0.1368,0 0.2481,-0.1113 0.2481,-0.2481 0,-0.1368 -0.1113,-0.2482 -0.2481,-0.2482 -0.0377,0 -0.074,0.0084 -0.107,0.0242l-0.1653 -0.1653c0.0158,-0.033 0.0242,-0.0694 0.0242,-0.107 0,-0.0563 -0.0189,-0.1082 -0.0506,-0.1499l0.1696 -0.2554 0.4025 0c0.0297,0 0.0571,-0.0159 0.0719,-0.0417l0.2235 -0.3918c0.0146,-0.0256 0.0145,-0.057 -0.0003,-0.0825l-0.2235 -0.3853zm-1.8338 -0.0995c-0.0456,0 -0.0827,-0.0371 -0.0827,-0.0827 0,-0.0456 0.0371,-0.0827 0.0827,-0.0827 0.0456,0 0.0827,0.0371 0.0827,0.0827 0,0.0456 -0.0371,0.0827 -0.0827,0.0827zm0.5175 0.1387l0.1755 -0.3041 0.3513 0 0.1757 0.3055 -0.1751 0.2983 -0.3521 0 -0.1752 -0.2998zm0.3923 1.2675c0,-0.0456 0.0371,-0.0827 0.0827,-0.0827 0.0456,0 0.0827,0.0371 0.0827,0.0827 0,0.0457 -0.037,0.0827 -0.0827,0.0827 -0.0456,0 -0.0827,-0.0371 -0.0827,-0.0827zm0.6617 0.4963c0,0.0456 -0.0371,0.0827 -0.0827,0.0827 -0.0456,0 -0.0827,-0.0371 -0.0827,-0.0827 0,-0.0457 0.0371,-0.0827 0.0827,-0.0827 0.0456,0 0.0827,0.0371 0.0827,0.0827zm0.1427 -1.067l-0.3505 0 -0.1763 -0.3131 0.1754 -0.2989 0.3519 0 0.1758 0.3033 -0.1761 0.3088z"/>
 </g>
</svg>
