<?xml version="1.0" encoding="UTF-8"?>
<!DOCTYPE svg PUBLIC "-//W3C//DTD SVG 1.1//EN" "http://www.w3.org/Graphics/SVG/1.1/DTD/svg11.dtd">
<!-- Creator: CorelDRAW 2019 (64-Bit) -->
<svg xmlns="http://www.w3.org/2000/svg" xml:space="preserve" width="29.7132mm" height="5.495mm" version="1.1" style="shape-rendering:geometricPrecision; text-rendering:geometricPrecision; image-rendering:optimizeQuality; fill-rule:evenodd; clip-rule:evenodd"
viewBox="0 0 0.2671 0.0494"
 xmlns:xlink="http://www.w3.org/1999/xlink">
 <defs>
  <style type="text/css">
   <![CDATA[
    .fil3 {fill:red}
    .fil0 {fill:white}
    .fil2 {fill:red;fill-rule:nonzero}
    .fil1 {fill:white;fill-rule:nonzero}
   ]]>
  </style>
 </defs>
 <g id="Слой_x0020_1">
  <metadata id="CorelCorpID_0Corel-Layer"/>
  <polygon class="fil0" points="0.0119,0.0084 0.0411,0.0084 0.0411,0 0.0119,0 0.0059,0 -0,0 -0,0.0125 0.0119,0.0125 "/>
  <path class="fil1" d="M0.1654 0l0.0222 0c0.0066,0 0.0114,0.0008 0.0143,0.0024 0.0029,0.0016 0.0044,0.0043 0.0044,0.008l0 0.0087c0,0.0029 -0.001,0.0052 -0.0031,0.0068 -0.0021,0.0016 -0.0048,0.0027 -0.0082,0.0032l0.0143 0.0203 -0.0137 0 -0.0129 -0.0194 -0.0055 0 0 0.0194 -0.0119 0 0 -0.0272 0.0119 0 0.0102 0c0.0028,0 0.0047,-0.0004 0.0057,-0.0011 0.001,-0.0007 0.0015,-0.0022 0.0015,-0.0043l0 -0.0035c0,-0.0018 -0.0005,-0.0031 -0.0016,-0.0038 -0.0011,-0.0007 -0.003,-0.001 -0.0056,-0.001l-0.0102 0 -0 0.0087 -0.0119 0 0 -0.0172z"/>
  <path class="fil1" d="M0.1122 0l0.0198 0c0.0048,0 0.0086,0.0003 0.0115,0.001 0.0028,0.0007 0.0049,0.0018 0.0062,0.0035 0.0013,0.0016 0.0019,0.0039 0.0019,0.0069l0 0.0094c0,0.0032 -0.0007,0.0058 -0.0021,0.0076 -0.0014,0.0018 -0.0036,0.0031 -0.0066,0.0039 -0.003,0.0008 -0.0071,0.0011 -0.0122,0.0011l-0.0065 0 0 0.0161 -0.0119 0 -0 -0.036 0.0119 0 0 0.0118 0.0075 0c0.0031,0 0.0053,-0.0004 0.0065,-0.0011 0.0013,-0.0007 0.0019,-0.002 0.0019,-0.0038l0 -0.0079c0,-0.0016 -0.0006,-0.0027 -0.0018,-0.0032 -0.0012,-0.0005 -0.0034,-0.0008 -0.0068,-0.0008l-0.0074 0 -0.0119 0 0 -0.0084z"/>
  <path class="fil1" d="M0.2201 0.0222l0 -0.0077c0,-0.0024 0.0005,-0.0045 0.0016,-0.0063 0.0011,-0.0019 0.0025,-0.0033 0.0042,-0.0044 0.0015,-0.0009 0.0034,-0.0017 0.0056,-0.0024 0.0022,-0.0006 0.0043,-0.001 0.0062,-0.0012 0.0018,-0.0001 0.0037,-0.0002 0.0056,-0.0002 0.0023,0 0.0044,0.0001 0.0061,0.0003 0.0017,0.0002 0.0037,0.0005 0.0058,0.0011 0.0024,0.0007 0.0044,0.0015 0.006,0.0025 0.0016,0.001 0.0029,0.0024 0.004,0.0041 0.0011,0.0018 0.0017,0.004 0.0017,0.0066l0 0.0077 -0.0119 0 0 -0.0077c0,-0.0023 -0.0009,-0.0039 -0.0028,-0.0048 -0.0019,-0.001 -0.0048,-0.0014 -0.0088,-0.0014 -0.004,0 -0.0069,0.0005 -0.0088,0.0014 -0.0019,0.0009 -0.0028,0.0026 -0.0028,0.0049l0 0.0077 -0.0119 0z"/>
  <path class="fil2" d="M0.2435 0.0494c-0.0027,0 -0.0053,-0.0002 -0.0076,-0.0005 -0.0023,-0.0003 -0.0047,-0.0009 -0.0072,-0.0018 -0.0027,-0.0009 -0.0048,-0.0023 -0.0063,-0.0043 -0.0015,-0.002 -0.0023,-0.0044 -0.0023,-0.0073l0 -0.0083 0.0119 0 0 0.0083c0,0.0012 0.0003,0.0023 0.001,0.0031 0.0007,0.0008 0.0016,0.0014 0.0029,0.0017 0.0012,0.0003 0.0024,0.0006 0.0035,0.0007 0.0011,0.0001 0.0026,0.0002 0.0042,0.0002 0.0017,0 0.0031,-0.0001 0.0042,-0.0002 0.0011,-0.0001 0.0023,-0.0004 0.0035,-0.0007 0.0012,-0.0003 0.0021,-0.0009 0.0028,-0.0017 0.0006,-0.0008 0.001,-0.0018 0.001,-0.0031l0 -0.0083 0.0119 0 0 0.0083c0,0.0027 -0.0007,0.0049 -0.0022,0.0069 -0.0014,0.0019 -0.0034,0.0034 -0.006,0.0044 -0.0046,0.0018 -0.0097,0.0027 -0.0154,0.0027z"/>
  <polygon class="fil0" points="0.0856,0.02 0.0983,0 0.0864,0 0.0796,0.0106 0.0825,0.0152 "/>
  <polygon class="fil3" points="0.0668,0.0205 0.0528,0 0.0656,0 0.0827,0.0247 0.0656,0.0494 0.0528,0.0494 0.0668,0.0289 0.0119,0.0289 0.0119,0.0319 -0,0.0319 -0,0.0175 0.0119,0.0175 0.0119,0.0205 "/>
  <polygon class="fil0" points="0.0856,0.0293 0.0983,0.0494 0.0864,0.0494 0.0796,0.0388 0.0825,0.0342 "/>
  <polygon class="fil0" points="-0,0.0369 0.0119,0.0369 0.0119,0.0409 0.0411,0.0409 0.0411,0.0494 0.0119,0.0494 0.0059,0.0494 -0,0.0494 "/>
 </g>
</svg>
