<?xml version="1.0"?>
<svg xmlns="http://www.w3.org/2000/svg" xmlns:xlink="http://www.w3.org/1999/xlink" xmlns:svgjs="http://svgjs.com/svgjs" version="1.1" width="512" height="512" x="0" y="0" viewBox="0 0 512 512" style="enable-background:new 0 0 512 512" xml:space="preserve" class=""><g><g xmlns="http://www.w3.org/2000/svg"><path d="m437.02 74.98c-48.353-48.351-112.64-74.98-181.02-74.98-58.233 0-113.107 19.059-158.691 55.117-3.249 2.57-3.799 7.287-1.229 10.535 2.57 3.25 7.288 3.799 10.535 1.229 42.907-33.941 94.564-51.881 149.385-51.881 61.867 0 120.166 23.165 165.019 65.374l-58.928 58.928c-6.044-4.391-13.469-6.99-21.494-6.99-20.213 0-36.658 16.445-36.658 36.658 0 8.025 2.599 15.45 6.99 21.494l-19.863 19.863c-1.183-10.544-5.855-20.623-13.633-28.402-17.017-17.019-43.813-18.444-62.472-4.28-7.012-21.979-27.658-37.967-51.878-37.967-30.018 0-54.439 24.421-54.439 54.439 0 15.884 6.761 30.603 18.441 40.849-11.807 13.821-18.441 31.559-18.441 49.87 0 18.526 6.694 36.413 18.85 50.365 6.13 7.036 13.44 12.83 21.517 17.182l-68.636 68.636c-42.21-44.853-65.375-103.152-65.375-165.019 0-60.514 22.53-118.379 63.438-162.936 2.802-3.051 2.599-7.795-.452-10.597s-7.796-2.599-10.597.452c-43.456 47.332-67.389 108.8-67.389 173.081 0 68.38 26.629 132.667 74.98 181.02 48.353 48.351 112.64 74.98 181.02 74.98s132.667-26.629 181.02-74.98c48.351-48.353 74.98-112.64 74.98-181.02s-26.629-132.667-74.98-181.02zm-96.422 72.333c11.942 0 21.658 9.716 21.658 21.658s-9.716 21.658-21.658 21.658-21.658-9.716-21.658-21.658 9.715-21.658 21.658-21.658zm85.815 279.1c-45.519 45.519-106.039 70.587-170.413 70.587-61.867 0-120.166-23.165-165.019-65.374l73.09-73.09c.539.156 1.076.318 1.618.462-.567 2.872-.852 5.803-.852 8.773 0 24.915 20.27 45.185 45.184 45.185 12.484 0 24.225-5.116 32.677-13.98 9.948 6.657 21.44 9.959 32.922 9.958 15.232-.001 30.44-5.817 41.954-17.332 8.385-8.385 14-18.988 16.254-30.477 11.323 1.339 22.913-.473 33.278-5.236 8.811-4.05 2.549-17.674-6.264-13.63-9.749 4.481-21.194 5.481-31.582 2.78-5.306-.678-8.432 1.616-9.377 6.88-.554 10.976-5.141 21.301-12.916 29.076-16.484 16.484-43.087 17.336-60.565 1.942-4.185-2.903-7.921-2.409-11.208 1.483-5.62 8.475-15.03 13.534-25.174 13.534-16.644 0-30.184-13.541-30.184-30.185 0-4.009.775-7.905 2.304-11.58 1.413-5.336-.532-8.769-5.834-10.301-30.023-4.412-52.664-30.659-52.664-61.053 0-17.136 7.226-33.649 19.824-45.307 3.543-4.336 3.163-8.295-1.14-11.878-11.699-7.259-18.684-19.795-18.684-33.534 0-21.747 17.692-39.439 39.439-39.439 21.621 0 39.311 17.59 39.433 39.211.042 7.289 9.839 10.151 13.798 4.03 5.922-9.158 16.528-14.948 27.432-14.948 8.719 0 16.917 3.396 23.082 9.561 9.051 9.051 11.973 22.647 7.445 34.637-1.239 5.274.753 8.633 5.974 10.077 10.338 1.451 18.403 9.707 19.611 20.078.618 5.302 7.312 8.8 12.1 5.016 8.403-6.641 18.506-10.151 29.217-10.151 26.017 0 47.184 21.167 47.184 47.183 0 6.719-1.396 13.226-4.149 19.341-3.982 8.842 9.696 15 13.678 6.158 3.63-8.063 5.471-16.643 5.471-25.499 0-34.288-27.896-62.183-62.184-62.183-10.441 0-20.443 2.53-29.426 7.388-3.319-7.471-8.973-13.667-16.055-17.664l26.349-26.348c5.447 3.212 11.789 5.063 18.557 5.063 20.213 0 36.658-16.445 36.658-36.658 0-6.769-1.851-13.11-5.063-18.557l59.433-59.433c42.209 44.855 65.374 103.154 65.374 165.021 0 64.374-25.068 124.894-70.587 170.413z" fill="#363636" data-original="#000000" style="" class=""/><path d="m284.512 123.179c0-13.308-10.826-24.134-24.134-24.134s-24.134 10.826-24.134 24.134 10.826 24.134 24.134 24.134 24.134-10.827 24.134-24.134zm-33.268 0c0-5.037 4.097-9.134 9.134-9.134s9.134 4.097 9.134 9.134-4.097 9.134-9.134 9.134-9.134-4.098-9.134-9.134z" fill="#363636" data-original="#000000" style="" class=""/><path d="m149.016 268.991c-4.047-.892-8.045 1.673-8.933 5.719-5.223 23.812 9.901 47.433 33.713 52.656 9.162 2.016 12.547-12.605 3.214-14.651-15.733-3.451-25.726-19.058-22.275-34.791.888-4.046-1.673-8.046-5.719-8.933z" fill="#363636" data-original="#000000" style="" class=""/></g></g></svg>
