<svg width="201" height="201" viewBox="0 0 201 201" fill="none" xmlns="http://www.w3.org/2000/svg">
<circle cx="100.5" cy="100.5" r="100.5" fill="url(#paint0_linear)"/>
<path d="M100.512 71.608C105.44 71.608 109.728 72.056 113.376 72.952C117.024 73.848 119.872 75.512 121.92 77.944C123.968 80.312 124.992 83.704 124.992 88.12C124.992 90.424 124.768 92.504 124.32 94.36C123.872 96.216 122.912 98.168 121.44 100.216C120.032 102.264 117.856 104.76 114.912 107.704L99.264 122.488C100.736 122.04 102.176 121.752 103.584 121.624C104.992 121.496 106.496 121.464 108.096 121.528H126.528V139H75.168V128.632C75.168 126.968 75.392 125.464 75.84 124.12C76.288 122.776 77.024 121.496 78.048 120.28L91.872 106.744C95.456 103.16 98.304 99.992 100.416 97.24C102.592 94.424 103.68 92.28 103.68 90.808C103.68 89.912 103.232 89.368 102.336 89.176C101.504 88.92 100 88.792 97.824 88.792C95.456 88.792 93.248 88.792 91.2 88.792C89.152 88.792 86.944 88.824 84.576 88.888C82.272 88.888 79.552 88.92 76.416 88.984L75.744 73.72C80.736 72.824 85.152 72.248 88.992 71.992C92.896 71.736 96.736 71.608 100.512 71.608Z" fill="white"/>
<defs>
<linearGradient id="paint0_linear" x1="0" y1="100.5" x2="201" y2="100.5" gradientUnits="userSpaceOnUse">
<stop stop-color="#DC2424"/>
<stop offset="1" stop-color="#4A569D"/>
</linearGradient>
</defs>
</svg>
