<svg width="201" height="201" viewBox="0 0 201 201" fill="none" xmlns="http://www.w3.org/2000/svg">
<circle cx="100.5" cy="100.5" r="100.5" fill="url(#paint0_linear)"/>
<path d="M100.36 71.416C106.056 71.416 110.568 71.896 113.896 72.856C117.288 73.752 119.72 75.32 121.192 77.56C122.664 79.8 123.4 82.904 123.4 86.872C123.4 91.736 122.696 95.576 121.288 98.392C119.88 101.208 116.936 102.936 112.456 103.576V103.96C117.256 104.664 120.552 106.328 122.344 108.952C124.136 111.512 125.064 115.384 125.128 120.568C125.192 125.304 124.424 129.144 122.824 132.088C121.224 134.968 118.6 137.08 114.952 138.424C111.368 139.704 106.536 140.344 100.456 140.344C96.36 140.344 92.168 140.152 87.88 139.768C83.656 139.448 79.592 139.032 75.688 138.52L76.264 123.928C79.272 124.056 81.768 124.152 83.752 124.216C85.8 124.28 87.656 124.344 89.32 124.408C91.048 124.408 92.84 124.408 94.696 124.408C97.32 124.408 99.336 124.28 100.744 124.024C102.216 123.704 103.208 123.064 103.72 122.104C104.296 121.144 104.584 119.672 104.584 117.688C104.584 115.128 104.104 113.368 103.144 112.408C102.184 111.448 100.2 111 97.192 111.064L84.424 111.256V98.584H97.192C99.304 98.584 100.84 98.36 101.8 97.912C102.76 97.464 103.368 96.792 103.624 95.896C103.88 95 104.008 93.912 104.008 92.632C104.008 90.392 103.496 88.952 102.472 88.312C101.512 87.608 99.56 87.256 96.616 87.256H77.704L77.128 73.24C81.032 72.6 84.936 72.152 88.84 71.896C92.744 71.576 96.584 71.416 100.36 71.416Z" fill="white"/>
<defs>
<linearGradient id="paint0_linear" x1="0" y1="100.5" x2="201" y2="100.5" gradientUnits="userSpaceOnUse">
<stop stop-color="#DC2424"/>
<stop offset="1" stop-color="#4A569D"/>
</linearGradient>
</defs>
</svg>
