<?xml version="1.0"?>
<svg xmlns="http://www.w3.org/2000/svg" xmlns:xlink="http://www.w3.org/1999/xlink" xmlns:svgjs="http://svgjs.com/svgjs" version="1.1" width="512" height="512" x="0" y="0" viewBox="0 0 128 128" style="enable-background:new 0 0 512 512" xml:space="preserve" class=""><g><g xmlns="http://www.w3.org/2000/svg"><path d="M123.405,87.116,116.718,55.51a1.749,1.749,0,0,0-1.712-1.387H12.994a1.749,1.749,0,0,0-1.712,1.387L4.6,87.116a1.749,1.749,0,0,0,1.712,2.113h4.937v32.463a1.749,1.749,0,0,0,1.75,1.75H115.006a1.749,1.749,0,0,0,1.75-1.75V89.229h4.937a1.749,1.749,0,0,0,1.712-2.113ZM14.413,57.623H61.841L55.894,85.729H8.466Zm.331,31.606H57.312a1.748,1.748,0,0,0,1.711-1.388L62.25,72.594v47.348H14.744Zm98.512,30.713H65.75V72.594l3.227,15.247a1.748,1.748,0,0,0,1.711,1.388h42.568ZM72.106,85.729,66.159,57.623h47.428l5.947,28.106Z" fill="#ffffff" data-original="#000000" style="" class=""/><path d="M35.153,110.813H21.828a1.75,1.75,0,1,0,0,3.5H35.153a1.75,1.75,0,1,0,0-3.5Z" fill="#ffffff" data-original="#000000" style="" class=""/><path d="M46.043,110.813h-3.95a1.75,1.75,0,0,0,0,3.5h3.95a1.75,1.75,0,0,0,0-3.5Z" fill="#ffffff" data-original="#000000" style="" class=""/><path d="M108.256,63.155H94.932a1.75,1.75,0,1,0,0,3.5h13.324a1.75,1.75,0,0,0,0-3.5Z" fill="#ffffff" data-original="#000000" style="" class=""/><path d="M87.992,63.155h-3.95a1.75,1.75,0,0,0,0,3.5h3.95a1.75,1.75,0,0,0,0-3.5Z" fill="#ffffff" data-original="#000000" style="" class=""/><path d="M64,48.2A21.821,21.821,0,1,0,42.179,26.379,21.846,21.846,0,0,0,64,48.2ZM64,8.058A18.321,18.321,0,1,1,45.679,26.379,18.341,18.341,0,0,1,64,8.058Z" fill="#ffffff" data-original="#000000" style="" class=""/><path d="M59.7,33.3a1.749,1.749,0,0,0,2.475,0L73.819,21.649a1.749,1.749,0,0,0-2.474-2.474L60.933,29.586l-4.278-4.277a1.749,1.749,0,1,0-2.474,2.474Z" fill="#ffffff" data-original="#000000" style="" class=""/></g></g></svg>
