<?xml version="1.0" encoding="UTF-8"?>
<!DOCTYPE svg PUBLIC "-//W3C//DTD SVG 1.1//EN" "http://www.w3.org/Graphics/SVG/1.1/DTD/svg11.dtd">
<!-- Creator: CorelDRAW 2020 (64-Bit) -->
<svg xmlns="http://www.w3.org/2000/svg" xml:space="preserve" width="270.228mm" height="272.072mm" version="1.1" style="shape-rendering:geometricPrecision; text-rendering:geometricPrecision; image-rendering:optimizeQuality; fill-rule:evenodd; clip-rule:evenodd"
viewBox="0 0 14.8969 14.9985"
 xmlns:xlink="http://www.w3.org/1999/xlink"
 xmlns:xodm="http://www.corel.com/coreldraw/odm/2003">
 <defs>
  <style type="text/css">
   <![CDATA[
    .fil0 {fill:#FEFEFE}
   ]]>
  </style>
 </defs>
 <g id="Слой_x0020_1">
  <metadata id="CorelCorpID_0Corel-Layer"/>
  <path class="fil0" d="M3.2409 5.1272c0.4293,-0.7422 0.8528,-1.4657 1.2719,-2.2092 0.2601,-0.4613 0.9847,-1.7533 1.2642,-2.1934 0.1045,0.0442 0.6857,0.5021 0.8276,0.6052 0.1837,0.1335 0.682,0.5287 0.8243,0.6116 0.0804,-0.0319 1.2574,-0.915 1.4624,-1.0624 0.0714,-0.0514 0.1297,-0.1062 0.2101,-0.1455l0.3281 0.5527c0.7315,1.2695 1.4881,2.6018 2.231,3.8556 0.7423,1.2527 1.4873,2.6167 2.232,3.8552 0.0642,0.1067 0.2808,0.4554 0.3073,0.5513l-1.8893 0.8178 0.1748 1.5878 0.8163 -0.0071c0.0114,0.7225 0.0212,1.8644 -0.0006,2.5596l-11.7155 -0.0085c0.0013,-0.8252 -0.0164,-1.7378 0.0021,-2.5489l0.8326 -0.0028 0.153 -1.5858 -1.8711 -0.8117 2.5386 -4.4216zm5.3939 -4.6799c-0.032,0.0278 -0.0536,0.0534 -0.0894,0.0856 -0.0327,0.0293 -0.0822,0.0587 -0.1245,0.07 -0.0173,0.0477 -0.0082,0.0234 -0.0447,0.0526l-0.3167 0.2278c-0.0254,0.0181 -0.0305,0.0227 -0.0544,0.0428l-0.1882 0.1424c-0.0034,0.0023 -0.0084,0.0053 -0.0118,0.0076l-0.0562 0.0411c-0.0044,0.0036 -0.0165,0.0144 -0.0209,0.018 -0.0085,0.0071 -0.0254,0.0213 -0.0319,0.0264l-0.2476 0.1803 -0.1363 -0.0971c-0.0285,-0.019 -0.036,-0.0251 -0.0653,-0.0514 -0.003,-0.0027 -0.007,-0.0068 -0.01,-0.0095l-0.1246 -0.0893c-0.0227,-0.0156 -0.0445,-0.0332 -0.0667,-0.05 -0.0529,-0.0398 -0.0949,-0.0775 -0.1425,-0.1104l-0.1301 -0.1005c-0.0017,-0.0013 -0.0061,-0.0047 -0.0079,-0.006l-0.2326 -0.1645c-0.0102,-0.0083 -0.0197,-0.0151 -0.0325,-0.0259 -0.0611,-0.0513 -0.0416,-0.015 -0.0627,-0.0734 -0.0916,-0.0076 -0.3195,-0.2053 -0.3974,-0.2638 -0.0399,-0.0299 -0.0529,-0.041 -0.0874,-0.0682l-0.2472 -0.1806c-0.022,-0.0131 -0.0459,-0.0225 -0.0654,-0.0318l-0.1094 0.1824c-0.0021,0.0038 -0.0049,0.0087 -0.007,0.0125l-0.2716 0.4674c-0.028,0.0483 -0.0532,0.0861 -0.0787,0.1352l-0.6513 1.1184c-0.0308,0.0583 -0.0417,0.0833 -0.0795,0.1345 -0.0214,0.029 -0.0024,-0.0001 -0.0252,0.0331 -0.0203,0.0295 -0.0083,0.0109 -0.0223,0.036l-0.5772 1.0175c-0.019,0.0351 -0.0259,0.0474 -0.0425,0.0742l-0.023 0.0353c-0.0086,0.0136 -0.0022,-0.0003 -0.0224,0.036 -0.013,0.0235 -0.0202,0.0424 -0.0321,0.0652 -0.0721,0.1393 -0.0968,0.1287 -0.2008,0.3437 -0.0256,0.0528 -0.0542,0.0861 -0.0871,0.1463l-0.3177 0.538 -0.0167 0.0214c-0.0186,0.0253 -0.0119,0.0128 -0.0202,0.0281 -0.0266,0.0486 0.0101,0.0141 -0.0652,0.1398l-0.0216 0.0369c-0.0021,0.0038 -0.0048,0.0087 -0.0069,0.0126 -0.0318,0.0591 -0.1403,0.2568 -0.1805,0.2862 -0.0123,0.1121 -0.1447,0.2671 -0.2105,0.3923l-0.0562 0.0994c-0.0209,0.0306 -0.0078,0.0136 -0.0249,0.0334l-0.3112 0.5445c-0.0814,0.1136 -0.1398,0.2497 -0.2128,0.3707l-0.335 0.5791c-0.0294,0.0514 -0.0472,0.0655 -0.0812,0.1327l-0.1728 0.294c-0.0024,0.0033 -0.0059,0.0078 -0.0083,0.0111 -0.0033,0.0047 -0.0128,0.0181 -0.0159,0.023 -0.0277,0.0434 -0.0176,0.032 -0.0401,0.0766l-1.0498 1.806c-0.0065,0.0159 -0.0124,0.0397 -0.029,0.0698 -0.0733,0.1334 -0.1978,0.2765 -0.2334,0.4294 0.1611,0.0852 0.3476,0.1533 0.52,0.219l0.2264 0.1042c0.0054,0.0026 0.0203,0.0106 0.0257,0.0132l0.5074 0.2137c0.004,0.0018 0.0095,0.004 0.0134,0.0058l0.4319 0.1892c0.1082,0.0469 0.2325,0.1215 0.3366,0.1302 0,0.2665 -0.0719,0.533 -0.0778,0.7973 -0.1472,0 -0.6952,-0.0225 -0.8167,0.001 -0.0987,0.0191 -0.0607,0.0761 -0.0581,0.1922 0.0082,0.3659 -0.0002,0.7427 -0.0002,1.1098 0,0.7455 0,1.491 0,2.2365l12.1936 0c0.604,0 0.4862,0.0885 0.4862,-0.5251 0,-0.3384 0.0208,-2.925 0,-3.0144 -0.1403,-0.0297 -0.6491,0 -0.8751,0 -0.01,-0.1201 -0.0277,-0.2811 -0.0417,-0.4058 -0.0098,-0.087 -0.0361,-0.2434 -0.0361,-0.3916 0.0631,-0.0053 0.0384,-0.0081 0.0613,-0.0165l0.2761 -0.1129c0.0042,-0.0018 0.0092,-0.0043 0.0133,-0.0062l0.9216 -0.4008c0.0056,-0.0024 0.0214,-0.0095 0.0271,-0.0118l0.7622 -0.3269 -0.5767 -1.018c-0.0634,-0.1052 0.0489,0.0767 -0.0155,-0.0234l-2.6322 -4.5634c-0.0176,-0.0332 -0.0207,-0.0465 -0.0376,-0.0791l-0.2837 -0.4748c-0.0348,-0.0581 -0.0514,-0.0881 -0.085,-0.1484l-0.3871 -0.6824c-0.0179,-0.0256 -0.0021,0.0006 -0.0252,-0.032l-0.2454 -0.4322c-0.2284,-0.3655 -0.4295,-0.7527 -0.6528,-1.1213l-0.2544 -0.4478c-0.1016,-0.1388 -0.1871,-0.3162 -0.2701,-0.4669l-0.1403 -0.2546c-0.0016,-0.0022 -0.0227,-0.0226 -0.034,-0.0379l-0.2062 0.1244c-0.1016,0.0874 -0.3087,0.2942 -0.4161,0.3229z"/>
  <path class="fil0" d="M1.3581 9.343c0.1973,0.0581 0.8911,0.396 1.1281,0.4845 0.1179,0.044 0.195,-0.0394 0.374,-0.1408l4.131 -2.383 0.0029 -5.0089c0.0001,-0.1645 0.0156,-0.089 -0.2137,-0.2657l-0.8488 -0.6156 -0.0811 0.1195c-0.027,0.0479 -0.0451,0.0751 -0.0721,0.123l-0.9952 1.7269c-0.3902,0.6563 -0.763,1.3318 -1.1447,1.9864 -0.3818,0.6549 -0.7694,1.3078 -1.1383,1.9735 -0.1007,0.1817 -1.1022,1.8762 -1.1421,2.0002z"/>
  <path class="fil0" d="M3.019 10.6411c-0.0299,0.2535 -0.163,1.131 -0.1405,1.3141l9.1358 -0.0014c0.0124,-0.183 -0.0646,-0.6421 -0.0886,-0.8495 -0.0107,-0.093 -0.0312,-0.3771 -0.0529,-0.4397 -0.0254,-0.0732 -0.2059,-0.1514 -0.2867,-0.1972 -1.2191,-0.6898 -2.4453,-1.4232 -3.6621,-2.114 -0.6396,-0.3631 -0.3119,-0.3436 -1.2272,0.1716l-3.6779 2.1161z"/>
  <path class="fil0" d="M7.8968 3.7534l0.0012 3.5395 4.1365 2.3956c0.0984,0.0562 0.2547,0.1836 0.3475,0.1489l1.146 -0.5025c-0.0342,-0.1109 -1.0431,-1.8266 -1.1287,-1.9753l-2.2909 -3.9707c-0.2323,-0.3943 -0.6477,-1.0893 -0.8543,-1.4799 -0.0789,-0.1491 -0.1754,-0.4162 -0.3081,-0.4988l-0.9912 0.7302c-0.114,0.0951 -0.0739,0.5912 -0.0716,0.7769 0.0036,0.2819 0.0132,0.5548 0.0136,0.8362z"/>
  <path class="fil0" d="M5.0999 13.6087c0.198,0.2124 0.3124,0.337 0.6185,0.318 0.4125,-0.0256 0.3422,-0.1751 0.4331,-0.5053 0.0616,-0.2238 0.1573,-0.5232 0.198,-0.7517 -0.1646,0.0037 -0.5146,-0.019 -0.6515,0.0131 -0.0594,0.2007 -0.1271,0.4733 -0.1328,0.6876 -0.0359,-0.0272 -0.1804,-0.2276 -0.2119,-0.2678 -0.0604,-0.0772 -0.1497,-0.1677 -0.2159,-0.2317 -0.1816,-0.1754 -0.3552,-0.2895 -0.6801,-0.2082 -0.3317,0.0831 -0.3117,0.1863 -0.3985,0.5155 -0.0612,0.2322 -0.1355,0.4996 -0.1785,0.73l0.6581 0.0007c0.054,-0.3034 0.1354,-0.4433 0.1298,-0.8044l0.4316 0.5042z"/>
  <path class="fil0" d="M8.8018 12.6706l-0.6727 0.0031c-0.0685,0.1011 -0.0949,0.2991 -0.1215,0.4347l-0.7003 -0.0003 0.1111 -0.4375 -0.6695 0.0042 -0.3209 1.2339 0.6696 -0.0044c0.0331,-0.1411 0.0674,-0.3831 0.137,-0.4939l0.6885 0.0024 -0.1315 0.4956 0.6869 -0.0042 0.3233 -1.2337z"/>
  <path class="fil0" d="M12.8188 12.96c0.0149,-0.0211 0.001,0.0091 0.0229,-0.0417l0.0598 -0.2467c-0.6304,-0.0078 -1.6356,0.072 -1.8631,0.5266 -0.3315,0.6622 1.0549,0.7267 1.5434,0.7081l0.0643 -0.2915c-0.21,0.0014 -0.4673,0.0117 -0.6608,-0.0467 -0.1546,-0.0467 -0.3724,-0.1576 -0.2603,-0.3443 0.0756,-0.1259 0.2589,-0.1921 0.4563,-0.2238 0.2045,-0.0329 0.465,-0.009 0.6375,-0.0398z"/>
  <path class="fil0" d="M3.6357 13.6157c-0.2345,-0.0001 -0.5116,0.0144 -0.7206,-0.0582 -0.3658,-0.1271 -0.3865,-0.5287 0.509,-0.5833 0.4038,-0.0246 0.4089,0.0888 0.465,-0.2997 -0.436,-0.032 -1.625,0.0677 -1.8567,0.5015 -0.3822,0.7153 1.2351,0.7636 1.5329,0.7283l0.0705 -0.2886z"/>
  <polygon class="fil0" points="11.018,12.671 9.1912,12.6713 9.1277,12.965 9.7006,12.9657 9.4538,13.9078 10.1198,13.9045 10.3679,12.9659 10.9452,12.9625 "/>
 </g>
</svg>
