<?xml version="1.0"?>
<svg xmlns="http://www.w3.org/2000/svg" xmlns:xlink="http://www.w3.org/1999/xlink" xmlns:svgjs="http://svgjs.com/svgjs" version="1.1" width="512" height="512" x="0" y="0" viewBox="0 0 512 512" style="enable-background:new 0 0 512 512" xml:space="preserve" class=""><g><g xmlns="http://www.w3.org/2000/svg"><path d="m441.623 69.854c-45.046-45.046-104.939-69.854-168.646-69.854s-123.6 24.808-168.646 69.854-69.854 104.939-69.854 168.646c0 5.655.212 11.359.608 16.994l-34.562 32.616 25.313 43.966 23.57-10.37c5.647 15.185 12.86 29.781 21.511 43.543-17.553 24.134-34.216 53.361-20.279 91.786-20.059.709-36.161 17.237-36.161 37.466v17.499h215v-17.5c0-8.693-2.981-16.697-7.963-23.063 16.792 3.696 33.997 5.563 51.463 5.563 63.707 0 123.6-24.808 168.646-69.854s69.854-104.939 69.854-168.646-24.808-123.6-69.854-168.646zm-230.702-46.081c-14.202 11.603-27.258 27.279-38.645 46.698-2.294 3.911-4.493 7.943-6.606 12.075-10.607-5.803-20.768-12.48-30.366-19.992 22.221-17.425 47.813-30.733 75.617-38.781zm-87.327 48.634c11.191 9 23.125 16.921 35.633 23.706-15.988 36.309-25.47 79.491-27.381 125.176-2.821-1.877-5.692-3.672-8.627-5.352-2.222-19.289-18.635-31.937-42.242-31.937h-7.5v35.265l-23.966 22.616c-.017-1.128-.034-2.256-.034-3.381 0-65.861 28.643-125.153 74.117-166.093zm-58.205 249.013c7.961.395 15.987-1.235 23.226-4.854l6.488-3.244c1.881 1.586 3.514 3.164 4.302 4.186-.933 10.447-9.385 22.275-18.8 34.781-5.866-9.896-10.96-20.215-15.216-30.869zm25.052 42.738c12.097-16.01 23.523-31.133 24.033-47.423.063-1.999.253-8.08-14.143-18.342l-3.673-2.619-14.75 7.375c-7.855 3.928-17.076 4.412-25.297 1.328l-2.859-1.072-21.633 9.519-12.687-22.034 69.045-65.155v-26.102c8.593 1.466 20 6.181 20 20.867v4.494l3.962 2.12c49.069 26.247 82.038 83.469 82.038 142.392 0 30.167-6.621 62.548-17.782 87.495h-109.927c-16.962-39.056 3.682-66.385 23.673-92.843zm124.036 132.842h-185v-2.5c0-12.407 10.093-22.5 22.5-22.5h140c12.407 0 22.5 10.093 22.5 22.5zm51-35.138c-23.818-.78-47.059-5.28-69.284-13.416 8.151-23.333 12.936-50.496 13.246-76.274 18.161-5.38 36.956-8.411 56.038-9.04zm0-113.735c-19.198.594-38.132 3.461-56.49 8.566-3.069-41.445-20.821-81.24-48.209-110.693h104.699zm0-117.127h-118.923c.909-48.028 10.515-92.325 26.096-128.142 28.968 13.426 60.54 20.992 92.827 22.01zm0-121.14c-30.061-1.011-59.45-8.078-86.43-20.569 21.646-42.455 52.299-70.3 86.43-73.883zm230.861 121.14h-81.937c-.891-49.258-10.542-95.983-27.677-134.886 12.51-6.785 24.444-14.706 35.636-23.707 43.741 39.379 71.894 95.74 73.978 158.593zm-85.687-168.445c-9.599 7.513-19.761 14.19-30.369 19.994-1.946-3.807-3.962-7.533-6.063-11.154-11.508-19.839-24.737-35.827-39.151-47.61 27.791 8.048 53.371 21.351 75.583 38.77zm-130.174-47.147c30.233 3.169 58.674 25.428 80.766 63.512 1.954 3.369 3.831 6.837 5.645 10.379-26.975 12.485-56.358 19.55-86.411 20.56zm0 109.46c32.289-1.018 63.863-8.585 92.833-22.012 16.119 36.864 25.212 81.232 26.089 128.144h-118.922zm0 121.132h118.921c-.851 45.502-9.431 88.611-24.655 124.8-29.343-13.843-61.4-21.636-94.266-22.668zm0 215.592v-98.452c30.702 1.028 60.641 8.351 88.046 21.31-2.309 4.684-4.732 9.237-7.28 13.63-22.091 38.084-50.533 60.343-80.766 63.512zm54.591-8.376c14.413-11.784 27.642-27.771 39.151-47.61 2.674-4.611 5.218-9.384 7.642-14.292 10.958 6.114 21.432 13.168 31.298 21.12-22.788 18.401-49.245 32.428-78.091 40.782zm89.608-50.744c-11.45-9.445-23.69-17.742-36.546-24.83 16.257-38.244 25.405-83.746 26.271-131.642h81.937c-2.047 61.734-29.247 117.203-71.662 156.472z" fill="#000529" data-original="#233d91" style=""/></g></g></svg>
