<?xml version="1.0"?>
<svg xmlns="http://www.w3.org/2000/svg" xmlns:xlink="http://www.w3.org/1999/xlink" xmlns:svgjs="http://svgjs.com/svgjs" version="1.1" width="512" height="512" x="0" y="0" viewBox="0 0 511 511" style="enable-background:new 0 0 512 512" xml:space="preserve" class=""><g><g xmlns="http://www.w3.org/2000/svg" fill="#233d91"><path d="m443 266.755v-192.361l-74.394-74.394h-300.606v206.755c-17.096 3.484-30 18.635-30 36.745v230c0 20.678 16.822 37.5 37.5 37.5h360c20.678 0 37.5-16.822 37.5-37.5v-170c0-18.11-12.904-33.261-30-36.745zm-70-241.149 44.394 44.394h-44.394zm-290-10.606h275v70h70v181h-141.422c-9.614 0-19.042-3.308-26.55-9.313l-47.608-38.086c-10.156-8.126-22.913-12.601-35.92-12.601h-93.5zm375 458.5c0 12.406-10.093 22.5-22.5 22.5h-360c-12.407 0-22.5-10.094-22.5-22.5v-230c0-12.406 10.093-22.5 22.5-22.5h101c9.614 0 19.042 3.308 26.55 9.313l47.608 38.086c10.157 8.126 22.913 12.601 35.92 12.601h148.922c12.407 0 22.5 10.094 22.5 22.5z" fill="#000529" data-original="#233d91" style="" class=""/><path d="m264.5 381h-18c-4.687 0-8.5-3.813-8.5-8.5s3.813-8.5 8.5-8.5h34v-15h-17.5v-14.5h-15v14.5h-1.5c-12.958 0-23.5 10.542-23.5 23.5s10.542 23.5 23.5 23.5h18c4.687 0 8.5 3.813 8.5 8.5s-3.813 8.5-8.5 8.5h-34v15h17.5v14.5h15v-14.5h1.5c12.958 0 23.5-10.542 23.5-23.5s-10.542-23.5-23.5-23.5z" fill="#000529" data-original="#233d91" style="" class=""/><path d="m255.5 301c-48.248 0-87.5 39.252-87.5 87.5s39.252 87.5 87.5 87.5 87.5-39.252 87.5-87.5-39.252-87.5-87.5-87.5zm0 160c-39.977 0-72.5-32.523-72.5-72.5s32.523-72.5 72.5-72.5 72.5 32.523 72.5 72.5-32.523 72.5-72.5 72.5z" fill="#000529" data-original="#233d91" style="" class=""/><path d="m255.5 209c48.248 0 87.5-39.252 87.5-87.5s-39.252-87.5-87.5-87.5-87.5 39.252-87.5 87.5 39.252 87.5 87.5 87.5zm0-160c39.977 0 72.5 32.523 72.5 72.5s-32.523 72.5-72.5 72.5-72.5-32.523-72.5-72.5 32.523-72.5 72.5-72.5z" fill="#000529" data-original="#233d91" style="" class=""/><path d="m306.803 99.804-10.606-10.608-58.697 58.698-26.697-26.698-10.606 10.608 37.303 37.302z" fill="#000529" data-original="#233d91" style="" class=""/></g></g></svg>
