<svg id="filled_outline" height="512" viewBox="0 0 512 512" width="512" xmlns="http://www.w3.org/2000/svg" data-name="filled outline"><path d="m392 488h56a16 16 0 0 0 16-16v-384h-72z" fill="#b2c6eb"/><path d="m352 488h56a16 16 0 0 0 16-16v-384h-72z" fill="#c8dbf7"/><path d="m384 88v384a16 16 0 0 1 -16 16h-304a16 16 0 0 1 -16-16v-384z" fill="#e0edff"/><path d="m392 24h56a16 16 0 0 1 16 16v48h-72z" fill="#486be0"/><path d="m352 24h56a16 16 0 0 1 16 16v48h-72z" fill="#517ef7"/><path d="m48 88v-48a16 16 0 0 1 16-16h304a16 16 0 0 1 16 16v48z" fill="#548aff"/><path d="m152 200a40 40 0 0 1 40-40v-40a80 80 0 0 0 -80 80z" fill="#eda600"/><path d="m304 232a80 80 0 0 1 -160 0h40a40 40 0 0 0 80 0 40.56885 40.56885 0 0 0 -.8-8 40.01621 40.01621 0 0 0 -39.2-32v-40a79.96477 79.96477 0 0 1 80 80z" fill="#f6bb00"/><path d="m304 232a80.00365 80.00365 0 0 1 -80 80v-40a40.00182 40.00182 0 0 0 40-40 40.56885 40.56885 0 0 0 -.8-8l39.19019-8a79.60243 79.60243 0 0 1 1.60981 16z" fill="#eda600"/><path d="m152 376h128v32h-128z" fill="#548aff"/><path d="m152 408h168v32h-168z" fill="#517ef7"/><path d="m302.39014 216-39.19014 8a40.01621 40.01621 0 0 0 -39.2-32v-40a80.01392 80.01392 0 0 1 78.39014 64z" fill="#de9400"/><path d="m112 208h40a8.00039 8.00039 0 0 0 8-8 32.03667 32.03667 0 0 1 32-32 8.00039 8.00039 0 0 0 8-8v-40a8.00039 8.00039 0 0 0 -8-8 88.09957 88.09957 0 0 0 -88 88 8.00039 8.00039 0 0 0 8 8zm72-79.55859v24.22559a48.12391 48.12391 0 0 0 -39.333 39.333h-24.22559a72.146 72.146 0 0 1 63.55859-63.55859z"/><path d="m280 120h16v16h-16z"/><path d="m312 120h32v16h-32z"/><path d="m149.65723 309.65723 13.82739-13.8274a87.84192 87.84192 0 0 0 121.03076 0l13.82739 13.8274a8.00235 8.00235 0 0 0 5.65723 2.34277h40v-16h-36.68652l-12.21192-12.21289a87.80284 87.80284 0 0 0 0-103.57422l12.21192-12.21289h36.68652v-16h-40a8.00235 8.00235 0 0 0 -5.65723 2.34277l-13.82739 13.8274a87.68637 87.68637 0 0 0 -60.51538-24.17017 8.00039 8.00039 0 0 0 -8 8v40a8.00039 8.00039 0 0 0 8 8 32 32 0 1 1 -32 32 8.00039 8.00039 0 0 0 -8-8h-40a8.00039 8.00039 0 0 0 -8 8 87.52369 87.52369 0 0 0 16.89844 51.78711l-12.21192 12.21289h-36.68652v16h40a8.00235 8.00235 0 0 0 5.65723-2.34277zm82.34277-124.99023v-24.22559a72.18509 72.18509 0 0 1 60.49854 49.41211l-23.73194 4.84423a48.15428 48.15428 0 0 0 -36.7666-30.03075zm40 47.333c0-.54492-.019-1.08545-.03711-1.626l23.74072-4.84619c.19092 2.13308.29639 4.29031.29639 6.47219a72.095 72.095 0 0 1 -64 71.54492v-24.22436a48.0682 48.0682 0 0 0 40-47.32056zm-95.333 8a48.11684 48.11684 0 0 0 39.333 39.32251v24.218a72.131 72.131 0 0 1 -63.55859-63.54051z"/><path d="m152 328h16v16h-16z"/><path d="m104 328h32v16h-32z"/><path d="m280 328h16v16h-16z"/><path d="m112 384h16v16h-16z"/><path d="m112 416h16v16h-16z"/><path d="m312 328h32v16h-32z"/><path d="m448 496a24.0275 24.0275 0 0 0 24-24v-432a24.0275 24.0275 0 0 0 -24-24h-384a24.0275 24.0275 0 0 0 -24 24v432a24.0275 24.0275 0 0 0 24 24zm-57.37622-16a23.88238 23.88238 0 0 0 1.37622-8v-376h24v376a8.00917 8.00917 0 0 1 -8 8zm57.37622 0h-17.37622a23.88238 23.88238 0 0 0 1.37622-8v-376h24v376a8.00917 8.00917 0 0 1 -8 8zm8-440v40h-24v-40a23.88238 23.88238 0 0 0 -1.37622-8h17.37622a8.00917 8.00917 0 0 1 8 8zm-40 0v40h-24v-40a23.88238 23.88238 0 0 0 -1.37622-8h17.37622a8.00917 8.00917 0 0 1 8 8zm-352-8h304a8.00917 8.00917 0 0 1 8 8v40h-320v-40a8.00917 8.00917 0 0 1 8-8zm-8 440v-376h320v376a8.00917 8.00917 0 0 1 -8 8h-304a8.00917 8.00917 0 0 1 -8-8z"/><circle cx="80" cy="56" r="8"/><circle cx="104" cy="56" r="8"/><circle cx="128" cy="56" r="8"/><path d="m320 400h-32v-24a8.00039 8.00039 0 0 0 -8-8h-128a8.00039 8.00039 0 0 0 -8 8v64a8.00039 8.00039 0 0 0 8 8h168a8.00039 8.00039 0 0 0 8-8v-32a8.00039 8.00039 0 0 0 -8-8zm-160-16h112v16h-112zm152 48h-152v-16h152z"/></svg>